<svg id="football" xmlns="http://www.w3.org/2000/svg" width="16.466" height="16.466" viewBox="0 0 16.466 16.466">
  <path id="Path_13" data-name="Path 13" d="M161.115,26.357l.642-1.985a7.4,7.4,0,0,0-3.921-2.827l-1.669,1.2V25.16l2.675,1.933Z" transform="translate(-147.509 -20.351)" fill="#fff"/>
  <path id="Path_14" data-name="Path 14" d="M195.036,124.792l-1.7-1.235-2.352.764-1,3.059,1.445,1.989,2.108,0a7.308,7.308,0,0,0,1.492-4.433C195.037,124.89,195.037,124.841,195.036,124.792Z" transform="translate(-179.459 -116.707)" fill="#fff"/>
  <path id="Path_15" data-name="Path 15" d="M20.04,123.706l-2.365-.768L16,124.154q0,.1,0,.2a7.308,7.308,0,0,0,1.455,4.384l2.091.007,1.474-2.028Z" transform="translate(-15.113 -116.122)" fill="#fff"/>
  <path id="Path_16" data-name="Path 16" d="M42.642,27.07l2.63-1.915V22.744l-1.65-1.2a7.364,7.364,0,0,0-3.92,2.844l.624,1.932Z" transform="translate(-37.501 -20.346)" fill="#fff"/>
  <path id="Path_17" data-name="Path 17" d="M94.3,200.5l-1.479,2.036.655,2.012a7.349,7.349,0,0,0,4.8.024l.656-2.013-1.5-2.059Z" transform="translate(-87.67 -189.384)" fill="#fff"/>
  <path id="Path_18" data-name="Path 18" d="M8.233,0a8.233,8.233,0,1,0,8.233,8.233A8.242,8.242,0,0,0,8.233,0Zm.425,2.4,1.669-1.2a7.386,7.386,0,0,1,3.916,2.827L13.6,6.006l-2.272.736L8.658,4.809Zm-2.537-1.2,1.65,1.2V4.809L5.141,6.724,2.828,5.971,2.2,4.039A7.369,7.369,0,0,1,6.121,1.194ZM2.342,12.617A7.308,7.308,0,0,1,.887,8.233q0-.1,0-.2L2.562,6.816l2.365.768.98,3.011L4.433,12.623ZM10.6,15.188a7.349,7.349,0,0,1-4.8-.024l-.655-2.012,1.479-2.036H9.758l1.5,2.059Zm1.38-2.526-1.445-1.989,1-3.059L13.88,6.85l1.7,1.235c0,.049,0,.1,0,.148a7.308,7.308,0,0,1-1.492,4.433Z" fill="#375fc9"/>
</svg>
