<svg id="Logo" xmlns="http://www.w3.org/2000/svg" width="69" height="69" viewBox="0 0 69 69">
  <path id="Path_1" data-name="Path 1" d="M936.5,390.138A27.362,27.362,0,1,1,909.138,417.5,27.393,27.393,0,0,1,936.5,390.138m0-7.138A34.5,34.5,0,1,0,971,417.5,34.5,34.5,0,0,0,936.5,383Z" transform="translate(-902 -383)" fill="#606368"/>
  <path id="Path_2" data-name="Path 2" d="M971,429.031a34.623,34.623,0,0,0-.8-7.376H959.455a2.019,2.019,0,0,0-1.918-1.413h-2.329a2.019,2.019,0,0,0-1.918,1.413h-9.414V406.209a23.112,23.112,0,0,0-15.077.112v15.335H915.93c-.108-.093-.217-.184-.332-.27a7.77,7.77,0,0,0-4.744-1.351,8.291,8.291,0,0,0-3.838.831,7.75,7.75,0,0,0-1.23.789H902.8a34.615,34.615,0,0,0-.107,14.276h4.688a8.95,8.95,0,0,0,3.607.712,10.19,10.19,0,0,0,3.694-.7l.019-.008h4.191a6.672,6.672,0,0,0,3.127.7,6.366,6.366,0,0,0,3.029-.7H928.8v15.81a23.108,23.108,0,0,0,15.077.112V438.422a5.075,5.075,0,0,0,.4.362,6.855,6.855,0,0,0,4.455,1.223,8.536,8.536,0,0,0,2.578-.345,5.194,5.194,0,0,0,2.012-1.145,4.891,4.891,0,0,0,1.249-2.039c.015-.044.029-.089.042-.134a2.018,2.018,0,0,0,.6.091h2.329a2.011,2.011,0,0,0,1.331-.505h.618a5.332,5.332,0,0,0,2.75.7,5.7,5.7,0,0,0,2.139-.409,2.02,2.02,0,0,0,.894.21h2.3a2.009,2.009,0,0,0,1.334-.505h1.4A34.655,34.655,0,0,0,971,429.031Zm-22.26-13.324H948.4v-2.379h.343a1.325,1.325,0,1,0,1.322-1.322v-.343h2.379v.343a1.325,1.325,0,1,0,1.323,1.322h.343v2.379h-.343a1.325,1.325,0,1,0-1.323,1.322v.343h-2.379v-.343a1.325,1.325,0,1,0-1.322-1.322Zm-29.979,0h-.343v-2.379h.343a1.325,1.325,0,1,0,1.322-1.322v-.343h2.379v.343a1.325,1.325,0,1,0,1.322,1.322h.343v2.379h-.343a1.325,1.325,0,1,0-1.322,1.322v.343h-2.379v-.343a1.325,1.325,0,1,0-1.322-1.322Zm35,27.6h.343v2.379h-.343a1.325,1.325,0,1,0-1.323,1.322v.343h-2.379v-.343a1.325,1.325,0,1,0-1.322-1.322H948.4v-2.379h.343a1.325,1.325,0,1,0,1.322-1.322v-.343h2.379v.343a1.325,1.325,0,1,0,1.323,1.322Zm-29.979,0h.343v2.379h-.343a1.325,1.325,0,1,0-1.322,1.322v.343h-2.379v-.343a1.325,1.325,0,1,0-1.322-1.322h-.343v-2.379h.343a1.325,1.325,0,1,0,1.322-1.322v-.343h2.379v.343a1.325,1.325,0,1,0,1.322,1.322Z" transform="translate(-902 -394.531)" fill="#f03135"/>
  <path id="Path_3" data-name="Path 3" d="M919,446.557v4.84a.123.123,0,0,1-.035.086,6.625,6.625,0,0,1-2.218,1.339,7.916,7.916,0,0,1-2.933.576,6.5,6.5,0,0,1-3.3-.815,5.181,5.181,0,0,1-2.126-2.339,7.7,7.7,0,0,1-.706-3.288,7.281,7.281,0,0,1,.79-3.43,5.428,5.428,0,0,1,2.321-2.312,6.143,6.143,0,0,1,2.891-.618,5.7,5.7,0,0,1,3.519.973,4.436,4.436,0,0,1,1.641,2.693.121.121,0,0,1-.017.091.117.117,0,0,1-.075.051l-2.378.455a.116.116,0,0,1-.133-.084,2.471,2.471,0,0,0-.9-1.35,2.7,2.7,0,0,0-1.659-.5,3.108,3.108,0,0,0-2.41.981,4.272,4.272,0,0,0-.895,2.944,4.746,4.746,0,0,0,.909,3.165,3,3,0,0,0,2.372,1.042,3.946,3.946,0,0,0,1.466-.294,5.136,5.136,0,0,0,1.224-.682v-1.363h-2.625a.118.118,0,0,1-.116-.119v-2.047a.118.118,0,0,1,.116-.119h5.159A.118.118,0,0,1,919,446.557Zm8.463-1.268a5.983,5.983,0,0,1,1.088,4.054.118.118,0,0,1-.116.117H922.86a2.219,2.219,0,0,0,.514,1.411,1.578,1.578,0,0,0,1.225.538,1.249,1.249,0,0,0,.825-.272,1.753,1.753,0,0,0,.511-.9.114.114,0,0,1,.13-.084l2.264.389a.115.115,0,0,1,.081.057.122.122,0,0,1,.01.1,3.934,3.934,0,0,1-1.423,2,4.1,4.1,0,0,1-2.424.688,3.928,3.928,0,0,1-3.408-1.548,5.271,5.271,0,0,1-.872-3.1,5.075,5.075,0,0,1,1.147-3.508,3.763,3.763,0,0,1,2.908-1.277A3.9,3.9,0,0,1,927.461,445.289Zm-1.405,2.508a2.088,2.088,0,0,0-.473-1.337,1.424,1.424,0,0,0-1.1-.489,1.438,1.438,0,0,0-1.142.516,2.01,2.01,0,0,0-.447,1.31Zm11.4-2.513a4.68,4.68,0,0,1,1.279,3.362,4.733,4.733,0,0,1-1.29,3.394,4.328,4.328,0,0,1-3.249,1.349,5.022,5.022,0,0,1-2.3-.559,3.833,3.833,0,0,1-1.68-1.654,5.6,5.6,0,0,1-.572-2.63,5,5,0,0,1,.571-2.3,4.019,4.019,0,0,1,1.628-1.707,4.739,4.739,0,0,1,2.341-.586A4.365,4.365,0,0,1,937.459,445.284Zm-1.863,1.46a1.837,1.837,0,0,0-2.815,0,3.5,3.5,0,0,0,0,3.852,1.836,1.836,0,0,0,2.814,0,2.9,2.9,0,0,0,.574-1.943A2.847,2.847,0,0,0,935.6,446.744Zm8.776-2.792a1.881,1.881,0,0,0-1.045.3,3.134,3.134,0,0,0-.8.872v-.854a.118.118,0,0,0-.116-.119H940.3a.118.118,0,0,0-.116.119v8.8a.118.118,0,0,0,.116.119h2.273a.118.118,0,0,0,.116-.119v-2.718a14.186,14.186,0,0,1,.186-2.919,1.751,1.751,0,0,1,.482-.912,1.425,1.425,0,0,1,1.741.118.107.107,0,0,0,.1.012.116.116,0,0,0,.072-.072l.7-2.031a.121.121,0,0,0-.05-.142A2.962,2.962,0,0,0,944.372,443.951Zm10.459.318v7.9a8.214,8.214,0,0,1-.256,2.366,3.029,3.029,0,0,1-.734,1.259,3.216,3.216,0,0,1-1.253.715,6.352,6.352,0,0,1-1.948.254,4.983,4.983,0,0,1-3.171-.793,2.553,2.553,0,0,1-.956-2.035c0-.079,0-.175.008-.288a.121.121,0,0,1,.041-.085.118.118,0,0,1,.089-.027l2.6.324a.117.117,0,0,1,.1.1.816.816,0,0,0,.253.559,1.585,1.585,0,0,0,.951.226,2.5,2.5,0,0,0,1.275-.256,1.009,1.009,0,0,0,.4-.53,3.54,3.54,0,0,0,.1-1.025v-.943a3.094,3.094,0,0,1-2.455,1.2,3.268,3.268,0,0,1-2.837-1.552,5.333,5.333,0,0,1-.813-3.018,5.067,5.067,0,0,1,1.069-3.461,3.441,3.441,0,0,1,2.669-1.208,3.173,3.173,0,0,1,2.513,1.213v-.9a.118.118,0,0,1,.116-.119h2.127A.118.118,0,0,1,954.831,444.269Zm-2.986,2.323a1.607,1.607,0,0,0-1.3-.621,1.54,1.54,0,0,0-1.257.608,3.008,3.008,0,0,0-.5,1.909,3.137,3.137,0,0,0,.5,1.975,1.5,1.5,0,0,0,1.217.608,1.663,1.663,0,0,0,1.32-.627,2.859,2.859,0,0,0,.545-1.9A3.04,3.04,0,0,0,951.844,446.592Zm7.39-5.79h-2.272a.118.118,0,0,0-.116.119v2.155a.118.118,0,0,0,.116.119h2.272a.118.118,0,0,0,.116-.119v-2.155A.118.118,0,0,0,959.235,440.8Zm0,3.348h-2.272a.118.118,0,0,0-.116.119v8.8a.118.118,0,0,0,.116.119h2.272a.118.118,0,0,0,.116-.119v-8.8A.118.118,0,0,0,959.235,444.15Zm9.892,8.983a.115.115,0,0,1-.1.056H966.78a.115.115,0,0,1-.108-.076c-.061-.158-.133-.387-.222-.7-.009-.033-.017-.063-.025-.09a4.142,4.142,0,0,1-1.144.763,3.621,3.621,0,0,1-1.461.3,3,3,0,0,1-2.17-.77,2.608,2.608,0,0,1-.8-1.951,2.673,2.673,0,0,1,.365-1.392,2.407,2.407,0,0,1,1.023-.94,7.576,7.576,0,0,1,1.835-.552,13.061,13.061,0,0,0,2.114-.536V447.1a1.118,1.118,0,0,0-.283-.867,1.818,1.818,0,0,0-1.145-.257,1.5,1.5,0,0,0-.88.223,1.6,1.6,0,0,0-.507.8.116.116,0,0,1-.13.078l-2.063-.381a.114.114,0,0,1-.078-.054.122.122,0,0,1-.014-.1,3.43,3.43,0,0,1,1.242-1.955,4.427,4.427,0,0,1,2.59-.635,5.461,5.461,0,0,1,2.315.38,2.411,2.411,0,0,1,1.1.987,4.959,4.959,0,0,1,.317,2.141l-.024,2.719a9.62,9.62,0,0,0,.107,1.687,4.966,4.966,0,0,0,.4,1.153A.12.12,0,0,1,969.127,453.133Zm-4.183-3.817a4.035,4.035,0,0,0-1.2.389.855.855,0,0,0-.393.721,1.032,1.032,0,0,0,.321.76,1.1,1.1,0,0,0,.824.322,1.835,1.835,0,0,0,1.1-.392,1.348,1.348,0,0,0,.5-.708,4.638,4.638,0,0,0,.085-1.1v-.3C965.893,449.1,965.475,449.2,964.944,449.317Z" transform="translate(-904.125 -413.188)" fill="#fff"/>
</svg>
