<?xml version="1.0" encoding="utf-8"?>
<!-- Generator: Adobe Illustrator 18.1.1, SVG Export Plug-In . SVG Version: 6.00 Build 0)  -->
<svg version="1.1" id="Layer_1" xmlns="http://www.w3.org/2000/svg" xmlns:xlink="http://www.w3.org/1999/xlink" x="0px" y="0px"
	 viewBox="0 0 65.3 52" enable-background="new 0 0 65.3 52" xml:space="preserve">
<g>
	<path fill="#F5D411" d="M10.1,34H1.2C0.5,34,0,33.5,0,32.8c0-0.6,0.5-1.2,1.2-1.2h8.9c0.6,0,1.2,0.5,1.2,1.2
		C11.2,33.5,10.7,34,10.1,34z"/>
	<path fill="#F5D411" d="M8.3,52c-0.4,0-0.7-0.2-0.9-0.5C7,51,7.1,50.3,7.6,49.9l7.3-5.1c0.5-0.4,1.2-0.2,1.6,0.3
		c0.4,0.5,0.2,1.2-0.3,1.6L9,51.8C8.8,51.9,8.5,52,8.3,52z"/>
	<path fill="#F5D411" d="M13.8,20c-0.3,0-0.5-0.1-0.8-0.3l-6.8-5.8c-0.5-0.4-0.5-1.2-0.1-1.6c0.4-0.5,1.1-0.5,1.6-0.1l6.8,5.8
		c0.5,0.4,0.5,1.1,0.1,1.6C14.5,19.9,14.2,20,13.8,20z"/>
	<path fill="#F5D411" d="M26.8,11c-0.5,0-1-0.4-1.1-0.9l-2-8.7c-0.1-0.6,0.2-1.2,0.9-1.4c0.6-0.1,1.2,0.2,1.4,0.9l2,8.7
		c0.1,0.6-0.3,1.2-0.9,1.4C27,11,26.9,11,26.8,11z"/>
	<path fill="#F5D411" d="M42.5,11c-0.1,0-0.2,0-0.3,0c-0.6-0.1-1-0.8-0.9-1.4l2-8.7c0.1-0.6,0.8-1,1.4-0.9c0.6,0.1,1,0.8,0.9,1.4
		l-2,8.7C43.5,10.6,43.1,11,42.5,11z"/>
	<g>
		<path fill="#F5D411" d="M64.1,34h-8.9c-0.6,0-1.2-0.5-1.2-1.2c0-0.6,0.5-1.2,1.2-1.2h8.9c0.6,0,1.2,0.5,1.2,1.2
			C65.3,33.5,64.7,34,64.1,34z"/>
		<path fill="#F5D411" d="M59,51.2c-0.2,0-0.5-0.1-0.7-0.2l-7.3-5.1c-0.5-0.4-0.7-1.1-0.3-1.6c0.4-0.5,1.1-0.6,1.6-0.3l7.3,5.1
			c0.5,0.4,0.6,1.1,0.3,1.6C59.7,51.1,59.4,51.2,59,51.2z"/>
		<path fill="#F5D411" d="M53.5,20c-0.3,0-0.7-0.1-0.9-0.4c-0.4-0.5-0.4-1.2,0.1-1.6l6.8-5.8c0.5-0.4,1.2-0.4,1.6,0.1
			c0.4,0.5,0.4,1.2-0.1,1.6l-6.8,5.8C54,19.9,53.7,20,53.5,20z"/>
	</g>
</g>
</svg>
