<?xml version="1.0" encoding="utf-8"?>
<!-- Generator: Adobe Illustrator 18.1.1, SVG Export Plug-In . SVG Version: 6.00 Build 0)  -->
<svg version="1.1" id="Layer_1" xmlns="http://www.w3.org/2000/svg" xmlns:xlink="http://www.w3.org/1999/xlink" x="0px" y="0px"
	 viewBox="0 0 64.2 62.7" enable-background="new 0 0 64.2 62.7" xml:space="preserve">
<g>
	<g>
		<path fill="#F5D411" d="M47.7,46.2c1.6-1.6,2.6-3.6,2.9-5.7c-1.8,3.3-4.3,6.2-7.3,8.4C45,48.3,46.5,47.4,47.7,46.2z"/>
		<path fill="#F5D411" d="M30.3,41.2v-4.8C29.9,38,29.9,39.7,30.3,41.2z"/>
		<path fill="#F5D411" d="M18.1,44.4c1.3,0.3,2.6,0.5,3.9,0.7c-0.4-1.2-0.7-2.4-0.9-3.6c-1.6-0.3-3.1-0.6-4.6-1.1
			c-0.9-3.1-1.5-6.5-1.6-10.1h8c0.6-1.2,1.3-2.4,2.1-3.4H15c0.1-3.7,0.7-7.2,1.7-10.3c3.1-0.9,6.6-1.5,10.3-1.7v9.9
			c1.1-1,2.2-1.9,3.4-2.7V15c3.6,0.1,7.1,0.7,10.1,1.6c0.3,0.9,0.5,1.8,0.7,2.8c1.2,0,2.5,0.2,3.6,0.5c-0.1-0.6-0.2-1.2-0.4-1.8
			c2.6,1.2,9.5,5.5,12.7,10.8c0-0.1,0-0.3,0-0.4C57.1,12.8,44.3,0,28.6,0c0,0,0,0,0,0c0,0,0,0,0,0c0,0-0.1,0-0.1,0
			C13.3,0.1,0.9,12.1,0.1,27.1C0,27.6,0,28,0,28.5c0,0.5,0,1,0.1,1.4C0.9,45,13.3,57,28.4,57c0,0,0.1,0,0.1,0c0,0,0,0,0,0
			c0,0,0,0,0,0c1.4,0,2.8-0.1,4.2-0.3C30.6,55.8,21.4,53,18.1,44.4z M51.5,18.3c-2.2-1.8-5-3.3-8.3-4.5c-1.1-3.2-2.6-6-4.4-8.2
			C44.4,8.1,49,12.7,51.5,18.3z M30.3,3.7c3.4,0.9,6.5,4.2,8.6,9c-2.7-0.6-5.6-1-8.6-1.1V3.7z M26.9,3.6v7.9c-3.1,0.1-6,0.5-8.8,1.1
			C20.3,7.8,23.4,4.5,26.9,3.6z M18.2,5.7c-1.7,2.2-3.2,5-4.3,8.1C10.7,15,8,16.4,5.8,18.1C8.3,12.7,12.7,8.2,18.2,5.7z M12.6,18.1
			c-0.6,2.7-1,5.7-1.1,8.8H3.6C4.5,23.4,7.8,20.3,12.6,18.1z M11.5,30.3c0.1,3,0.5,5.9,1.1,8.6c-4.8-2.2-8.1-5.2-9-8.6H11.5z
			 M5.8,38.9c2.2,1.7,4.9,3.2,8.1,4.3c1.1,3.2,2.6,5.9,4.3,8.1C12.7,48.8,8.3,44.4,5.8,38.9z"/>
	</g>
	<g>
		<g>
			<path fill="#323332" d="M63,55.5c1.6,1.6,1.6,4.3,0,5.9l0,0c-1.6,1.6-4.3,1.6-5.9,0L45.3,49.6c-1.6-1.6,4.3-7.5,5.9-5.9L63,55.5z
				"/>
		</g>
		<g>
			<path fill="#323332" d="M40.4,54.1c-4.1,0-7.9-1.6-10.8-4.5c-5.9-5.9-5.9-15.6,0-21.6c2.9-2.9,6.7-4.5,10.8-4.5
				c4.1,0,7.9,1.6,10.8,4.5c6,5.9,6,15.6,0,21.6C48.3,52.5,44.5,54.1,40.4,54.1z M40.4,30.7c-2.2,0-4.2,0.8-5.8,2.4
				c-3.2,3.2-3.2,8.3,0,11.5c1.5,1.5,3.6,2.4,5.8,2.4s4.2-0.9,5.8-2.4c3.2-3.2,3.2-8.4,0-11.5C44.6,31.5,42.6,30.7,40.4,30.7z"/>
		</g>
	</g>
</g>
</svg>
