<?xml version="1.0" encoding="utf-8"?>
<!-- Generator: Adobe Illustrator 18.1.1, SVG Export Plug-In . SVG Version: 6.00 Build 0)  -->
<svg version="1.1" id="Layer_1" xmlns="http://www.w3.org/2000/svg" xmlns:xlink="http://www.w3.org/1999/xlink" x="0px" y="0px"
	 viewBox="0 0 182.1 71.8" enable-background="new 0 0 182.1 71.8" xml:space="preserve">
<g>
	<circle fill="#F36B21" cx="44.4" cy="35.9" r="35.9"/>
	<circle fill="#F36B21" cx="5.7" cy="8.3" r="5.7"/>
	<g>
		<g>
			<g enable-background="new    ">
				<path fill="#010101" d="M98.2,17l1.7,6.4c0.4,1.4,0.7,2.7,0.9,4h0.1c0.3-1.3,0.7-2.6,1.1-4L104,17h1.9l2,6.3
					c0.5,1.5,0.8,2.8,1.1,4.1h0.1c0.2-1.3,0.5-2.6,1-4.1l1.8-6.3h2.3l-4.1,12.6H108l-1.9-6c-0.4-1.4-0.8-2.7-1.1-4.1h-0.1
					c-0.3,1.5-0.7,2.8-1.1,4.2l-2,6h-2.1L95.8,17H98.2z"/>
				<path fill="#010101" d="M117.4,23.7c0.1,3.1,2,4.4,4.3,4.4c1.6,0,2.6-0.3,3.5-0.6l0.4,1.6c-0.8,0.4-2.2,0.8-4.2,0.8
					c-3.9,0-6.2-2.5-6.2-6.3c0-3.8,2.2-6.8,5.9-6.8c4.1,0,5.2,3.6,5.2,5.9c0,0.5-0.1,0.8-0.1,1.1H117.4z M124.2,22.1
					c0-1.5-0.6-3.7-3.2-3.7c-2.3,0-3.3,2.1-3.5,3.7H124.2z"/>
				<path fill="#010101" d="M129.1,29.6c0.1-0.9,0.1-2.1,0.1-3.3V11.1h2.3V19h0.1c0.8-1.4,2.3-2.3,4.3-2.3c3.1,0,5.3,2.6,5.3,6.4
					c0,4.5-2.8,6.7-5.6,6.7c-1.8,0-3.3-0.7-4.2-2.4h-0.1l-0.1,2.1H129.1z M131.5,24.6c0,0.3,0.1,0.6,0.1,0.8
					c0.4,1.6,1.8,2.7,3.4,2.7c2.4,0,3.8-1.9,3.8-4.8c0-2.5-1.3-4.7-3.7-4.7c-1.6,0-3,1.1-3.5,2.8c-0.1,0.3-0.1,0.6-0.1,0.9V24.6z"/>
				<path fill="#010101" d="M97,59.3c0.7,0.4,1.9,0.9,3,0.9c1.7,0,2.4-0.8,2.4-1.9c0-1.1-0.7-1.7-2.3-2.3c-2.3-0.8-3.3-2.1-3.3-3.6
					c0-2,1.6-3.7,4.3-3.7c1.3,0,2.4,0.4,3.1,0.8l-0.6,1.7c-0.5-0.3-1.4-0.7-2.6-0.7c-1.4,0-2.1,0.8-2.1,1.7c0,1,0.8,1.5,2.4,2.1
					c2.2,0.8,3.3,1.9,3.3,3.8c0,2.2-1.7,3.8-4.7,3.8c-1.4,0-2.7-0.3-3.5-0.9L97,59.3z"/>
				<path fill="#010101" d="M119,55.2c0,4.7-3.2,6.7-6.3,6.7c-3.4,0-6-2.5-6-6.5c0-4.2,2.8-6.7,6.2-6.7
					C116.5,48.7,119,51.4,119,55.2z M109,55.3c0,2.8,1.6,4.8,3.8,4.8c2.2,0,3.8-2.1,3.8-4.9c0-2.1-1.1-4.8-3.8-4.8
					C110.2,50.4,109,52.9,109,55.3z"/>
				<path fill="#010101" d="M121.9,43.1h2.3v18.5h-2.3V43.1z"/>
				<path fill="#010101" d="M138.5,58.2c0,1.3,0,2.4,0.1,3.4h-2l-0.1-2.1h-0.1c-0.6,1-1.9,2.3-4.2,2.3c-2,0-4.3-1.1-4.3-5.5V49h2.3
					v7c0,2.4,0.7,4,2.8,4c1.5,0,2.6-1.1,3-2.1c0.1-0.3,0.2-0.8,0.2-1.2V49h2.3V58.2z"/>
				<path fill="#010101" d="M145.1,45.4V49h3.3v1.7h-3.3v6.8c0,1.6,0.4,2.4,1.7,2.4c0.6,0,1-0.1,1.3-0.2l0.1,1.7
					c-0.4,0.2-1.1,0.3-2,0.3c-1.1,0-1.9-0.3-2.5-1c-0.7-0.7-0.9-1.8-0.9-3.3v-6.9h-2V49h2v-3L145.1,45.4z"/>
				<path fill="#010101" d="M153.5,45.5c0,0.8-0.5,1.4-1.5,1.4c-0.8,0-1.4-0.6-1.4-1.4c0-0.8,0.6-1.4,1.4-1.4
					C153,44,153.5,44.7,153.5,45.5z M151,61.6V49h2.3v12.6H151z"/>
				<path fill="#010101" d="M168.5,55.2c0,4.7-3.2,6.7-6.3,6.7c-3.4,0-6-2.5-6-6.5c0-4.2,2.8-6.7,6.2-6.7
					C166,48.7,168.5,51.4,168.5,55.2z M158.5,55.3c0,2.8,1.6,4.8,3.8,4.8c2.2,0,3.8-2.1,3.8-4.9c0-2.1-1.1-4.8-3.8-4.8
					C159.6,50.4,158.5,52.9,158.5,55.3z"/>
				<path fill="#010101" d="M171.3,52.4c0-1.3,0-2.4-0.1-3.4h2l0.1,2.1h0.1c0.6-1.2,2.1-2.4,4.2-2.4c1.7,0,4.5,1,4.5,5.4v7.5h-2.3
					v-7.3c0-2-0.8-3.7-2.9-3.7c-1.5,0-2.7,1.1-3.1,2.3c-0.1,0.3-0.2,0.7-0.2,1.1v7.6h-2.3V52.4z"/>
			</g>
		</g>
	</g>
	<g>
		
			<ellipse transform="matrix(-0.5446 -0.8387 0.8387 -0.5446 54.5067 72.3049)" fill="#FFFFFF" cx="46.9" cy="21.4" rx="3.3" ry="7"/>
		<ellipse transform="matrix(-0.7431 0.6691 -0.6691 -0.7431 54.3532 19.31)" fill="#FFFFFF" cx="23.5" cy="20.1" rx="3.3" ry="7"/>
		<g>
			<path fill="#FFFFFF" d="M61.6,46.7c1.4,0.8,2.8,2.2,4.1,3.8c0.9,1.1,1.7,2.3,2.4,3.5c0.2,0.4,0.4,0.8,0.7,1.2
				c0.1,0.2,0.2,0.3,0.2,0.4c0.3,0.5,0.9,0.7,1.4,0.5c0.5-0.3,0.7-0.9,0.5-1.4c-0.1-0.1-0.1-0.3-0.2-0.5c-0.2-0.4-0.4-0.8-0.7-1.2
				c-0.8-1.3-1.6-2.5-2.6-3.7c-1.5-1.8-3-3.3-4.7-4.3c-0.5-0.3-1.1-0.1-1.4,0.4C61,45.8,61.1,46.4,61.6,46.7L61.6,46.7z"/>
			<path fill="#FFFFFF" d="M38.4,40.8c1.9,1.2,3.8,3.2,5.6,5.8c1.1,1.6,2.2,3.3,3,5c0.3,0.6,0.6,1.2,0.8,1.7
				c0.2,0.3,0.2,0.5,0.3,0.6c0.2,0.6,0.8,0.8,1.4,0.6c0.6-0.2,0.8-0.8,0.6-1.4c-0.1-0.1-0.2-0.3-0.3-0.7c-0.3-0.6-0.6-1.1-0.9-1.7
				c-0.9-1.8-2-3.6-3.2-5.3c-1.9-2.8-4-5-6.1-6.4c-0.5-0.3-1.1-0.2-1.4,0.3C37.8,39.9,38,40.5,38.4,40.8L38.4,40.8z"/>
			<path fill="#FFFFFF" d="M34.6,39.4L34.6,39.4c4.6,0,8.3-3.7,8.3-8.3s-3.7-8.3-8.3-8.3c-4.6,0-8.3,3.7-8.3,8.3S30,39.4,34.6,39.4
				L34.6,39.4z M34.6,41.5L34.6,41.5c-5.7,0-10.4-4.6-10.4-10.4s4.6-10.4,10.4-10.4S45,25.4,45,31.1S40.3,41.5,34.6,41.5L34.6,41.5z
				"/>
			<path fill="#FFFFFF" d="M58.5,45.7L58.5,45.7c3.4,0,6.2-2.8,6.2-6.2c0-3.4-2.8-6.2-6.2-6.2c-3.4,0-6.2,2.8-6.2,6.2
				C52.3,42.8,55.1,45.7,58.5,45.7L58.5,45.7z M58.5,47.8L58.5,47.8c-4.6,0-8.3-3.7-8.3-8.3s3.7-8.3,8.3-8.3c4.6,0,8.3,3.7,8.3,8.3
				S63.1,47.8,58.5,47.8L58.5,47.8z"/>
			<path fill="#FFFFFF" d="M31.5,21.2c0,0,0.9,4.4,4.4,7.1c3.5,2.7,5.1,2.9,8.5,2.9c0,0,0.4-6.8-4.6-9.1S31.5,21.2,31.5,21.2z"/>
			<path fill="#FFFFFF" d="M37,21.9c0,0-0.9,3.9-4.4,6.4c-3.5,2.4-5.1,2.6-8.4,2.6c0,0,0.2-5.6,5.7-8.2C35.5,20.1,37,21.9,37,21.9z"
				/>
			<path fill="none" stroke="#FFFFFF" stroke-width="2" stroke-miterlimit="10" d="M50.8,36.2l22.9,0.5"/>
			<path fill="#FFFFFF" d="M66.9,36.9c0,0,0.3-5.3-4-7.4s-8.5-1.3-10.5,1.5c-2,2.8-2,4.9-2,4.9L66.9,36.9z"/>
			<path fill="#FFFFFF" d="M34.1,47.8L34.1,47.8c-0.9,0-1.5-0.7-1.5-1.5s0.7-1.5,1.5-1.5c0.9,0,1.5,0.7,1.5,1.5S34.9,47.8,34.1,47.8
				L34.1,47.8z"/>
			<path fill="#FFFFFF" d="M34.1,54L34.1,54c-0.9,0-1.5-0.7-1.5-1.5c0-0.9,0.7-1.5,1.5-1.5c0.9,0,1.5,0.7,1.5,1.5
				C35.6,53.3,34.9,54,34.1,54L34.1,54z"/>
			<path fill="#FFFFFF" d="M49.1,50.4c0.1-0.1,0.3-0.4,0.5-0.7c0.4-0.6,1-1.1,1.7-1.7c0.8-0.7,1.7-1.2,2.7-1.6
				c0.6-0.2,0.8-0.8,0.6-1.4c-0.2-0.6-0.8-0.8-1.4-0.6C52,45,50.9,45.7,50,46.4c-1.3,1.1-2.2,2.1-2.7,2.9c-0.3,0.5-0.2,1.1,0.3,1.4
				C48.1,51.1,48.9,50.8,49.1,50.4L49.1,50.4z"/>
			<path fill="#FFFFFF" d="M20,52.8c0.1-0.1,0.2-0.3,0.3-0.6c0.3-0.4,0.6-1,0.9-1.5c1-1.6,2.2-3.2,3.4-4.6c2.2-2.5,4.3-4.5,6.4-5.6
				c0.5-0.3,0.7-0.9,0.4-1.4c-0.3-0.5-0.9-0.7-1.4-0.4c-2.4,1.2-4.8,3.4-7.1,6.1c-1.3,1.5-2.5,3.2-3.5,4.9c-0.4,0.6-0.7,1.1-1,1.6
				c-0.2,0.3-0.3,0.5-0.3,0.6c-0.3,0.5-0.1,1.2,0.4,1.4C19.1,53.6,19.7,53.4,20,52.8L20,52.8z"/>
		</g>
	</g>
</g>
</svg>
