<?xml version="1.0" encoding="utf-8"?>
<!-- Generator: Adobe Illustrator 18.1.1, SVG Export Plug-In . SVG Version: 6.00 Build 0)  -->
<svg version="1.1" id="Layer_1" xmlns="http://www.w3.org/2000/svg" xmlns:xlink="http://www.w3.org/1999/xlink" x="0px" y="0px"
	 viewBox="0 0 99.5 99.5" enable-background="new 0 0 99.5 99.5" xml:space="preserve">
<g>
	<circle fill="#F1F3EE" cx="49.7" cy="49.7" r="49.7"/>
	<g>
		<g>
			<g id="Settings_2_">
				<g>
					<path fill="#323332" d="M45.9,59c-6.8,0-12.3-5.5-12.3-12.3c0-6.8,5.5-12.3,12.3-12.3c6.8,0,12.3,5.5,12.3,12.3
						c0,0.1,0,0.2,0,0.3h15.8c0-1.2,0-2.3-0.2-3.5c-0.1-0.8-1-1.4-1.8-1.4c-2.6,0-4.9-1.5-5.8-3.8c-1-2.4-0.3-5.2,1.6-6.9
						c0.6-0.5,0.7-1.5,0.2-2.1c-1.3-1.7-2.8-3.2-4.4-4.5c-0.6-0.5-1.6-0.4-2.1,0.2c-1.7,1.9-4.7,2.5-7,1.6c-2.4-1-3.9-3.5-3.8-6.1
						c0-0.8-0.6-1.5-1.4-1.6c-2.1-0.2-4.2-0.2-6.3,0c-0.8,0.1-1.4,0.8-1.4,1.6c0.1,2.6-1.5,5-3.8,6c-2.3,0.9-5.3,0.3-6.9-1.6
						c-0.6-0.6-1.5-0.7-2.1-0.2c-1.7,1.3-3.2,2.8-4.5,4.5c-0.5,0.6-0.4,1.6,0.2,2.1c2,1.8,2.6,4.6,1.6,7c-1,2.3-3.4,3.8-6.1,3.8
						c-0.9,0-1.5,0.6-1.6,1.4c-0.2,2.1-0.2,4.3,0,6.4c0.1,0.8,1,1.4,1.8,1.4c2.5-0.1,4.8,1.5,5.8,3.9c1,2.4,0.3,5.2-1.6,6.9
						c-0.6,0.5-0.7,1.5-0.2,2.1c1.3,1.7,2.8,3.2,4.4,4.5c0.6,0.5,1.6,0.4,2.1-0.2c1.7-1.9,4.7-2.5,7-1.6c2.4,1,4,3.5,3.8,6.1
						c0,0.8,0.6,1.5,1.4,1.6c1.1,0.1,2.2,0.2,3.2,0.2c0,0,0.1,0,0.1,0L45.9,59C45.9,59,45.9,59,45.9,59z"/>
				</g>
			</g>
			<path fill="#F5D411" d="M55.3,49.6c1.2-3.1-0.9-12.1-9.1-11.8c-0.4,0-1.1,0.2-0.4,0.9c1.8,1.5,2.7,2.4,3.1,2.9
				c1.4,1.4,0.6,5.2-1,6.8c-1.6,1.7-5.5,2.2-6.8,1.2c-0.8-0.6-1.8-1.7-2.7-2.6c-1-1.1-1,0-1,0.4c0.7,8,9.3,9.7,12.2,7.9
				c0,0,10.9,10.2,17.6,16.5c4.7,4.5,10.3-1.5,5.8-5.5C67.5,61.3,55.3,49.6,55.3,49.6z"/>
		</g>
		<path fill="#E4E2E4" d="M68.5,67.2c-0.6,0.6-1.5,0.6-2.1,0.1L52.1,54l2-2.1l14.3,13.3C69,65.7,69,66.6,68.5,67.2L68.5,67.2z"/>
	</g>
</g>
</svg>
