<?xml version="1.0" encoding="utf-8"?>
<!-- Generator: Adobe Illustrator 18.1.1, SVG Export Plug-In . SVG Version: 6.00 Build 0)  -->
<svg version="1.1" id="Layer_1" xmlns="http://www.w3.org/2000/svg" xmlns:xlink="http://www.w3.org/1999/xlink" x="0px" y="0px"
	 viewBox="0 0 81.2 81.2" enable-background="new 0 0 81.2 81.2" xml:space="preserve">
<g>
	<path fill="#010101" d="M18.9,50.1c-0.7,0-1.4,0.6-1.4,1.4v6.8c0,0.7,0.6,1.4,1.4,1.4c0.7,0,1.4-0.6,1.4-1.4v-6.8
		C20.3,50.7,19.7,50.1,18.9,50.1z"/>
	<path fill="#010101" d="M79.8,14.9h-4.1V1.4c0-0.7-0.6-1.4-1.4-1.4h-8.1c-0.7,0-1.4,0.6-1.4,1.4v13.5H1.4c-0.7,0-1.4,0.6-1.4,1.4
		v48.7c0,0.7,0.6,1.4,1.4,1.4h6.8v4.1c0,6,4.8,10.8,10.8,10.8s10.8-4.8,10.8-10.8v-4.1h50.1c0.7,0,1.4-0.6,1.4-1.4V16.2
		C81.2,15.5,80.6,14.9,79.8,14.9z M73,35.2h-5.4V8.1H73V35.2z M72.3,37.9l-2,4.7l-2-4.7H72.3z M67.6,2.7H73v2.7h-5.4V2.7z M7.6,17.6
		l-4.9,4.9v-4.9H7.6z M9.5,19.5v4.9H4.6L9.5,19.5z M27.1,70.3c0,4.5-3.6,8.1-8.1,8.1s-8.1-3.6-8.1-8.1V54.1c0-4.5,3.6-8.1,8.1-8.1
		s8.1,3.6,8.1,8.1V70.3z M78.5,63.6H29.8v-9.5c0-6-4.8-10.8-10.8-10.8S8.1,48.1,8.1,54.1v9.5H2.7V27.1h8.1c0.7,0,1.4-0.6,1.4-1.4
		v-8.1h52.8v18.9c0,0,0,0,0,0.1c0,0.2,0,0.3,0.1,0.5v0l0,0l4.1,9.5c0.3,0.7,1.1,1,1.8,0.7c0.3-0.1,0.6-0.4,0.7-0.7l4.1-9.5l0,0v0
		c0.1-0.1,0.1-0.3,0.1-0.5c0,0,0,0,0-0.1V17.6h2.7L78.5,63.6z"/>
	<path fill="#010101" d="M74.4,58.2h-2.7c-0.7,0-1.4,0.6-1.4,1.4c0,0.7,0.6,1.4,1.4,1.4h2.7c0.7,0,1.4-0.6,1.4-1.4
		C75.8,58.8,75.1,58.2,74.4,58.2z"/>
	<path fill="#010101" d="M66.3,58.2h-2.7c-0.7,0-1.4,0.6-1.4,1.4c0,0.7,0.6,1.4,1.4,1.4h2.7c0.7,0,1.4-0.6,1.4-1.4
		C67.6,58.8,67,58.2,66.3,58.2z"/>
	<path fill="#010101" d="M55.2,24.8c-0.5-0.6-1.3-0.7-1.9-0.2l-14,11.4L26.6,24.7c-0.5-0.4-1.2-0.5-1.7-0.1L7.3,36.8
		C6.7,37.2,6.5,38,7,38.6c0.4,0.6,1.2,0.8,1.9,0.4c0,0,0,0,0.1,0l16.7-11.6l12.7,11.5c0.5,0.4,1.2,0.5,1.8,0L55,26.7
		C55.5,26.3,55.6,25.4,55.2,24.8L55.2,24.8z"/>
	<path fill="#010101" d="M51.2,42.6c-0.4-0.6-1.3-0.8-2-0.3c-0.1,0.1-0.2,0.2-0.3,0.3l-6.8,10.8c-0.4,0.6-0.2,1.5,0.4,1.9
		c0.2,0.1,0.5,0.2,0.7,0.2h13.5c0.7,0,1.4-0.6,1.4-1.4c0-0.3-0.1-0.5-0.2-0.7L51.2,42.6z M45.7,52.8l4.3-6.9l4.3,6.9H45.7z"/>
</g>
</svg>
