<?xml version="1.0" encoding="utf-8"?>
<!-- Generator: Adobe Illustrator 18.1.1, SVG Export Plug-In . SVG Version: 6.00 Build 0)  -->
<svg version="1.1" id="Layer_1" xmlns="http://www.w3.org/2000/svg" xmlns:xlink="http://www.w3.org/1999/xlink" x="0px" y="0px"
	 viewBox="0 0 81.3 79.4" enable-background="new 0 0 81.3 79.4" xml:space="preserve">
<path fill="#010101" d="M40.7,0C24.2,0,10.9,13.3,10.8,29.7h0v0c-6,0.1-10.8,5-10.8,11s4.8,10.9,10.8,11v0v13.5
	c0,5.7,4.6,10.3,10.3,10.3h13.6c0.9,2.3,3.2,4,5.9,4c3.5,0,6.4-2.9,6.4-6.4c0-3.1-2.2-5.6-5.1-6.2c9.5-0.5,17.5-6.7,20.8-15.2h7.7
	h0.2v0c6-0.1,10.8-5,10.8-11s-4.8-10.9-10.8-11v0h0C70.4,13.3,57.1,0,40.7,0z M40.7,4.8c13.8,0,25,11.2,25.1,24.9h-2.1
	c-2.1-8.7-10-15.2-19.3-15.2H37c-9.4,0-17.2,6.5-19.3,15.2h-2.1C15.7,15.9,26.9,4.8,40.7,4.8z M37,19.2h7.3
	c8.3,0,15.1,6.8,15.1,15.1v9.1c0,10.3-8.4,18.7-18.7,18.7s-18.7-8.4-18.7-18.7v-9.1C21.9,26,28.7,19.2,37,19.2z M15.6,34.5h1.6v8.9
	v3.5h-1.6V34.5z M64.2,34.5h1.6v12.4h-1.6v-3.5V34.5z M10.8,34.5v12.4c-3.3-0.1-6-2.8-6-6.2S7.5,34.6,10.8,34.5z M70.5,34.5
	c3.3,0.1,6,2.8,6,6.2s-2.7,6.1-6,6.2V34.5z M48.6,48.6c-2.1,2.1-5,3.3-8,3.3s-5.8-1.2-8-3.3L29.3,52c3,3,7.1,4.7,11.3,4.7
	S49,55,52,52L48.6,48.6z M15.6,51.6h3.1c3.2,8.5,11.2,14.7,20.8,15.2c-2.1,0.4-3.8,1.9-4.6,3.8H21.1c-3.1,0-5.6-2.5-5.6-5.6V51.6z
	 M40.7,71.5c0.9,0,1.6,0.7,1.6,1.6c0,0.9-0.7,1.6-1.6,1.6c-0.4,0-0.8-0.2-1.1-0.5v-2.3C39.8,71.6,40.2,71.5,40.7,71.5z"/>
</svg>
