<?xml version="1.0" encoding="utf-8"?>
<!-- Generator: Adobe Illustrator 18.1.1, SVG Export Plug-In . SVG Version: 6.00 Build 0)  -->
<svg version="1.1" id="Layer_1" xmlns="http://www.w3.org/2000/svg" xmlns:xlink="http://www.w3.org/1999/xlink" x="0px" y="0px"
	 viewBox="0 0 44.2 44.2" enable-background="new 0 0 44.2 44.2" xml:space="preserve">
<path fill="#FFFFFF" d="M21.5,8.9L27.4,3c1.7-1.7,3.9-2.8,6.3-3c3.4-0.3,6.7,1.2,8.8,4.1c0.9,1.3,1.5,2.7,1.7,4.3
	c0.4,3.2-0.6,6.2-2.8,8.4l-9.9,9.9c-1.9,1.9-4.3,2.9-7,2.9s-5.1-1-7-2.9c-0.3-0.3-0.5-0.5-0.8-0.9c-0.5-0.6-0.4-1.5,0.2-2l0,0
	c0.6-0.6,1.7-0.6,2.3,0.1c0.2,0.2,0.3,0.4,0.5,0.6c1.3,1.3,2.9,2,4.8,2c1.8,0,3.5-0.7,4.8-2l9.8-9.8c1.2-1.2,1.9-2.7,2.1-4.3
	c0.2-2.7-1.1-5.3-3.6-6.6c-0.3-0.2-0.6-0.3-1-0.4c-2.5-0.8-5.1-0.1-6.9,1.7l-4.5,4.5l-1.6,1.6c-0.6,0.6-1.6,0.6-2.2,0l0,0
	C20.9,10.4,20.9,9.5,21.5,8.9z M22.6,35.4c0.6-0.6,0.6-1.6,0-2.2l0,0c-0.6-0.6-1.6-0.6-2.2,0l-5.9,5.9c-1.8,1.8-4.3,2.4-6.8,1.7
	c-0.3-0.1-0.6-0.2-1-0.4c-4.2-2.3-4.8-7.7-1.7-10.8l9.9-9.9c1.3-1.3,2.9-2,4.8-2c1.8,0,3.5,0.7,4.8,2c0.2,0.2,0.4,0.5,0.6,0.7
	c0.5,0.8,1.6,0.9,2.3,0.2l0.1-0.1c0.5-0.5,0.6-1.3,0.2-2c-0.3-0.4-0.6-0.8-0.9-1.1c-2-2-4.7-3.1-7.6-2.8c-2.5,0.2-4.8,1.3-6.5,3
	l-9.9,9.8C-1,31.2-1,37.5,2.9,41.3c1.9,1.9,4.3,2.9,7,2.9s5.1-1,7-2.9L22.6,35.4z"/>
</svg>
