<?xml version="1.0" encoding="utf-8"?>
<!-- Generator: Adobe Illustrator 18.1.1, SVG Export Plug-In . SVG Version: 6.00 Build 0)  -->
<svg version="1.1" id="Layer_1" xmlns="http://www.w3.org/2000/svg" xmlns:xlink="http://www.w3.org/1999/xlink" x="0px" y="0px"
	 viewBox="0 0 66.3 58.2" enable-background="new 0 0 66.3 58.2" xml:space="preserve">
<g>
	<g>
		<path fill="#010101" d="M54.9,16.8c-1-1-2.6-1-3.5,0c-1,1-1,2.6,0,3.5l8.9,8.9L51.4,38c-1,1-1,2.6,0,3.5c0.5,0.5,1.2,0.7,1.7,0.7
			c0.6,0,1.2-0.2,1.7-0.7l10.6-10.6c1-1,1-2.6,0-3.5L54.9,16.8z"/>
		<path fill="#010101" d="M42.2,0.1c-1.3-0.4-2.7,0.4-3,1.7L24,55.1c-0.4,1.3,0.4,2.7,1.7,3c0.2,0.1,0.4,0.1,0.7,0.1
			c1.1,0,2.1-0.7,2.4-1.8L43.8,3.2C44.3,1.8,43.5,0.4,42.2,0.1z"/>
		<path fill="#010101" d="M14.8,16.8c-1-1-2.6-1-3.5,0L0.7,27.4c-1,1-1,2.6,0,3.5l10.6,10.6c0.5,0.5,1.2,0.7,1.7,0.7
			s1.2-0.2,1.7-0.7c1-1,1-2.6,0-3.5l-8.9-8.9l8.9-8.9C15.8,19.3,15.8,17.7,14.8,16.8z"/>
	</g>
</g>
</svg>
