<?xml version="1.0" encoding="utf-8"?>
<!-- Generator: Adobe Illustrator 18.1.1, SVG Export Plug-In . SVG Version: 6.00 Build 0)  -->
<svg version="1.1" id="Layer_1" xmlns="http://www.w3.org/2000/svg" xmlns:xlink="http://www.w3.org/1999/xlink" x="0px" y="0px"
	 viewBox="0 0 383 395" enable-background="new 0 0 383 395" xml:space="preserve">
<g>
	<rect fill="#EAE7DD" width="383" height="395"/>
	<g>
		<path fill="#ED2224" d="M268.2,154.1l-30.2-4.1l-14.8-26c-4.1-7-11.6-11.4-19.5-11.4h-39.4c-9.5,0-18,5.9-21.2,14.8l-8,22.1
			l-20.1,4.2c-2.4,0.5-3.9,2.5-3.9,4.9v28.7c0,2.7,2.2,4.9,4.9,4.9h11.9c0.8,11.6,10.5,20.6,22.3,20.6c11.7,0,21.4-9.2,22.3-20.6
			h38.6c0.8,11.6,10.5,20.6,22.3,20.6s21.4-9.2,22.3-20.6h11.9c2.7,0,4.9-2.2,4.9-4.9V159C272.4,156.5,270.6,154.5,268.2,154.1z
			 M150.1,202.4c-6.5,0-11.7-5.3-11.7-11.7s5.3-11.7,11.7-11.7s11.7,5.3,11.7,11.7S156.7,202.4,150.1,202.4z M151.3,149.4
			c-0.7,0-1.2-0.7-1-1.4l5.8-15.6c1.2-3.4,4.4-5.6,8-5.6h7c0.5,0,1,0.3,1,0.8l1.9,20.7c0,0.5-0.3,1-1,1H151.3z M188.3,148.5
			l-1.9-20.7c0-0.5,0.3-1,1-1h16.1c3.1,0,5.9,1.7,7.5,4.2l9.7,16.8c0.3,0.7-0.2,1.5-0.8,1.5h-30.8
			C188.7,149.4,188.3,149,188.3,148.5z M233.4,202.4c-6.5,0-11.7-5.3-11.7-11.7s5.3-11.7,11.7-11.7c6.5,0,11.7,5.3,11.7,11.7
			S239.8,202.4,233.4,202.4z"/>
		<path fill="#ED2224" d="M158.1,100.6c7.6,0,13.9-4.8,16.5-11.6h5.6c0.2,0,0.5,0.2,0.7,0.2l3.2,2.9c0.3,0.3,0.7,0.3,1,0l4.8-4.2
			c0.3-0.3,0.7-0.3,1,0l4.8,4.2c0.3,0.3,0.7,0.3,1,0l4.8-4.2c0.3-0.3,0.7-0.3,1,0l4.8,4.2c0.3,0.3,0.7,0.3,1,0l3.2-2.9
			c0.2-0.2,0.3-0.2,0.7-0.2h3.9c0.3,0,0.7-0.2,0.8-0.3l4.1-5.1c0.3-0.3,0.3-0.8,0-1.4l-4.1-5.1c-0.2-0.2-0.5-0.3-0.8-0.3h-41.5
			c-2.5-6.6-9-11.4-16.5-11.4c-9.7,0-17.7,7.8-17.7,17.7S148.4,100.6,158.1,100.6z M151.3,79c2.2,0,3.9,1.9,3.9,3.9
			c0,2.2-1.9,3.9-3.9,3.9c-2.2,0-3.9-1.9-3.9-3.9C147.4,80.7,149.1,79,151.3,79z"/>
	</g>
</g>
</svg>
