<?xml version="1.0" encoding="utf-8"?>
<!-- Generator: Adobe Illustrator 18.1.1, SVG Export Plug-In . SVG Version: 6.00 Build 0)  -->
<svg version="1.1" id="Layer_1" xmlns="http://www.w3.org/2000/svg" xmlns:xlink="http://www.w3.org/1999/xlink" x="0px" y="0px"
	 viewBox="0 0 49 49" enable-background="new 0 0 49 49" xml:space="preserve">
<g>
	<g>
		<g>
			<path fill="#010101" d="M19,22.6v3.8c0,0,3.7,0,5.1,0c-0.8,2.5-2,3.8-5.1,3.8s-5.6-2.5-5.6-5.7s2.4-5.7,5.6-5.7
				c1.7,0,2.7,0.6,3.7,1.4c0.8-0.8,0.8-0.9,2.7-2.8C23.7,15.9,21.5,15,19,15c-5.3,0-9.5,4.3-9.5,9.5S13.7,34,19,34
				c7.9,0,9.8-6.9,9.2-11.4C26.3,22.6,19,22.6,19,22.6z M36.1,22.8v-3.3h-2.4v3.3h-3.4v2.4h3.4v3.4h2.4v-3.4h3.3v-2.4H36.1z"/>
		</g>
	</g>
</g>
<circle fill="none" stroke="#010101" stroke-miterlimit="10" cx="24.5" cy="24.5" r="24"/>
</svg>
