<?xml version="1.0" encoding="utf-8"?>
<!-- Generator: Adobe Illustrator 18.1.1, SVG Export Plug-In . SVG Version: 6.00 Build 0)  -->
<svg version="1.1" id="Layer_1" xmlns="http://www.w3.org/2000/svg" xmlns:xlink="http://www.w3.org/1999/xlink" x="0px" y="0px"
	 viewBox="0 0 3840 208.3" enable-background="new 0 0 3840 208.3" xml:space="preserve">
<g>
	<polyline fill="#DBF1FD" points="3840,81.3 3840,208.3 3840,195.3 1921,195.3 1921,118.3 1921,118.7 2155,21.5 2374.9,139.4 
		2554,93.7 2592.5,110.3 2902.2,0 3152.5,110.3 3246.5,70.1 3461,143.5 3682.8,30.9 	"/>
	<polyline fill="#DBF1FD" points="0,81.3 0,208.3 0,195.3 1921,195.3 1921,118.3 1921,118.7 1686.2,21.5 1465.9,139.4 1286.6,93.7 
		1248.1,110.3 938.3,0 688,110.3 594,70.1 379.5,143.5 157.5,30.9 	"/>
</g>
</svg>
