<?xml version="1.0" encoding="utf-8"?>
<!-- Generator: Adobe Illustrator 18.1.1, SVG Export Plug-In . SVG Version: 6.00 Build 0)  -->
<svg version="1.1" id="Layer_1" xmlns="http://www.w3.org/2000/svg" xmlns:xlink="http://www.w3.org/1999/xlink" x="0px" y="0px"
	 viewBox="0 0 1339.3 297.4" enable-background="new 0 0 1339.3 297.4" xml:space="preserve">
<g>
	<ellipse fill="#C6C1AF" cx="1082.6" cy="282.7" rx="31.5" ry="12.5"/>
	<g>
		<g>
			<g>
				<ellipse fill="#C6C1AF" cx="819.2" cy="281.4" rx="37.4" ry="14.8"/>
				<g>
					<g>
						<g>
							<path fill="#4D833C" d="M820,200.4c0,0-20.3-5.5-28.9-34c-8.6-28.5-9.9-99.7,0-128.2C801,9.8,823.9-12,837.7,7.4
								c13.7,19.4,22.1,108.8,12.6,147C840.8,192.6,827.1,198.6,820,200.4z"/>
						</g>
						<path fill="#406E35" d="M812.7,5c16.8,1.8,25.3,40.3,28.9,68.2c3.6,27.9,6.4,89.3-16.9,96.6c-23.1,7.2-34.8-8-35-8.3
							c0.4,1.7,0.8,3.4,1.3,4.9c8.6,28.5,28.9,34,28.9,34c7.1-1.8,20.8-7.9,30.3-46.1c9.5-38.2,1.2-127.6-12.6-147
							C830.8-2.4,821.5-1.7,812.7,5z"/>
					</g>
					<g>
						<path fill="#6A5121" d="M810.8,285c0,0,2.6-104,1.9-107.4c-0.7-3.5-10-19.5-10-19.5s11.9,14.5,13,8.5c1.1-6,3.3-51.4,3.3-51.4
							s0.7,45.9,3.7,45.4c3-0.5,15.2-18.5,15.2-18.5s-14.1,24-14.1,32.9c0,9,1.1,109.9,1.1,109.9H810.8z"/>
					</g>
				</g>
			</g>
			<g>
				<ellipse fill="#C6C1AF" cx="690.7" cy="283.6" rx="57.7" ry="12.5"/>
				<g>
					<path fill="#4D833C" d="M645.1,283.6c0,0-13.7-3.7-8.3-16.6c5.4-12.8,17-4.1,17-4.1s-11.6-9.5-2.5-17.8
						c9.1-8.3,11.6,9.9,11.6,9.9s-4.6-21.9,15.3-25.7c19.9-3.7,25.7,24.8,25.7,24.8s2.1-21.5,11.2-22.4c9.1-0.8,0,19.5,0,19.5
						s11.1-17.4,27.5-5c16.4,12.4-3.5,37.3-3.5,37.3H645.1z"/>
					<g>
						<path fill="#6FB358" d="M643.3,271.1c2.2-5.9,14.8-4.2,14.8-4.2s-6.6-14-3.9-15.7c2.7-1.7,10.7,8.7,10.7,8.7
							s-1.1-14.3,6.6-20.3c7.7-6,22-0.5,30,16.7c0,0,0.9-1.3,2.2-2.8c-1.1-4.4-7.5-27.5-25.5-24.1c-17.5,3.3-16.1,20.6-15.5,24.8
							c-0.6-3.6-3.6-16.2-11.4-9c-9.1,8.3,2.5,17.8,2.5,17.8s-11.6-8.7-17,4.1c-5.4,12.8,8.3,16.6,8.3,16.6S641.1,277,643.3,271.1z"
							/>
						<path fill="#6FB358" d="M742.6,246.4c-16.4-12.4-27.5,5-27.5,5s9.1-20.3,0-19.5c-7.9,0.7-10.5,17-11.1,21.3
							c2.1-2.4,4.9-5,6.5-3.6c2.7,2.3,1.7,9,1.7,9s11.3-12,20.3-7.3s6.6,32.4,6.6,32.4S759,258.8,742.6,246.4z"/>
					</g>
				</g>
			</g>
			<g>
				<ellipse fill="#C6C1AF" cx="477.2" cy="284" rx="31.5" ry="12.5"/>
				<g>
					<g>
						<path fill="#88C982" d="M532.6,151c-4.9-17.3-20.9-25.4-35.5-25.4c-5.9-15.1-25.3-23.3-41.1-17.2c-18.3,7-23.3,27.5-18.6,41.9
							c0,0,0,0,0,0c-5.5,2.4-10.4,6.6-14,13c-8.2,14.4,2.4,33.5,18.4,37c14.6,3.2,26.6-6.5,31.1-17.4c6.7,7.3,16.2,12.1,28.3,12.5
							C522.8,195.9,538.5,171.7,532.6,151z"/>
						<path fill="#6BA562" d="M495.2,177.3c-13.6,1.3-21.5-5.8-21.5-5.8s-9.3,10.1-28,11.5c-17.3,1.3-24.2-9.7-25.1-11.3
							c-1.3,12.5,8.2,25.6,21.1,28.5c14.6,3.2,26.6-6.5,31.1-17.4c6.7,7.3,16.2,12.1,28.3,12.5c21.8,0.7,37.4-23.5,31.6-44.2
							c-4.9-17.3-20.9-25.4-35.5-25.4C523.4,144.5,508.8,176,495.2,177.3z"/>
					</g>
					<g>
						<path fill="#6A5121" d="M467.8,287c0,0,2.6-92.3,1.9-95.5c-0.8-3.2-10.2-17.7-10.2-17.7s12,13.2,13.2,7.7
							c1.1-5.5,3.4-46.8,3.4-46.8s0.8,41.8,3.8,41.4c3-0.5,15.4-16.8,15.4-16.8s-14.3,21.8-14.3,30c0,8.2,1.1,97.7,1.1,97.7H467.8z"
							/>
					</g>
				</g>
			</g>
			<g>
				<ellipse fill="#C6C1AF" cx="341" cy="281.3" rx="63" ry="12.5"/>
				<g>
					<path fill="#6CA643" d="M296.4,281.3c0,0-9.7-24.6-2.3-32.8c7.4-8.2,21.8-7.3,26.7,1.4c0,0,1.4-8.9,11.7-10.4
						c10.3-1.5,13.3,8.1,13.6,12c0,0,8.3-6.9,17.7-5.7c9.4,1.1,11.7,9.4,9.9,12.4c0,0,24.7,0.3,15.6,23.2H296.4z"/>
					<path fill="#84C550" d="M300.9,254.6c8-5,18.7,2.3,18.7,2.3s4-9.2,12.8-8.8c8.8,0.4,12.8,9.1,12.8,9.1s10.6-6.3,18.6-1.3
						c8,5,7,10.3,7,10.3s19.5-1.6,18.3,15c9.1-22.9-15.6-23.2-15.6-23.2c1.8-3-0.5-11.2-9.9-12.4c-9.4-1.1-17.7,5.7-17.7,5.7
						c-0.2-3.9-3.2-13.5-13.6-12c-10.3,1.5-11.7,10.4-11.7,10.4c-4.8-8.7-19.3-9.6-26.7-1.4c-7.4,8.2,2.3,32.8,2.3,32.8
						S292.9,259.6,300.9,254.6z"/>
				</g>
			</g>
			<g>
				<ellipse fill="#C6C1AF" cx="67.1" cy="281.5" rx="31.5" ry="12.5"/>
				<g>
					<g>
						<g>
							<path fill="#B4CB34" d="M59.2,220.5c0,0-11.2,8.1-18.7-2.8c0,0-12.5,3.1-15.3-8.4c0,0-14.9-1.2-14.3-12.7
								c0,0-18.1-8.7-6.2-25.2c0,0-11.5-10.2,1.6-21.7c0,0-10-14.9,7.5-19.3c0,0,1.6-17.7,19-13.7c0,0,4.7-14.9,21.5-9.3
								c0,0,15.1-11.2,23.7,3.7c0,0,16.5-2.2,19.6,11.5c0,0,15.9,2.2,14.3,18c0,0,12.2,11.2,4.4,24.5c0,0,7.8,22.2-9.1,24.2
								c0,0,0.5,9.8-9.4,14.2c0,0-1.8,11.9-12.4,10c0,0-8.1,9-14,4L59.2,220.5z"/>
						</g>
						<path fill="#ABB838" d="M111.8,140.7c1.6-15.8-14.3-18-14.3-18c7.9,34.2-11.4,77.8-41.4,81.7s-45.1-7.8-45.1-7.8
							c-0.6,11.5,14.3,12.7,14.3,12.7c2.8,11.5,15.3,8.4,15.3,8.4c7.5,10.9,18.7,2.8,18.7,2.8l12.1-2.8c5.9,5,14-4,14-4
							c10.6,1.9,12.4-10,12.4-10c10-4.3,9.4-14.2,9.4-14.2c16.8-2,9.1-24.2,9.1-24.2C124,151.9,111.8,140.7,111.8,140.7z"/>
					</g>
					<g>
						<path fill="#6A5121" d="M40.5,191.8c0,0,17.4,1.8,18.7,10.8c1.2,9-1.9,81.8-1.9,81.8H76c0,0-8.1-81.8-5.3-87.8
							c2.8-5.9,11.8-9.3,11.8-9.3s-10.3-0.3-13.7,2.8c-3.4,3.1-7.8,3.9-12.5,3.1C51.7,192.6,47,191.3,40.5,191.8z"/>
					</g>
				</g>
			</g>
			<g>
				<ellipse fill="#C6C1AF" cx="201" cy="281.5" rx="31.5" ry="12.5"/>
				<g>
					<g>
						<g>
							<path fill="#94C85B" d="M190.9,199.9c0,0-37-12.5-45.6-39.2C136.6,134,145.9,96,179.9,83c34-13.1,77.3,9.5,79.6,46.3
								c2.3,36.8-20.8,61.7-51.1,70.7H190.9z"/>
						</g>
						<path fill="#84AF4B" d="M259.5,129.3c-1.1-16.9-10.8-30.8-24.3-39.7c0,0,0,0,0,0c17.2,27.1,2.8,77.9-32.4,86.9
							c-34.7,8.9-53.4-7.4-54-7.9c12.4,21.3,42.1,31.3,42.1,31.3h17.5C238.7,191,261.8,166.1,259.5,129.3z"/>
					</g>
					<g>
						<path fill="#6A5121" d="M193.9,284.5c0,0,2.6-92.3,1.9-95.5c-0.8-3.2-10.1-17.7-10.1-17.7s12,13.2,13.2,7.7
							c1.1-5.5,3.4-46.8,3.4-46.8s0.8,41.8,3.8,41.4c3-0.5,15.4-16.8,15.4-16.8s-14.3,21.8-14.3,30c0,8.2,1.1,97.7,1.1,97.7H193.9z"
							/>
					</g>
				</g>
			</g>
			<g>
				<g>
					<path fill="#88C982" d="M1138.1,149.7c-4.9-17.3-20.9-25.4-35.5-25.4c-5.9-15.1-25.3-23.3-41.1-17.2
						c-18.3,7-23.3,27.5-18.6,41.9c0,0,0,0,0,0c-5.5,2.4-10.4,6.6-14,13c-8.2,14.4,2.4,33.5,18.4,37c14.6,3.2,26.6-6.5,31.1-17.4
						c6.7,7.3,16.2,12.1,28.3,12.5C1128.3,194.5,1143.9,170.4,1138.1,149.7z"/>
					<path fill="#6BA562" d="M1100.6,176c-13.6,1.3-21.5-5.8-21.5-5.8s-9.3,10.1-28,11.5c-17.3,1.3-24.2-9.7-25.1-11.3
						c-1.3,12.5,8.2,25.6,21.1,28.5c14.6,3.2,26.6-6.5,31.1-17.4c6.7,7.3,16.2,12.1,28.3,12.5c21.8,0.7,37.4-23.5,31.6-44.2
						c-4.9-17.3-20.9-25.4-35.5-25.4C1128.8,143.2,1114.3,174.7,1100.6,176z"/>
				</g>
				<g>
					<path fill="#6A5121" d="M1073.2,285.7c0,0,2.6-92.3,1.9-95.5c-0.8-3.2-10.2-17.7-10.2-17.7s12,13.2,13.2,7.7
						c1.1-5.5,3.4-46.8,3.4-46.8s0.8,41.8,3.8,41.4c3-0.5,15.4-16.8,15.4-16.8s-14.3,21.8-14.3,30c0,8.2,1.1,97.7,1.1,97.7H1073.2z"
						/>
				</g>
			</g>
			<rect x="1290.3" y="170.4" fill="#676767" stroke="#676767" stroke-width="5" stroke-miterlimit="10" width="34" height="70"/>
			<circle fill="#4E4E4E" cx="1307" cy="203.9" r="7.4"/>
			<circle fill="#4E4E4E" cx="1306.9" cy="225.8" r="7.4"/>
			<circle fill="#3DB54A" cx="1306.9" cy="183.3" r="7.4"/>
			<ellipse fill="#C6C1AF" cx="1307.8" cy="284.9" rx="31.5" ry="12.5"/>
		</g>
		<rect x="1303.8" y="237.9" fill="#676767" width="6" height="50"/>
	</g>
</g>
</svg>
