<?xml version="1.0" encoding="utf-8"?>
<!-- Generator: Adobe Illustrator 18.1.1, SVG Export Plug-In . SVG Version: 6.00 Build 0)  -->
<svg version="1.1" id="Layer_1" xmlns="http://www.w3.org/2000/svg" xmlns:xlink="http://www.w3.org/1999/xlink" x="0px" y="0px"
	 viewBox="0 0 386 395" enable-background="new 0 0 386 395" xml:space="preserve">
<g>
	<rect fill="#EAE7DD" width="386" height="395"/>
	<g>
		<path fill="#ED2224" d="M193.3,108.6c-16.9,0-30.6,13.7-30.6,30.6c0,16.9,13.7,30.6,30.6,30.6c16.9,0,30.6-13.7,30.6-30.6
			C223.9,122.3,210.2,108.6,193.3,108.6z M193.3,159.6c-11.3,0-20.4-9.2-20.4-20.4c0-11.3,9.2-20.4,20.4-20.4
			c11.3,0,20.4,9.2,20.4,20.4C213.8,150.4,204.6,159.6,193.3,159.6z"/>
		<path fill="#ED2224" d="M249.8,149.9l-9.6-7.5c0.1-1,0.1-2.1,0.1-3.2c0-1.1,0-2.2-0.1-3.2l9.6-7.5c3.1-2.4,3.9-6.8,1.9-10.2
			L240.6,99c-1.9-3.3-6-4.8-9.6-3.5h-0.2l-11.3,4.6c-1.8-1.2-3.6-2.3-5.5-3.2L212.3,85c-0.5-3.9-3.8-6.8-7.8-6.8h-22.4
			c-3.9,0-7.2,2.8-7.8,6.7l-1.7,12.1c-1.9,0.9-3.7,2-5.5,3.2l-11.4-4.6c-3.6-1.4-7.8,0-9.7,3.4l-11.1,19.3c-2,3.4-1.2,7.7,1.9,10.2
			l9.6,7.5c-0.1,1.1-0.1,2.2-0.1,3.2c0,1,0,2.1,0.1,3.2l-9.6,7.5c-3,2.4-3.8,6.6-2,10v0.1l11.1,19.2c1.9,3.4,6,4.9,9.6,3.6h0.2
			l11.3-4.6c1.8,1.2,3.6,2.3,5.5,3.2l1.7,12c0.5,3.9,3.9,6.8,7.9,6.7h22.4c3.9,0,7.2-2.8,7.8-6.7l1.7-12.1c1.9-0.9,3.7-2,5.5-3.2
			l11.4,4.6c3.6,1.4,7.8-0.1,9.7-3.5l11.1-19.4C253.7,156.5,252.8,152.3,249.8,149.9z M232.7,172.6l-12-4.8
			c-1.6-0.7-3.5-0.4-4.9,0.6c-2.6,2-5.4,3.6-8.3,4.8c-1.7,0.7-2.8,2.2-3.1,4l-1.8,12.8h-18.4l-1.8-12.8c-0.3-1.8-1.4-3.3-3.1-4
			c-3-1.2-5.8-2.8-8.3-4.8c-1.4-1.1-3.3-1.4-5-0.7l-12,4.8l-9.2-15.9l10.2-8c1.4-1.1,2.1-2.9,1.9-4.6c-0.2-1.6-0.3-3.2-0.3-4.8
			c0-1.6,0.1-3.2,0.4-4.9c0.2-1.8-0.5-3.5-1.9-4.6l-10.2-8l9.2-15.9l12,4.8c1.7,0.7,3.5,0.4,4.9-0.7c2.6-2,5.4-3.6,8.3-4.8
			c1.7-0.7,2.8-2.2,3.1-4l1.8-12.8h18.4l1.8,12.8c0.3,1.8,1.4,3.3,3.1,4c3,1.2,5.8,2.8,8.3,4.8c1.4,1.1,3.3,1.4,5,0.7l12-4.8
			l9.2,15.9l-10.2,8c-1.4,1.1-2.1,2.9-1.9,4.6c0.2,1.6,0.3,3.2,0.3,4.8c0,1.6-0.1,3.2-0.4,4.9c-0.2,1.8,0.5,3.5,1.9,4.6l10.2,8
			L232.7,172.6z"/>
	</g>
</g>
</svg>
