<?xml version="1.0" encoding="utf-8"?>
<!-- Generator: Adobe Illustrator 18.1.1, SVG Export Plug-In . SVG Version: 6.00 Build 0)  -->
<svg version="1.1" id="Layer_1" xmlns="http://www.w3.org/2000/svg" xmlns:xlink="http://www.w3.org/1999/xlink" x="0px" y="0px"
	 viewBox="0 0 52.2 37.6" enable-background="new 0 0 52.2 37.6" xml:space="preserve">
<g transform="translate(0,-952.36218)">
	<path fill="#ED2224" d="M52,970.4l-16.7-17.8c-0.4-0.4-1.1-0.4-1.5,0c-0.4,0.4-0.4,1.1,0,1.5l15.1,16H1c-0.6,0-1,0.5-1,1
		c0,0.6,0.5,1,1,1h47.7l-15.1,16c-0.4,0.4-0.4,1.1,0,1.5c0.4,0.4,1,0.4,1.5,0L52,971.9C52.4,971.4,52.3,970.8,52,970.4L52,970.4z"/>
</g>
</svg>
