<?xml version="1.0" encoding="utf-8"?>
<!-- Generator: Adobe Illustrator 18.1.1, SVG Export Plug-In . SVG Version: 6.00 Build 0)  -->
<svg version="1.1" id="Layer_1" xmlns="http://www.w3.org/2000/svg" xmlns:xlink="http://www.w3.org/1999/xlink" x="0px" y="0px"
	 viewBox="0 0 49 49" enable-background="new 0 0 49 49" xml:space="preserve">
<g>
	<circle fill="none" stroke="#010101" stroke-miterlimit="10" cx="24.5" cy="24.5" r="24"/>
	<path fill="#010101" d="M35.9,23.7v0.2c0,0-0.1,2.7-1.4,4.9c-1.1,1.7-4,6.4-10.3,6.4c-4.3,0-7.4-1.1-9.7-3.2
		c-1.9-1.8-3.2-4.6-3.4-7.2c-0.1-1.1,0-2.6,0.1-3.6c0.5,0.6,1.4,1.3,2.1,1.8c1.5,0.8,3.3,1.3,4.8,1.3c0.1,0,0.1,0,0.2,0
		c1.3,0,3.6-0.4,4.9-2.2c0.6-0.8,1-2,1.4-3c0.3-1,0.7-1.9,1.1-2.6c0.9-1.3,2.1-2.5,4.2-2.5c0.2,0,0.3,0,0.5,0c2.4,0.2,3.3,1.1,4.2,2
		l0.1,0.1c0.7,0.7,1.3,2.8,1.4,3.6l0,0.2l3.3,1.6L35.9,23.7z"/>
	<path fill="#FFFFFF" d="M31.9,20.3c-0.8,0-1.4-0.6-1.4-1.4s0.6-1.4,1.4-1.4c0.8,0,1.4,0.6,1.4,1.4S32.7,20.3,31.9,20.3z"/>
</g>
</svg>
