<svg xmlns="http://www.w3.org/2000/svg" width="60" height="60" viewBox="0 0 60 60">
  <g id="upgrade" transform="translate(-1317 -422)">
    <rect id="Rectangle_3" data-name="Rectangle 3" width="60" height="60" rx="20" transform="translate(1317 422)" fill="#ffa101"/>
    <path id="crown" d="M41.8,27.993a4.242,4.242,0,1,0-8.484,0,3.984,3.984,0,0,0,.509,1.994l-4.5,3.436-4.454-5.854a4.237,4.237,0,1,0-7.3-2.927,4.161,4.161,0,0,0,1.1,2.842l-4.793,5.938L9.732,30.071a4.341,4.341,0,0,0,.551-2.078A4.242,4.242,0,1,0,5.7,32.235l1.612,8.441v4.411A1.25,1.25,0,0,0,8.587,46.36H34.971a1.25,1.25,0,0,0,1.273-1.273V40.676l1.612-8.441A4.286,4.286,0,0,0,41.8,27.993Zm-4.242-1.7a1.7,1.7,0,1,1-1.7,1.7A1.7,1.7,0,0,1,37.558,26.3ZM21.821,22.945a1.7,1.7,0,1,1-1.7,1.7A1.7,1.7,0,0,1,21.821,22.945ZM14.1,36.519h.127a1.311,1.311,0,0,0,.848-.467L20.888,28.8a6.328,6.328,0,0,0,.891.085,5.2,5.2,0,0,0,.806-.085l5.429,7.211a1.366,1.366,0,0,0,.848.509h.17a1.184,1.184,0,0,0,.764-.255l5.514-4.242-1.4,7.253H9.69L8.332,32.192l5.005,4.072A1.107,1.107,0,0,0,14.1,36.519ZM4.387,27.993a1.7,1.7,0,1,1,1.7,1.7A1.7,1.7,0,0,1,4.387,27.993ZM9.9,43.815V41.821H33.741v1.994Z" transform="translate(1325.2 418.6)" fill="#fff"/>
  </g>
</svg>
