<?xml version="1.0" encoding="utf-8"?>
<!-- Generator: Adobe Illustrator 18.1.1, SVG Export Plug-In . SVG Version: 6.00 Build 0)  -->
<svg version="1.1" id="Layer_1" xmlns="http://www.w3.org/2000/svg" xmlns:xlink="http://www.w3.org/1999/xlink" x="0px" y="0px"
	 viewBox="0 0 99.5 99.5" enable-background="new 0 0 99.5 99.5" xml:space="preserve">
<g>
	<circle fill="#F1F3EE" cx="49.7" cy="49.7" r="49.7"/>
	<path fill="#010101" d="M51.2,25.2c-11.3,0-20.5,9.2-20.6,20.5h0v0c-4.1,0.1-7.4,3.4-7.4,7.5s3.3,7.5,7.4,7.5v0v9.3
		c0,3.9,3.2,7.1,7.1,7.1h9.4c0.7,1.6,2.2,2.7,4.1,2.7c2.4,0,4.4-2,4.4-4.4c0-2.1-1.5-3.9-3.5-4.3c6.6-0.3,12.1-4.6,14.3-10.5h5.3
		h0.1v0c4.1-0.1,7.4-3.4,7.4-7.5s-3.3-7.5-7.4-7.5v0h0C71.7,34.4,62.5,25.2,51.2,25.2z M51.2,28.5c9.5,0,17.2,7.7,17.3,17.2H67
		c-1.4-6-6.9-10.5-13.3-10.5h-5c-6.4,0-11.9,4.5-13.3,10.5h-1.5C34,36.2,41.7,28.5,51.2,28.5z M48.7,38.4h5
		c5.7,0,10.4,4.7,10.4,10.4v6.2c0,7.1-5.8,12.9-12.9,12.9s-12.9-5.8-12.9-12.9v-6.2C38.3,43.1,42.9,38.4,48.7,38.4z M33.9,48.9H35
		v6.1v2.4h-1.1V48.9z M67.4,48.9h1.1v8.5h-1.1v-2.4V48.9z M30.6,48.9v8.5c-2.3-0.1-4.2-1.9-4.2-4.3C26.5,50.9,28.3,49,30.6,48.9z
		 M71.8,48.9c2.3,0.1,4.2,1.9,4.2,4.3s-1.9,4.2-4.2,4.3V48.9z M56.7,58.7c-1.5,1.5-3.4,2.3-5.5,2.3c-2.1,0-4-0.8-5.5-2.3L43.4,61
		c2.1,2.1,4.9,3.2,7.8,3.2c3,0,5.7-1.1,7.8-3.2L56.7,58.7z M33.9,60.8H36c2.2,5.9,7.7,10.1,14.3,10.5c-1.5,0.3-2.6,1.3-3.2,2.6h-9.4
		c-2.1,0-3.8-1.7-3.8-3.8V60.8z M51.2,74.4c0.6,0,1.1,0.5,1.1,1.1s-0.5,1.1-1.1,1.1c-0.3,0-0.6-0.1-0.8-0.3v-1.6
		C50.6,74.5,50.9,74.4,51.2,74.4z"/>
</g>
</svg>
