<?xml version="1.0" encoding="utf-8"?>
<!-- Generator: Adobe Illustrator 18.1.1, SVG Export Plug-In . SVG Version: 6.00 Build 0)  -->
<svg version="1.1" id="Layer_1" xmlns="http://www.w3.org/2000/svg" xmlns:xlink="http://www.w3.org/1999/xlink" x="0px" y="0px"
	 viewBox="0 0 30.7 35.3" enable-background="new 0 0 30.7 35.3" xml:space="preserve">
<g>
	<path fill="#F5D411" d="M30.7,15.4C30.7,6.9,23.8,0,15.4,0C6.9,0,0,6.9,0,15.4c0,3.4,1.1,6.7,3.2,9.4c0,0,0,0,0,0
		c4.4,6.1,3.3,9,3.3,9c0,0.1-0.1,0.4-0.1,0.4s0.1,0.7,0.5,0.9c0.1,0.1,0.3,0.1,0.4,0.1c0.3,0,13.4,0.2,15.9,0c0,0,0.1,0,0.1,0
		c0.2,0,0.3,0,0.3-0.1c0.2-0.1,0.7-0.9,0.7-0.9s-0.1-0.1-0.2-0.4c0,0-1.2-3,3.3-9.1C29.6,22,30.7,18.8,30.7,15.4z"/>
</g>
</svg>
