<?xml version="1.0" encoding="utf-8"?>
<!-- Generator: Adobe Illustrator 18.1.1, SVG Export Plug-In . SVG Version: 6.00 Build 0)  -->
<svg version="1.1" id="Layer_1" xmlns="http://www.w3.org/2000/svg" xmlns:xlink="http://www.w3.org/1999/xlink" x="0px" y="0px"
	 viewBox="0 0 171 149" enable-background="new 0 0 171 149" xml:space="preserve">
<path fill-rule="evenodd" clip-rule="evenodd" d="M0,74.5V149h85.5H171V74.5V0H85.5H0V74.5z M131.3,41.7c0.4,0.3,0.2,1.2-0.4,1.9
	c-1.2,1.5-0.3,9,1.2,10c0.5,0.3,0.9,3.9,0.9,8V69h-3.6c-2.7,0-4.1-0.7-5.6-2.5c-1.3-1.6-2.9-2.5-4.8-2.5s-3.5,0.9-4.8,2.5
	c-1.7,2.1-2.8,2.5-7.3,2.5c-5.1,0-5.5,0.2-6.9,3.3c-2.7,5.8-10.2,4.5-10.2-1.8c0-5.1,5.5-7.4,9.4-3.8c2.2,2,2.4,1.1,0.2-1.1
	c-2.4-2.5-6.9-2-9.2,0.9c-1.9,2.4-2.4,2.5-14.1,2.5C65.5,69,64,69.2,64,70.7c0,4.1-5,6.5-9.1,4.3c-2.2-1.2-2.7-6.8-0.7-8.8
	c1.7-1.7,5.8-1.5,8,0.5s2.4,1.1,0.2-1.1c-2.5-2.6-6.7-2-9.7,1.4c-1.5,1.6-2.7,3.5-2.7,4.2c0,2-3.2,4.8-5.5,4.8c-3.7,0-5.3-2.2-6-8.3
	L37.8,62h34.6c19,0,34.6-0.2,34.6-0.4c0-1.6-1.4-3.6-2.6-3.6c-1.1,0-1.4-1.8-1.4-7.5c0-6,0.3-7.5,1.5-7.5c0.8,0,1.5-0.5,1.5-1
	C106,40.9,130.2,40.6,131.3,41.7L131.3,41.7z M40,51.4c0,4.1-0.4,7.8-1,8.1c-0.6,0.4-1-2.3-1-7.4c0-4.7,0.4-8.1,1-8.1
	S40,47.1,40,51.4z M100,52c0,4.7-0.4,8-1,8s-1-3.3-1-8s0.4-8,1-8S100,47.3,100,52z M96.8,53.2l-0.3,6.3l-27.7,0.3L41,60v-6.5V47h28
	h28.1L96.8,53.2z M123.7,67.6c1.5,2.4,1.5,2.9,0.2,5.3c-1.1,2-2.2,2.6-4.9,2.6s-3.8-0.6-4.9-2.6c-1.3-2.4-1.3-2.9,0.2-5.3
	c1.2-1.8,2.6-2.6,4.7-2.6S122.5,65.8,123.7,67.6z M87,71c0,0.6-2.8,1-6.5,1S74,71.6,74,71s2.8-1,6.5-1S87,70.4,87,71z M45.2,105.2
	c0.2,3,0.8,5.3,1.5,5.6c1.9,0.6,2.8-2.7,1.5-4.9c-1.4-2.2-1.5-2.9-0.4-2.9c0.4,0,1.2,1.2,1.9,2.6c1.5,3.2,0.1,6.4-2.7,6.4
	c-2.5,0-4-2.9-4-7.9C43,98.2,44.8,99.1,45.2,105.2z M94.7,101.2c-2.2,0.8-2.6,1.3-1.6,2.4c0.8,1,1.6,1.1,3,0.4
	c2.6-1.5,5.6,2.9,3.9,5.9c-0.6,1.2-1.6,2.1-2.2,2.1c-0.9,0-0.9-0.3,0-1.2c1.7-1.7,1.5-5.8-0.2-5.8c-0.7,0-1.7,1-2.1,2.2l-0.8,2.3
	l-0.4-2.3c-0.2-1.2-1.1-2.2-1.9-2.2c-1.7,0-1.9,4.1-0.2,5.8c0.7,0.7,0.8,1.2,0.2,1.2c-1.7,0-3.4-2.3-3.4-4.7c0-2.9,4.2-7.3,6.7-7.2
	C96.9,100.1,96.5,100.5,94.7,101.2z M70,110.1c0,3.7-1.9,5.9-4.9,5.9c-4.1,0-5.5-8.1-1.9-11.5c2.2-2.1,2.2-2.1,4.5-0.1
	C69.3,105.8,70,107.5,70,110.1L70,110.1z M57.4,104.9c2.5,2.7,1.7,6.5-1.3,6.9c-1.3,0.2-2.8-0.2-3.2-1c-1.2-1.8-1.1-4.8,0.1-4.8
	c0.6,0,1,1.1,1,2.5c0,1.6,0.6,2.5,1.5,2.5c2.7,0,2.9-3,0.5-5.6c-1.3-1.3-1.9-2.4-1.3-2.4C55.2,103,56.5,103.9,57.4,104.9L57.4,104.9
	z M77.5,104.6c1.2,1.2,1.3,1.9,0.4,3s-0.9,1.7,0,2.8s1,2,0.1,3.5c-1.3,2.5-3.3,2.7-5.4,0.5c-1.8-1.8-2-3-0.6-3.9
	c0.6-0.3,1,0.3,1,1.4c0,1.4,0.6,2.1,2,2.1c2.3,0,2.8-3.4,0.8-4.4c-1-0.5-1-0.7,0-1.2c1.9-0.9,1.4-3.4-0.8-3.4c-1.2,0-2,0.7-2.1,1.7
	c0,1.3-0.2,1.4-0.6,0.4c-0.3-0.8,0.2-2,1.3-2.8C75.8,102.7,75.5,102.7,77.5,104.6z M87.1,106.3c0.2,2.1-0.2,4.2-1.1,5.1
	c-0.4,0.4-0.7-0.7-0.7-2.5c0.2-2.5-0.3-3.4-1.7-3.7c-1.7-0.4-1.8,0-1.3,3.2c0.6,3.9-0.7,5-1.7,1.3c-0.8-3.1-0.8-3.4,1-5.1
	c1.2-1.2,2-1.3,3.5-0.6C86.1,104.6,87.1,105.6,87.1,106.3z M112.2,103.9c2.6,0.3,1.2,8.1-1.4,8.1c-0.9,0-0.9-0.3,0-1.2
	c1.7-1.7,1.5-5.8-0.3-5.8c-1,0-1.5,1-1.5,3c0,5.3-6.1,5.2-6.8,0C101.6,104.3,104.6,103.1,112.2,103.9z M125.2,103.9
	c2.6,0.3,1.2,8.1-1.4,8.1c-0.9,0-0.9-0.3,0-1.2c1.7-1.7,1.5-5.8-0.3-5.8c-0.8,0-1.5,0.9-1.5,2s-0.4,2-1,2c-0.5,0-1-0.9-1-2
	s-0.7-2-1.5-2c-1.8,0-2,4.1-0.3,5.8c0.9,0.9,0.9,1.2,0,1.2c-1.2,0-3.2-3.1-3.2-4.9C115,104.3,118.6,103.2,125.2,103.9z"/>
</svg>
