<svg xmlns="http://www.w3.org/2000/svg" width="23.682" height="22.606" viewBox="0 0 23.682 22.606">
  <path id="Path_823" data-name="Path 823" d="M781.723-129.785l-2.562-13.648a1.833,1.833,0,0,0-1.834-1.446h-2.165v-.525a5.105,5.105,0,0,0-5.251-4.934,5.1,5.1,0,0,0-5.251,4.934v.525h-2.166a1.83,1.83,0,0,0-1.834,1.446L758.1-129.785a1.67,1.67,0,0,0,.407,1.428,1.905,1.905,0,0,0,1.426.625h19.958a1.9,1.9,0,0,0,1.426-.625A1.673,1.673,0,0,0,781.723-129.785Zm-15.275-10.229V-143.2h6.924v3.184h1.789V-143.2h2.165a.074.074,0,0,1,.074.058l2.562,13.648a.06.06,0,0,1-.017.057l.316.246-.371-.223H759.931l-.073-.082,2.563-13.648a.072.072,0,0,1,.073-.058h2.166v3.184Zm0-4.865v-.525a3.367,3.367,0,0,1,3.462-3.254,3.367,3.367,0,0,1,3.462,3.254v.525Z" transform="translate(-758.069 150.337)" fill="#9e9e9e"/>
</svg>
