<svg xmlns="http://www.w3.org/2000/svg" width="176.113" height="54.196" viewBox="0 0 176.113 54.196">
  <g id="Group_469" data-name="Group 469" transform="translate(0.618 0.515)">
    <g id="Group_467" data-name="Group 467" transform="translate(0 0)">
      <g id="Group_466" data-name="Group 466">
        <g id="Group_465" data-name="Group 465">
          <path id="Path_162" data-name="Path 162" d="M663.8,610.433l-1.73,1.025a2.974,2.974,0,0,0-.925-1.1,2.157,2.157,0,0,0-1.18-.293,2.185,2.185,0,0,0-1.474.5,1.563,1.563,0,0,0-.586,1.245q0,1.035,1.538,1.666l1.41.577a6.02,6.02,0,0,1,2.517,1.7,3.83,3.83,0,0,1,.8,2.458,4.319,4.319,0,0,1-1.3,3.221,4.462,4.462,0,0,1-3.25,1.281,4.348,4.348,0,0,1-3.039-1.089,5.019,5.019,0,0,1-1.472-3.067l2.159-.475a3.671,3.671,0,0,0,.513,1.721,2.437,2.437,0,0,0,3.579.247,2.311,2.311,0,0,0,.659-1.693,2.372,2.372,0,0,0-.115-.756,1.926,1.926,0,0,0-.357-.631,2.86,2.86,0,0,0-.626-.54,6,6,0,0,0-.915-.481l-1.365-.568q-2.9-1.227-2.9-3.588a3.4,3.4,0,0,1,1.218-2.663,4.4,4.4,0,0,1,3.029-1.08A4.229,4.229,0,0,1,663.8,610.433Z" transform="translate(-588.313 -601.696)" fill="#231f20" stroke="rgba(0,0,0,0)" stroke-width="1"/>
          <path id="Path_163" data-name="Path 163" d="M680.374,609.088v2.526a5.917,5.917,0,0,0-3.826-1.548,4.872,4.872,0,0,0-3.669,1.566,5.276,5.276,0,0,0-1.5,3.807,5.148,5.148,0,0,0,1.5,3.753,4.952,4.952,0,0,0,3.678,1.528,4.512,4.512,0,0,0,1.913-.366,5.551,5.551,0,0,0,.911-.493,11.177,11.177,0,0,0,.993-.751v2.572a7.7,7.7,0,0,1-3.844,1.035,7.094,7.094,0,0,1-5.172-2.114,7.012,7.012,0,0,1-2.132-5.144,7.256,7.256,0,0,1,1.785-4.814,7.108,7.108,0,0,1,5.684-2.591A7.221,7.221,0,0,1,680.374,609.088Z" transform="translate(-591.848 -601.696)" fill="#231f20" stroke="rgba(0,0,0,0)" stroke-width="1"/>
          <path id="Path_164" data-name="Path 164" d="M689.71,613.948h6.1V608.42h2.132v14.132h-2.132v-6.6h-6.1v6.6h-2.133V608.42h2.133Z" transform="translate(-596.439 -601.788)" fill="#231f20" stroke="rgba(0,0,0,0)" stroke-width="1"/>
          <path id="Path_165" data-name="Path 165" d="M704.7,615.333a6.921,6.921,0,0,1,2.188-5.126,7.2,7.2,0,0,1,5.236-2.142,7.391,7.391,0,0,1,7.349,7.349,6.948,6.948,0,0,1-2.178,5.172,7.468,7.468,0,0,1-10.2.238A6.946,6.946,0,0,1,704.7,615.333Zm2.151.028a5.107,5.107,0,0,0,1.575,3.853,5.215,5.215,0,0,0,7.367-.029,5.484,5.484,0,0,0,.019-7.578,5.27,5.27,0,0,0-7.442,0A5.1,5.1,0,0,0,706.849,615.36Z" transform="translate(-600.723 -601.699)" fill="#231f20" stroke="rgba(0,0,0,0)" stroke-width="1"/>
          <path id="Path_166" data-name="Path 166" d="M726.669,615.333a6.922,6.922,0,0,1,2.188-5.126,7.2,7.2,0,0,1,5.235-2.142,7.391,7.391,0,0,1,7.35,7.349,6.952,6.952,0,0,1-2.178,5.172,7.468,7.468,0,0,1-10.2.238A6.943,6.943,0,0,1,726.669,615.333Zm2.151.028a5.1,5.1,0,0,0,1.575,3.853,5.215,5.215,0,0,0,7.367-.029,5.483,5.483,0,0,0,.018-7.578,4.986,4.986,0,0,0-3.716-1.538,5.038,5.038,0,0,0-3.726,1.538A5.1,5.1,0,0,0,728.82,615.36Z" transform="translate(-606.22 -601.699)" fill="#231f20" stroke="rgba(0,0,0,0)" stroke-width="1"/>
          <path id="Path_167" data-name="Path 167" d="M751.79,608.42v12.127h4.155v2h-6.288V608.42Z" transform="translate(-611.972 -601.788)" fill="#231f20" stroke="rgba(0,0,0,0)" stroke-width="1"/>
          <path id="Path_168" data-name="Path 168" d="M767.017,615.333a6.918,6.918,0,0,1,2.188-5.126,7.2,7.2,0,0,1,5.235-2.142,7.392,7.392,0,0,1,7.349,7.349,6.949,6.949,0,0,1-2.179,5.172,7.467,7.467,0,0,1-10.2.238A6.943,6.943,0,0,1,767.017,615.333Zm2.151.028a5.107,5.107,0,0,0,1.574,3.853,5.216,5.216,0,0,0,7.368-.029,5.483,5.483,0,0,0,.018-7.578,4.986,4.986,0,0,0-3.716-1.538,5.038,5.038,0,0,0-3.726,1.538A5.1,5.1,0,0,0,769.168,615.36Z" transform="translate(-616.315 -601.699)" fill="#231f20" stroke="rgba(0,0,0,0)" stroke-width="1"/>
          <path id="Path_169" data-name="Path 169" d="M797.062,610.424h-4.924v3.4h4.75v2.005h-4.75v6.728h-2.133V608.42h7.057Z" transform="translate(-622.067 -601.788)" fill="#231f20" stroke="rgba(0,0,0,0)" stroke-width="1"/>
          <path id="Path_170" data-name="Path 170" d="M655.687,647.8V634.4h3.669a22.863,22.863,0,0,1,3.172.147,4.791,4.791,0,0,1,1.551.5,2.845,2.845,0,0,1,1.131,1.1,3.207,3.207,0,0,1,.389,1.6,2.687,2.687,0,0,1-.581,1.818,3.664,3.664,0,0,1-1.854,1.021,3.209,3.209,0,0,1,2.234,1,3.425,3.425,0,0,1,.805,2.384,3.816,3.816,0,0,1-.453,1.886,3.126,3.126,0,0,1-1.295,1.262,5.3,5.3,0,0,1-1.694.523,24.291,24.291,0,0,1-3.295.156Zm3.386-8.046h.733a4.023,4.023,0,0,0,1.857-.3,1.1,1.1,0,0,0,.5-1.029,1.173,1.173,0,0,0-.472-1.066,3.7,3.7,0,0,0-1.835-.307h-.787Zm0,5.309h1.281a3.79,3.79,0,0,0,1.84-.325,1.165,1.165,0,0,0,.54-1.085,1.318,1.318,0,0,0-.494-1.177,3.523,3.523,0,0,0-1.831-.334h-1.336Z" transform="translate(-588.46 -608.287)" fill="#231f20" stroke="rgba(0,0,0,0)" stroke-width="1"/>
          <path id="Path_171" data-name="Path 171" d="M672.433,634.4h3.642v6.517a20.1,20.1,0,0,0,.074,2.063,3.972,3.972,0,0,0,.247,1.048,1.508,1.508,0,0,0,.732.782,2.746,2.746,0,0,0,1.273.271,2.714,2.714,0,0,0,1.267-.271,1.558,1.558,0,0,0,.736-.782,3.977,3.977,0,0,0,.247-1.048,20.2,20.2,0,0,0,.073-2.063V634.4h3.634v7.084a14.408,14.408,0,0,1-.266,3.254,4.36,4.36,0,0,1-.9,1.789,4.125,4.125,0,0,1-1.886,1.221,10.6,10.6,0,0,1-5.825,0,4.189,4.189,0,0,1-1.89-1.221,4.477,4.477,0,0,1-.892-1.789,14.235,14.235,0,0,1-.269-3.254V634.4Z" transform="translate(-592.65 -608.287)" fill="#231f20" stroke="rgba(0,0,0,0)" stroke-width="1"/>
          <path id="Path_172" data-name="Path 172" d="M692.127,643.359a6.6,6.6,0,0,0,1.606,1.382,3.128,3.128,0,0,0,1.579.458,1.818,1.818,0,0,0,1.2-.394,1.244,1.244,0,0,0,.471-1,1.3,1.3,0,0,0-.407-1.03,5.12,5.12,0,0,0-1.845-.747,6.006,6.006,0,0,1-2.782-1.382,3.236,3.236,0,0,1-.815-2.333,4.118,4.118,0,0,1,1.287-3.136,4.664,4.664,0,0,1,3.336-1.213,7.329,7.329,0,0,1,2.1.3,6.808,6.808,0,0,1,1.88.9l-1.143,2.627a4.785,4.785,0,0,0-1.278-.8,3.376,3.376,0,0,0-1.294-.271,1.712,1.712,0,0,0-1.072.316.98.98,0,0,0-.412.81,1,1,0,0,0,.362.805,3.917,3.917,0,0,0,1.4.577l.166.046A6.851,6.851,0,0,1,699.4,640.6a3.293,3.293,0,0,1,.724,1.186,4.553,4.553,0,0,1,.247,1.532,4.445,4.445,0,0,1-1.4,3.428,5.28,5.28,0,0,1-3.735,1.295,6.6,6.6,0,0,1-2.549-.476,7.223,7.223,0,0,1-2.211-1.491Z" transform="translate(-597.165 -608.18)" fill="#231f20" stroke="rgba(0,0,0,0)" stroke-width="1"/>
          <path id="Path_173" data-name="Path 173" d="M706.54,647.8V634.4h3.688v13.4Z" transform="translate(-601.184 -608.287)" fill="#231f20" stroke="rgba(0,0,0,0)" stroke-width="1"/>
          <path id="Path_174" data-name="Path 174" d="M715.317,647.8V634.4h3.524l5.062,6.892a9.729,9.729,0,0,1,.48.846q.334.637.738,1.515-.11-.832-.161-1.482t-.051-1.153V634.4h3.506v13.4h-3.506l-5.061-6.92a7.816,7.816,0,0,1-.49-.847q-.335-.637-.728-1.5.11.841.16,1.491t.05,1.153V647.8Z" transform="translate(-603.379 -608.287)" fill="#231f20" stroke="rgba(0,0,0,0)" stroke-width="1"/>
          <path id="Path_175" data-name="Path 175" d="M736.6,647.8V634.4h8.21v2.938h-4.65v2.325h4.384v2.874h-4.384v2.261h4.65v3Z" transform="translate(-608.705 -608.287)" fill="#231f20" stroke="rgba(0,0,0,0)" stroke-width="1"/>
          <path id="Path_176" data-name="Path 176" d="M751.175,643.359a6.61,6.61,0,0,0,1.606,1.382,3.126,3.126,0,0,0,1.579.458,1.817,1.817,0,0,0,1.2-.394,1.244,1.244,0,0,0,.472-1,1.305,1.305,0,0,0-.407-1.03,5.126,5.126,0,0,0-1.844-.747A6.008,6.008,0,0,1,751,640.65a3.237,3.237,0,0,1-.815-2.333,4.117,4.117,0,0,1,1.287-3.136,4.664,4.664,0,0,1,3.336-1.213,7.328,7.328,0,0,1,2.1.3,6.8,6.8,0,0,1,1.88.9l-1.144,2.627a4.784,4.784,0,0,0-1.277-.8,3.375,3.375,0,0,0-1.294-.271,1.712,1.712,0,0,0-1.072.316.979.979,0,0,0-.412.81,1,1,0,0,0,.362.805,3.916,3.916,0,0,0,1.4.577l.166.046a6.849,6.849,0,0,1,2.938,1.326,3.29,3.29,0,0,1,.724,1.186,4.553,4.553,0,0,1,.247,1.532,4.444,4.444,0,0,1-1.4,3.428,5.277,5.277,0,0,1-3.734,1.295,6.6,6.6,0,0,1-2.549-.476,7.221,7.221,0,0,1-2.211-1.491Z" transform="translate(-611.939 -608.18)" fill="#231f20" stroke="rgba(0,0,0,0)" stroke-width="1"/>
          <path id="Path_177" data-name="Path 177" d="M765.568,643.359a6.623,6.623,0,0,0,1.607,1.382,3.125,3.125,0,0,0,1.578.458,1.819,1.819,0,0,0,1.2-.394,1.244,1.244,0,0,0,.472-1,1.305,1.305,0,0,0-.407-1.03,5.132,5.132,0,0,0-1.844-.747,6,6,0,0,1-2.782-1.382,3.233,3.233,0,0,1-.815-2.333,4.115,4.115,0,0,1,1.287-3.136,4.663,4.663,0,0,1,3.336-1.213,7.331,7.331,0,0,1,2.1.3,6.811,6.811,0,0,1,1.88.9l-1.143,2.627a4.8,4.8,0,0,0-1.277-.8,3.377,3.377,0,0,0-1.3-.271,1.709,1.709,0,0,0-1.071.316.978.978,0,0,0-.412.81,1,1,0,0,0,.361.805,3.929,3.929,0,0,0,1.4.577l.165.046a6.846,6.846,0,0,1,2.938,1.326,3.289,3.289,0,0,1,.724,1.186,4.531,4.531,0,0,1,.247,1.532,4.445,4.445,0,0,1-1.4,3.428,5.277,5.277,0,0,1-3.734,1.295,6.6,6.6,0,0,1-2.549-.476,7.221,7.221,0,0,1-2.21-1.491Z" transform="translate(-615.54 -608.18)" fill="#231f20" stroke="rgba(0,0,0,0)" stroke-width="1"/>
          <path id="Path_181" data-name="Path 181" d="M589.733,599.617l29.8,5.608a2.43,2.43,0,0,1,1.977,2.524l-1.874,33.346a2.43,2.43,0,0,1-1.683,2.177l-29.127,9.35a2.43,2.43,0,0,1-2.25-.408L566.949,636.7a2.43,2.43,0,0,1-.544-3.209L587.232,600.7A2.43,2.43,0,0,1,589.733,599.617Z" transform="translate(-566.026 -599.575)" fill="#ff5d31" stroke="rgba(0,0,0,0)" stroke-width="1"/>
        </g>
      </g>
    </g>
  </g>
</svg>
