<svg id="Group_797" data-name="Group 797" xmlns="http://www.w3.org/2000/svg" width="113.239" height="39.286" viewBox="0 0 113.239 39.286">
  <g id="Group_389" data-name="Group 389">
    <path id="Path_85" data-name="Path 85" d="M37.864,32.688a.633.633,0,0,1-.356.924L19.916,39.241a.637.637,0,0,1-.827-.6V2.531a.633.633,0,0,1,1.182-.314ZM42.048,3.136,23.55-.009a.633.633,0,0,0-.656.924L39.915,30.43a.633.633,0,0,0,1.177-.277L42.574,3.8a.628.628,0,0,0-.526-.656Zm-26.939-.78L.1,25.984a.637.637,0,0,0,.143.836l15,11.867a.633.633,0,0,0,1.025-.494V2.7a.633.633,0,0,0-1.154-.342Z" transform="translate(0 0.017)" fill="#5086ff"/>
    <path id="Path_86" data-name="Path 86" d="M117.118,38.163a3.865,3.865,0,0,1-.3,1.5,3.764,3.764,0,0,1-.859,1.256,4.031,4.031,0,0,1-4.336.84,3.823,3.823,0,0,1-1.279-.84,3.777,3.777,0,0,1-.873-1.261,3.934,3.934,0,0,1,0-2.992,3.8,3.8,0,0,1,.873-1.256,3.911,3.911,0,0,1,1.279-.845,4.077,4.077,0,0,1,3.048,0,3.9,3.9,0,0,1,1.288.845,3.754,3.754,0,0,1,.854,1.251A3.837,3.837,0,0,1,117.118,38.163Zm-3.967,2.184a1.778,1.778,0,0,0,1.385-.619,2.466,2.466,0,0,0,0-3.121,1.792,1.792,0,0,0-1.385-.623,1.764,1.764,0,0,0-1.385.623,2.244,2.244,0,0,0-.554,1.556,2.309,2.309,0,0,0,.545,1.57,1.787,1.787,0,0,0,1.394.614Z" transform="translate(-58.765 -18.438)" fill="#616161"/>
    <path id="Path_87" data-name="Path 87" d="M129.34,42.055V34.63h5.079l-.554,1.63h-2.577v1.311h2.429v1.57h-2.429v2.914Z" transform="translate(-69.616 -18.632)" fill="#616161"/>
    <path id="Path_88" data-name="Path 88" d="M149.06,42.048V34.623h1.547a12.282,12.282,0,0,1,2.443.166,3.453,3.453,0,0,1,1.261.54,3.177,3.177,0,0,1,1.071,1.261,4.391,4.391,0,0,1,0,3.5,3.2,3.2,0,0,1-1.071,1.256,3.4,3.4,0,0,1-1.228.536,10.334,10.334,0,0,1-2.138.162Zm2-1.662h.342a2.586,2.586,0,0,0,1.741-.489,1.99,1.99,0,0,0,.545-1.556,2.018,2.018,0,0,0-.545-1.561,2.535,2.535,0,0,0-1.741-.5h-.342Z" transform="translate(-80.23 -18.624)" fill="#616161"/>
    <path id="Path_89" data-name="Path 89" d="M166.62,42.055V34.63h2.023v7.425Z" transform="translate(-89.682 -18.632)" fill="#616161"/>
    <path id="Path_90" data-name="Path 90" d="M177.966,39.137V37.581h3.976v.434a4.124,4.124,0,0,1-1.011,2.974,3.754,3.754,0,0,1-2.849,1.057,4.433,4.433,0,0,1-1.6-.268,3.574,3.574,0,0,1-1.256-.831,3.758,3.758,0,0,1-.808-1.251,3.981,3.981,0,0,1-.3-1.524,4.021,4.021,0,0,1,.286-1.528,3.814,3.814,0,0,1,.845-1.256,3.759,3.759,0,0,1,1.284-.817,4.2,4.2,0,0,1,1.556-.282,4.114,4.114,0,0,1,1.93.434A3.768,3.768,0,0,1,181.452,36l-1.755.845a2.133,2.133,0,0,0-.706-.642,1.819,1.819,0,0,0-.882-.212,1.787,1.787,0,0,0-1.427.6,2.888,2.888,0,0,0,0,3.325,1.773,1.773,0,0,0,1.427.61,2.1,2.1,0,0,0,1.265-.374,1.45,1.45,0,0,0,.6-1.007Z" transform="translate(-93.718 -18.448)" fill="#616161"/>
    <path id="Path_91" data-name="Path 91" d="M194.09,42.055V34.63h2.046v7.425Z" transform="translate(-104.467 -18.632)" fill="#616161"/>
    <path id="Path_92" data-name="Path 92" d="M202.658,42.055v-5.67H201V34.63h5.943l-.591,1.755h-1.658v5.67Z" transform="translate(-108.187 -18.632)" fill="#616161"/>
    <path id="Path_93" data-name="Path 93" d="M212.14,42.055,214.7,34.63h2.535l2.563,7.425h-2.013l-.374-1.33h-2.872l-.388,1.33Zm2.835-2.771h2.013l-.757-2.452q-.037-.111-.1-.36c-.037-.166-.092-.379-.157-.637-.042.18-.083.356-.129.522s-.083.323-.129.462Z" transform="translate(-114.183 -18.632)" fill="#616161"/>
    <path id="Path_94" data-name="Path 94" d="M230.5,42.055V34.63h2.023v5.712h2.826l-.6,1.736Z" transform="translate(-124.065 -18.632)" fill="#616161"/>
    <path id="Path_95" data-name="Path 95" d="M110,68.865V61.44h2.046v7.425Z" transform="translate(-59.207 -33.062)" fill="#616161"/>
    <path id="Path_96" data-name="Path 96" d="M118.16,68.865V61.44h1.953l2.8,3.819a4.555,4.555,0,0,1,.263.462c.125.231.263.513.411.836-.042-.3-.069-.582-.088-.822s-.028-.462-.028-.637V61.44h1.939v7.425h-1.939l-2.808-3.833a4.331,4.331,0,0,1-.268-.462c-.125-.235-.259-.513-.406-.827.042.309.074.586.092.822s.028.462.028.642v3.666Z" transform="translate(-63.599 -33.062)" fill="#616161"/>
    <path id="Path_97" data-name="Path 97" d="M137.54,68.858V61.433h1.547a12.81,12.81,0,0,1,2.447.162,3.542,3.542,0,0,1,1.261.559,3.177,3.177,0,0,1,1.071,1.261,4.382,4.382,0,0,1,0,3.5,3.177,3.177,0,0,1-1.071,1.242,3.514,3.514,0,0,1-1.228.536,10.336,10.336,0,0,1-2.138.162H137.54Zm2-1.662h.342a2.572,2.572,0,0,0,1.736-.489,2.485,2.485,0,0,0,0-3.117,2.526,2.526,0,0,0-1.736-.513h-.342Z" transform="translate(-74.03 -33.055)" fill="#616161"/>
    <path id="Path_98" data-name="Path 98" d="M154.9,61.44h2.018v3.611a10.974,10.974,0,0,0,.042,1.145,2.009,2.009,0,0,0,.134.577.827.827,0,0,0,.406.434,1.506,1.506,0,0,0,.707.152,1.487,1.487,0,0,0,.7-.152.845.845,0,0,0,.406-.434,2.161,2.161,0,0,0,.139-.577,10.982,10.982,0,0,0,.042-1.145V61.44H161.5v3.925a8.034,8.034,0,0,1-.148,1.8,2.429,2.429,0,0,1-.5,1,2.309,2.309,0,0,1-1.044.679,5.869,5.869,0,0,1-3.232,0,2.355,2.355,0,0,1-1.044-.679,2.48,2.48,0,0,1-.494-.993,8.038,8.038,0,0,1-.148-1.8V61.445Z" transform="translate(-83.369 -33.062)" fill="#616161"/>
    <path id="Path_99" data-name="Path 99" d="M172.431,66.267a3.546,3.546,0,0,0,.891.776,1.708,1.708,0,0,0,.873.254,1.025,1.025,0,0,0,.67-.217.707.707,0,0,0,.259-.554.716.716,0,0,0-.226-.568,2.826,2.826,0,0,0-1.021-.416,3.324,3.324,0,0,1-1.542-.767,1.792,1.792,0,0,1-.462-1.293,2.309,2.309,0,0,1,.716-1.736,2.581,2.581,0,0,1,1.847-.67,4.156,4.156,0,0,1,1.164.162,3.75,3.75,0,0,1,1.044.5l-.637,1.455a2.433,2.433,0,0,0-.706-.462,1.847,1.847,0,0,0-.716-.152.96.96,0,0,0-.6.175.54.54,0,0,0-.226.462.549.549,0,0,0,.2.462,2.2,2.2,0,0,0,.776.319l.092.028a3.759,3.759,0,0,1,1.635.706,1.821,1.821,0,0,1,.4.656,2.485,2.485,0,0,1,.134.85,2.457,2.457,0,0,1-.776,1.9,2.918,2.918,0,0,1-2.069.753,3.629,3.629,0,0,1-1.385-.268,3.943,3.943,0,0,1-1.228-.827Z" transform="translate(-92.33 -32.865)" fill="#616161"/>
    <path id="Path_100" data-name="Path 100" d="M186.427,68.865v-5.67H184.76V61.44h5.74l-.591,1.755h-1.459v5.67Z" transform="translate(-99.446 -33.062)" fill="#616161"/>
    <path id="Path_101" data-name="Path 101" d="M198.71,68.859V61.434h2.115a8.556,8.556,0,0,1,1.732.115,2.152,2.152,0,0,1,.845.383,1.991,1.991,0,0,1,.614.776,2.4,2.4,0,0,1,.217,1.039,2.193,2.193,0,0,1-.425,1.385,2.087,2.087,0,0,1-1.233.716l2.022,2.992h-2.309l-1.7-2.9v2.9Zm1.9-3.934h.374a1.621,1.621,0,0,0,.956-.222.813.813,0,0,0,.3-.7,1,1,0,0,0-.282-.794,1.487,1.487,0,0,0-.947-.235h-.406Z" transform="translate(-106.954 -33.056)" fill="#616161"/>
    <path id="Path_102" data-name="Path 102" d="M213.47,68.865V61.44h2.041v7.425Z" transform="translate(-114.898 -33.062)" fill="#616161"/>
    <path id="Path_103" data-name="Path 103" d="M221.65,68.865V61.44H226.2v1.644h-2.577v1.288h2.429v1.575h-2.429V67.2H226.2v1.662Z" transform="translate(-119.301 -33.062)" fill="#616161"/>
    <path id="Path_104" data-name="Path 104" d="M234.274,66.268a3.616,3.616,0,0,0,.887.776,1.736,1.736,0,0,0,.877.254,1.011,1.011,0,0,0,.665-.217.7.7,0,0,0,.263-.554.716.716,0,0,0-.226-.568,2.868,2.868,0,0,0-1.021-.416,3.3,3.3,0,0,1-1.542-.767,1.792,1.792,0,0,1-.462-1.293,2.309,2.309,0,0,1,.711-1.736,2.591,2.591,0,0,1,1.847-.67,4.193,4.193,0,0,1,1.164.162,3.728,3.728,0,0,1,1.039.5l-.633,1.455a2.563,2.563,0,0,0-.707-.462,1.847,1.847,0,0,0-.716-.152.96.96,0,0,0-.6.175.54.54,0,0,0-.226.462.55.55,0,0,0,.2.462,2.2,2.2,0,0,0,.771.319l.092.028a3.782,3.782,0,0,1,1.644.706,1.75,1.75,0,0,1,.4.656,2.485,2.485,0,0,1,.139.85,2.457,2.457,0,0,1-.776,1.9A2.918,2.918,0,0,1,236,68.89a3.666,3.666,0,0,1-1.413-.268,3.924,3.924,0,0,1-1.224-.827Z" transform="translate(-125.604 -32.866)" fill="#616161"/>
    <path id="Path_105" data-name="Path 105" d="M111.909,7.33l3.519,8.044h-1L113.424,13H110.4l-1,2.373h-1Zm0,2.036-1.233,2.849h2.461Z" transform="translate(-58.345 -3.938)" fill="#616161"/>
    <path id="Path_106" data-name="Path 106" d="M130.953,9.626a3.814,3.814,0,0,0-1.187-.891,3.339,3.339,0,0,0-1.385-.286,3.117,3.117,0,0,0-2.207.924,3.061,3.061,0,0,0-.665,1.025,3.435,3.435,0,0,0-.222,1.256,3.541,3.541,0,0,0,.129.993,2.845,2.845,0,0,0,.4.836,3.232,3.232,0,0,0,1.145,1.016,3.08,3.08,0,0,0,1.464.36,3.145,3.145,0,0,0,1.385-.309,3.621,3.621,0,0,0,1.159-.924v1.224a4.5,4.5,0,0,1-1.27.656,4.437,4.437,0,0,1-1.385.217,4.04,4.04,0,0,1-1.2-.185,4.039,4.039,0,0,1-2.826-3.856,4.281,4.281,0,0,1,.3-1.625,4.073,4.073,0,0,1,2.221-2.18,4.239,4.239,0,0,1,1.57-.286,4.156,4.156,0,0,1,1.316.189,4.7,4.7,0,0,1,1.242.628Z" transform="translate(-66.898 -4.077)" fill="#616161"/>
    <path id="Path_107" data-name="Path 107" d="M143.559,7.33l3.519,8.044h-1L145.074,13h-3.02l-1.007,2.373h-1Zm0,2.036-1.224,2.849H144.8Z" transform="translate(-75.381 -3.938)" fill="#616161"/>
    <path id="Path_108" data-name="Path 108" d="M157.214,15.727V7.993H158.7a11.05,11.05,0,0,1,2.309.166,3.126,3.126,0,0,1,2.189,1.847,4.575,4.575,0,0,1,.346,1.847A4.618,4.618,0,0,1,163.2,13.7a3.232,3.232,0,0,1-2.166,1.847,8.87,8.87,0,0,1-2.018.166H157.2Zm.924-.868h.586a10.436,10.436,0,0,0,1.976-.125,2.1,2.1,0,0,0,.924-.425,2.54,2.54,0,0,0,.725-1.02,3.966,3.966,0,0,0,.245-1.436,3.773,3.773,0,0,0-.245-1.427,2.517,2.517,0,0,0-.725-1.02,2.221,2.221,0,0,0-.924-.434,9.942,9.942,0,0,0-1.962-.129h-.586Z" transform="translate(-84.612 -4.291)" fill="#616161"/>
    <path id="Path_109" data-name="Path 109" d="M174.46,15.734V8h4.082v.836h-3.163v2.221h3.163v.859h-3.163V14.88h3.163v.854Z" transform="translate(-93.902 -4.298)" fill="#616161"/>
    <path id="Path_110" data-name="Path 110" d="M189.7,15.674l-2.4-5.541-.974,5.241H185.4l1.57-8.044,2.706,6.4,2.706-6.4,1.607,8.044h-.924l-.97-5.259Z" transform="translate(-99.79 -3.938)" fill="#616161"/>
    <path id="Path_111" data-name="Path 111" d="M207.413,15.734V12.193L204.79,8h1.062l2.023,3.352L209.888,8h1.057l-2.614,4.193v3.542Z" transform="translate(-110.226 -4.298)" fill="#616161"/>
  </g>
</svg>
