<svg xmlns="http://www.w3.org/2000/svg" width="24" height="24.024" viewBox="0 0 24 24.024">
  <path id="Path_915" data-name="Path 915" d="M744.68-127.333l-6.826-6.821A9.431,9.431,0,0,0,740-140.217a9.445,9.445,0,0,0-2.812-6.711,9.445,9.445,0,0,0-6.693-2.757h-.041a9.439,9.439,0,0,0-6.71,2.812,9.446,9.446,0,0,0-2.783,6.718,9.444,9.444,0,0,0,2.783,6.724,9.447,9.447,0,0,0,6.723,2.786h.026a9.515,9.515,0,0,0,5.963-2.132l6.83,6.829a.987.987,0,0,0,.693.287h0a.99.99,0,0,0,.693-.286.976.976,0,0,0,.287-.693A.971.971,0,0,0,744.68-127.333Zm-8.87-18.153a7.56,7.56,0,0,1,0,10.677,7.56,7.56,0,0,1-10.677,0,7.505,7.505,0,0,1-2.212-5.342,7.558,7.558,0,0,1,7.549-7.545h0A7.431,7.431,0,0,1,735.81-145.487Z" transform="translate(-720.966 149.685)" fill="#9e9e9e"/>
</svg>
