<svg xmlns="http://www.w3.org/2000/svg" width="390.029" height="382.219" viewBox="0 0 390.029 382.219">
  <g id="Group_732" data-name="Group 732" transform="translate(0)">
    <g id="Group_691" data-name="Group 691" transform="translate(4.883 139.11)">
      <path id="Path_831" data-name="Path 831" d="M1111.064,1464.992l-32.041,114.5a3.272,3.272,0,0,0,6.28,1.834l35.656-117.167C1117.667,1464.517,1114.369,1464.811,1111.064,1464.992Z" transform="translate(-1078.903 -1381.571)" fill="#262728"/>
      <g id="Group_689" data-name="Group 689" transform="translate(132.306 21.192)">
        <path id="Path_832" data-name="Path 832" d="M798.4,1319.133,816.582,1466.9a2.743,2.743,0,0,1-5.43.771l-23.647-146.991a5.5,5.5,0,1,1,10.867-1.748C798.382,1318.991,798.394,1319.073,798.4,1319.133Z" transform="translate(-787.435 -1314.301)" fill="#262728"/>
      </g>
      <g id="Group_690" data-name="Group 690" transform="translate(45.79)">
        <path id="Path_833" data-name="Path 833" d="M930.672,1297.75l-84.653-24.38a5.5,5.5,0,0,1,3.046-10.577c.067.019.154.047.22.068l83.561,27.894a3.663,3.663,0,0,1-2.173,6.995Z" transform="translate(-842.037 -1262.577)" fill="#262728"/>
      </g>
    </g>
    <g id="Group_692" data-name="Group 692" transform="translate(0 37.967)">
      <path id="Path_834" data-name="Path 834" d="M779.471,1018a5.556,5.556,0,0,0-.839-.51c-2.024-1-4.526-1.071-6.736-1.334a53.857,53.857,0,0,0-7.6-.179c-4.646.107-9.278.529-13.923.648-10.7.276-21.429.132-32.135.042-15.149-.127-32.046-3.447-46.372,3.062-12.789,5.81-17.643,20.1-20.814,32.761-4.352,17.375-8.015,34.928-11.649,52.463a183.923,183.923,0,0,1-9.971,33.225c-2.323,5.622-4.853,11.183-6.936,16.9-1.253,3.437-2.159,7-3.442,10.413-8.7.55-17.389,2.86-26.086,3.426a276.416,276.416,0,0,0-30.724,3.714c-15.774,2.821-32.774,5.284-47.361,12.2-5.882,2.788-12.452,6.778-14.944,13.12-2.383,6.065-2.45,15.13-1.5,21.466.771,5.13,4.473,4.937,9.431,5.938,9.114,1.839,18.517,1.449,27.643,3.2,13.46,2.589,26.892,5.316,40.313,8.1q10.068,2.088,20.13,4.208c6.416,1.349,12.691,3.2,19.225,3.918,6.936.766,13.9-1.032,20.706-2.4,12.9-2.6,25.893-5.036,38.92-6.877,13.992-1.977,28.134-1.866,42.125-3.936,6.786-1,14.574-.574,20.707-4.1,8.015-4.612,7.829-15.768,8.439-23.985.787-10.587,2.946-20.972,5.2-31.326,4.488-20.646,8.041-41.461,12.2-62.171,4.111-20.478,8.06-41.079,13.137-61.342,1.146-4.574,3.308-8.852,4.743-13.337a24.618,24.618,0,0,0,1.407-10.074,22.318,22.318,0,0,0-1.333-4.315A5.492,5.492,0,0,0,779.471,1018Z" transform="translate(-497.867 -1015.708)" fill="#ffa000"/>
      <path id="Path_835" data-name="Path 835" d="M570.673,1037.4c-.337-2.963-1.658-5.57-3.494-4.776-6.834.509-11.545,7.995-14.8,13.264-5.774,9.351-8.466,19.865-11.067,30.438-3.258,13.249-7.527,26.223-10.864,39.458-3.31,13.129-6.226,26.352-9.081,39.586-4.055,18.8-11.173,35.933,2.132,53.024,1.638,2.1,4.208,4.235,6.688,3.254,3.692-1.46,4.833-11.38,5.515-14.717,2.649-12.966,5.288-25.934,8-38.886,6.411-30.6,14.076-60.865,22.162-91.064C568.41,1057.478,571.807,1047.373,570.673,1037.4Z" transform="translate(-293.25 -1025.607)" fill="#df880b"/>
      <path id="Path_836" data-name="Path 836" d="M925.359,1408.3c-19.017-11.088-42.253-16.023-64.168-14.661-13.008.808-25.964,3.8-38.725,6.309-6.969,1.368-13.956,2.656-20.916,4.07-2.885.586-5.778,1.2-8.6,2.024-3.372.988-6.395,2.684-9.995,2.716a1.045,1.045,0,0,0-1.056.894,1.06,1.06,0,0,0-1.835-.56l-.886,1.044a1.168,1.168,0,0,0,0,1.607c2.549,2.788,5.326,3.523,9.068,3.335,5.921-.3,11.877-.876,17.772-1.5,13.163-1.4,26.247-2.4,39.492-2.542,26.435-.276,52.877,1.385,79.279-.613A1.146,1.146,0,0,0,925.359,1408.3Z" transform="translate(-756.041 -1238.67)" fill="#ffbc00"/>
      <path id="Path_837" data-name="Path 837" d="M667.8,1493.541l39.356-5.257c5.056-.675,10.243-1.392,14.718-3.841,6.277-3.435,13.965-16.4,6.534-22.5-5.012-4.112-15.2-1.453-20.9-.42-9.5,1.723-18.992,3.2-28.539,4.667-11.89,1.833-23.7,4.185-35.6,5.953-6.555.974-13.152,1.623-19.731,2.418-4.638.561-13.575.3-16.876,4.29-1.991,2.409-1.233,11.325-.989,14.5,1.006,13.128,34.761,3.824,42.262,2.822Z" transform="translate(-490.541 -1277.808)" fill="#df880b"/>
    </g>
    <g id="Group_712" data-name="Group 712" transform="translate(38.096)">
      <g id="Group_699" data-name="Group 699" transform="translate(16.97 305.802)">
        <g id="Group_693" data-name="Group 693" transform="translate(32.592)">
          <path id="Path_838" data-name="Path 838" d="M943.795,1688.032a21.794,21.794,0,0,0,6.968-1.638l-.663-15.058-19.3-1.9.766,17.82c.456.068.913.125,1.366.179A57.644,57.644,0,0,0,943.795,1688.032Z" transform="translate(-930.8 -1669.433)" fill="#e7a579"/>
          <path id="Path_839" data-name="Path 839" d="M941.477,1712.468a57.624,57.624,0,0,1-10.862-.6c-.454-.054-.911-.111-1.366-.179l.759,17.664,19.073-4.092-.636-14.432A21.794,21.794,0,0,1,941.477,1712.468Z" transform="translate(-928.482 -1693.869)" fill="#e5e6e7"/>
        </g>
        <g id="Group_698" data-name="Group 698" transform="translate(0 25.581)">
          <path id="Path_840" data-name="Path 840" d="M971.907,1740.27a61.87,61.87,0,0,1-2.7-7.025c-6.611,2.454-13.128.857-19.631-1.373-.96,3.408-4.081,7.368-4.924,8.492a5.769,5.769,0,0,1-.611.758,11.129,11.129,0,0,1-1.323,1.371,9.91,9.91,0,0,1-1.556,1.33,13.677,13.677,0,0,1-1.564,1.088c-.567.384-1.142.729-1.717,1.073-.538.338-1.12.644-1.666.943-.473.286-.946.573-1.425.819-.066.052-.138.065-.2.117-.546.3-1.091.6-1.681.864a76.548,76.548,0,0,1-11.247,4.777,12.078,12.078,0,0,0-3.506,1.55,5.85,5.85,0,0,0-1.464,7.092c1.458,2.593,5.111,2.035,7.324,1.606,15.4-2.82,33.028-6.231,48.381-9.327C977.283,1753.447,972.862,1742.178,971.907,1740.27Z" transform="translate(-916.061 -1731.871)" fill="#1d5dc4"/>
          <path id="Path_841" data-name="Path 841" d="M916.2,1790.756c1.568,2.2,4.965,1.721,7.069,1.331,15.408-2.857,33.047-6.233,48.4-9.338a2.817,2.817,0,0,0,2.185-2.906Z" transform="translate(-915.324 -1760.189)" fill="#a6a8ab"/>
          <g id="Group_694" data-name="Group 694" transform="translate(16.845 15.992)">
            <path id="Path_842" data-name="Path 842" d="M1010.854,1775.512a.7.7,0,0,1-.444.24.954.954,0,0,1-.845-.3l-3.125-3.684c.589-.266,1.135-.565,1.681-.864l2.776,3.217A1,1,0,0,1,1010.854,1775.512Z" transform="translate(-1006.44 -1770.904)" fill="#a6a8ab"/>
          </g>
          <g id="Group_695" data-name="Group 695" transform="translate(20.154 14.113)">
            <path id="Path_843" data-name="Path 843" d="M1002.947,1770.891a1.119,1.119,0,0,1-.48.247.909.909,0,0,1-.852-.339l-3.024-3.539c.546-.3,1.128-.6,1.666-.943l2.689,3.151A1.073,1.073,0,0,1,1002.947,1770.891Z" transform="translate(-998.592 -1766.317)" fill="#a6a8ab"/>
          </g>
          <g id="Group_696" data-name="Group 696" transform="translate(23.537 11.952)">
            <path id="Path_844" data-name="Path 844" d="M995,1765.439a.761.761,0,0,1-.444.24.923.923,0,0,1-.888-.333l-2.776-3.217a13.682,13.682,0,0,0,1.564-1.088l2.579,2.966A1.072,1.072,0,0,1,995,1765.439Z" transform="translate(-990.89 -1761.042)" fill="#a6a8ab"/>
          </g>
          <g id="Group_697" data-name="Group 697" transform="translate(26.657 9.25)">
            <path id="Path_845" data-name="Path 845" d="M987.37,1759.168a.761.761,0,0,1-.444.24.954.954,0,0,1-.844-.3l-2.827-3.289a11.156,11.156,0,0,0,1.323-1.371l2.834,3.328A1.03,1.03,0,0,1,987.37,1759.168Z" transform="translate(-983.255 -1754.449)" fill="#a6a8ab"/>
          </g>
        </g>
      </g>
      <g id="Group_704" data-name="Group 704" transform="translate(0 193.079)">
        <path id="Path_846" data-name="Path 846" d="M1028.55,1413.355c-12.677,5.131-27.247,10.908-40,15.829-1.829.725-4.869,1.8-6.45-.012a4.6,4.6,0,0,1,.319-5.911,11.364,11.364,0,0,1,2.785-1.844,72.167,72.167,0,0,0,8.958-5.76c.467-.315.893-.647,1.319-.98.049-.053.109-.076.158-.129.377-.28.742-.59,1.107-.9.426-.333.882-.678,1.3-1.041.445-.375.889-.749,1.322-1.154a12.615,12.615,0,0,0,1.19-1.139,8.962,8.962,0,0,0,1.152-1.331,9.874,9.874,0,0,0,.948-1.323,4.969,4.969,0,0,0,.421-.71,23.37,23.37,0,0,0,1.6-3.431c.39-1.25.088-2.687.954-3.773.9-1.1,2.439-1.024,3.741-1.137a.605.605,0,0,0,.264-.031,6.629,6.629,0,0,0,3.261-1.4c2.085-1.235,6.042-2.074,8.327-2.868.482-.182,3.024,5.269,5.063,7.842C1027.346,1403.5,1032.588,1411.727,1028.55,1413.355Z" transform="translate(-981.169 -1394.301)" fill="#1d5dc4"/>
        <path id="Path_847" data-name="Path 847" d="M981.106,1452.932c1.624,1.482,4.456.512,6.2-.165,12.755-4.95,27.342-10.7,40.021-15.842a2.429,2.429,0,0,0,1.481-2.7Z" transform="translate(-979.927 -1417.87)" fill="#a6a8ab"/>
        <g id="Group_700" data-name="Group 700" transform="translate(12.99 20.375)">
          <path id="Path_848" data-name="Path 848" d="M1062.232,1447.233a.648.648,0,0,1-.347.269.842.842,0,0,1-.759-.093l-3.145-2.4c.467-.315.893-.647,1.319-.98l2.786,2.084A.766.766,0,0,1,1062.232,1447.233Z" transform="translate(-1057.981 -1444.032)" fill="#a6a8ab"/>
        </g>
        <g id="Group_701" data-name="Group 701" transform="translate(15.574 18.305)">
          <path id="Path_849" data-name="Path 849" d="M1056.089,1442.161a1.045,1.045,0,0,1-.376.28.8.8,0,0,1-.77-.123l-3.04-2.3c.426-.333.882-.678,1.3-1.041l2.7,2.047A.822.822,0,0,1,1056.089,1442.161Z" transform="translate(-1051.902 -1438.979)" fill="#a6a8ab"/>
        </g>
        <g id="Group_702" data-name="Group 702" transform="translate(18.192 16.012)">
          <path id="Path_850" data-name="Path 850" d="M1050.015,1436.448a.709.709,0,0,1-.347.269.81.81,0,0,1-.8-.112l-2.786-2.084a12.622,12.622,0,0,0,1.19-1.139l2.586,1.919A.824.824,0,0,1,1050.015,1436.448Z" transform="translate(-1046.082 -1433.382)" fill="#a6a8ab"/>
        </g>
        <g id="Group_703" data-name="Group 703" transform="translate(20.534 13.358)">
          <path id="Path_851" data-name="Path 851" d="M1044.281,1430.185a.708.708,0,0,1-.346.269.842.842,0,0,1-.759-.093l-2.839-2.134a9.906,9.906,0,0,0,.948-1.323l2.85,2.164A.792.792,0,0,1,1044.281,1430.185Z" transform="translate(-1040.337 -1426.904)" fill="#a6a8ab"/>
        </g>
      </g>
      <path id="Path_852" data-name="Path 852" d="M925.408,1248.638c-15.006-13.978-33.73-27.3-50.481-39.128-15.666-11.065-32.575-29.241-49.789-19.1-21.219,12.5-4.389,57.826,3.344,80.837,6.712,1.241,14.477-2.482,21.189-1.241,4.931-36.149,1.231-27.989,1.885-38.138,22.633,24.291,41.133,42.457,66.984,51.04Z" transform="translate(-808.365 -1079.113)" fill="#e76464"/>
      <path id="Path_853" data-name="Path 853" d="M787.949,1267.1l18.017,5.068c15.134-2.44,25.469-12.406,32.523-24.154-5.326-3.1-10.344-6.943-15.657-9.413C813.963,1250.943,802.46,1260.312,787.949,1267.1Z" transform="translate(-710.438 -1109.311)" fill="#f6bd96"/>
      <path id="Path_854" data-name="Path 854" d="M779.457,1124.6l2.543,1.561c.116-.527.248-1.029.36-1.561Z" transform="translate(-650.83 -1042.018)" fill="#a6a8ab"/>
      <path id="Path_855" data-name="Path 855" d="M770.208,1134.138c-3.973,18.136-9.405,29.993-18.074,42.061,5.313,2.471,15.268,8.937,20.593,12.04,12.551-20.9,12.646-49.357,12.646-49.357Z" transform="translate(-642.649 -1047.65)" fill="#d0d2d3"/>
      <path id="Path_856" data-name="Path 856" d="M740.336,1364.01c7.188,4.446,22.506,3.575,31.656,1.672-9.042-13.111-26.342-23.352-38.093-35.109C729.73,1342.794,727.235,1355.906,740.336,1364.01Z" transform="translate(-620.427 -1163.604)" fill="#e76464"/>
      <path id="Path_857" data-name="Path 857" d="M717.38,1138.412c-1.507-13.116-6.88-30.612-18.526-38.3-8.87-5.856-23.511-10.614-34.155-7.223-12.566,4-6.813,24.072-7.683,33.7a167.176,167.176,0,0,1-13.148,51.524c-.935,2.149-1.933,4.365-1.907,6.71.056,4.928,5.909,8.893,9.229,11.769,4.61,3.993,9.339,7.844,14.012,11.761,1.926,1.614,25.054,23.408,24.387,23.78,10.537-5.868,22.162-41.209,24.961-54.608C717.236,1164.673,718.878,1151.454,717.38,1138.412Z" transform="translate(-530.086 -1022.632)" fill="#f0f1f1"/>
      <g id="Group_705" data-name="Group 705" transform="translate(45.172 181.711)">
        <path id="Path_858" data-name="Path 858" d="M822.235,1387.55c-.908-8.605-5.464-10.409-13.542-10.774-25.477-1.15-50.419-3.659-76.008-2.455-7.39.348-15.668,1.316-20.3,7.086-3.345,4.169-3.912,9.849-4.3,15.18a878.8,878.8,0,0,0-1.2,106.581c7.351,2.4,14.852,2.912,26.039,3.55,5.229-20.99,15.8-96.533,15.838-96.532,12.735.334,22.265.785,35.1,1.753,9.32.7,19.183.611,27.345-3.942A21.073,21.073,0,0,0,822.235,1387.55Z" transform="translate(-705.815 -1370.951)" fill="#e76464"/>
        <path id="Path_859" data-name="Path 859" d="M722.594,1436.3,711.6,1542.707l1.477.086c5.229-20.989,15.8-96.533,15.838-96.532,12.735.333,22.265.785,35.1,1.752,9.32.7,19.182.612,27.345-3.942a22.014,22.014,0,0,0,8.767-8.955C777.53,1448.19,748.44,1433.977,722.594,1436.3Z" transform="translate(-685.966 -1407.027)" fill="#d24242" opacity="0.78"/>
        <path id="Path_860" data-name="Path 860" d="M675.421,1366.555c11.2,9.315,23.459,19.468,29.2,27.79,4.994-2.781,10.223-12.2,14.65-22.746A242.226,242.226,0,0,0,675.421,1366.555Z" transform="translate(-590.286 -1366.555)" fill="#f0f1f1"/>
      </g>
      <path id="Path_861" data-name="Path 861" d="M906.848,1348.364c-1.031.094-2.066.14-3.093.27A6.9,6.9,0,0,0,906.848,1348.364Z" transform="translate(-826.244 -1174.106)" fill="#d0ccc8"/>
      <g id="Group_708" data-name="Group 708" transform="translate(101.843)">
        <g id="Group_707" data-name="Group 707" transform="translate(0)">
          <path id="Path_862" data-name="Path 862" d="M827.892,990.111a37.274,37.274,0,0,0-3.71,11.947,20.585,20.585,0,0,0,2.16,12.183,131.493,131.493,0,0,1,9.117-23.837Z" transform="translate(-824.036 -962.632)" fill="#1d5dc4"/>
          <path id="Path_863" data-name="Path 863" d="M758.87,1051.938h0a11.923,11.923,0,0,0,8.455-14.588l-11.536-43.342-23.043,6.133,11.536,43.342A11.923,11.923,0,0,0,758.87,1051.938Z" transform="translate(-718.904 -964.932)" fill="#f6bd96"/>
          <path id="Path_864" data-name="Path 864" d="M771.153,1069.57a36.495,36.495,0,0,0,.523-10.5,40.284,40.284,0,0,0-1.255-8,18.98,18.98,0,0,0-5.455,2.292,46.875,46.875,0,0,1-5.8,2.39c-2.756,1-5.537,1.936-8.314,2.878l4.934,18.536a11.793,11.793,0,0,0,3.034,5.232C765.146,1081.293,769.715,1075.717,771.153,1069.57Z" transform="translate(-730.411 -998.615)" fill="#e7a579"/>
          <g id="Group_706" data-name="Group 706" transform="translate(1.257 15.989)">
            <path id="Path_865" data-name="Path 865" d="M770.51,1027.167c-23.391,12.505-36.76-44.994-13.076-58.387,26.876-15.2,35.268,13.626,26.931,37C781.407,1014.077,778.4,1022.946,770.51,1027.167Z" transform="translate(-744.904 -963.528)" fill="#f6bd96"/>
            <path id="Path_866" data-name="Path 866" d="M771.3,1001.539a12.817,12.817,0,0,0,2.137,5.079c-.426-.553,1.694-5.645,1.91-6.438,1.674-6.148,3.363-12.461,2.755-18.8a20.7,20.7,0,0,0-1.6-6.3c-5.794-13.268-23.421-16.367-35.361-9.381a36.46,36.46,0,0,0-6.975,5.238,15.891,15.891,0,0,0-4.768,8.21,9.649,9.649,0,0,0,2.63,8.849c6.985,6.349,15.641-1.545,21.377-5.329,2.818-1.858,6.883-3.283,9.284-.909,3.371,3.334,3.856,11.208,3.734,15.895-.011.417,1.967.534,2.044-.074.149-1.163-.034-2.119.97-2.516.289-.114,2.189-.976,1.8.041C770.393,997.309,770.865,999.211,771.3,1001.539Z" transform="translate(-729.214 -962.066)" fill="#1d5dc4"/>
          </g>
          <path id="Path_867" data-name="Path 867" d="M744.759,1041.761a3.121,3.121,0,0,1,1.491-1.555,1.8,1.8,0,0,1,2.025.365,2.563,2.563,0,0,1,.222,2.38,19.766,19.766,0,0,1-2.857,5.4Z" transform="translate(-704.776 -992.109)" fill="#f6bd96"/>
          <path id="Path_868" data-name="Path 868" d="M750.542,1058.536a3.472,3.472,0,0,0-.21.379c-.884,1.862.08,4.034,1.031,5.863,1.474,2.837,3.092,5.828,5.877,7.4,5.355,3.022,11.735-.2,16.048-3.584a31.693,31.693,0,0,0,10.026-13.865,31.371,31.371,0,0,0,.08-21.147,6.4,6.4,0,0,0-1.47,3.816c-.121,1.766.667,11.35-4.91,17.2-2.466,2.585-7.027,2.71-10.4,2.483-4.141-.278-8.33-1.615-12.48-.7A5.621,5.621,0,0,0,750.542,1058.536Z" transform="translate(-743.427 -988.292)" fill="#1d5dc4"/>
          <path id="Path_869" data-name="Path 869" d="M729.366,945.133a34.444,34.444,0,0,1-2.6-13.267c.015-3.02.678-6.445,3.247-8.031,2.711-1.674,6.35-.483,8.823,1.525,3.049,2.475,5.16,6.593,4.008,10.347-1.8,5.865-10.2,7.871-11.587,13.846Z" transform="translate(-691.893 -923.04)" fill="#1d5dc4"/>
          <path id="Path_870" data-name="Path 870" d="M804.828,1093.281a3.044,3.044,0,0,0-.826,3.566,1.75,1.75,0,0,0,1.131,1.024,1.645,1.645,0,0,0,1.33-.382,4.868,4.868,0,0,0,.92-1.086,9.185,9.185,0,0,0,2.019,1.535,3.1,3.1,0,0,0,2.46.237,1.9,1.9,0,0,0,1.243-1.989,2.579,2.579,0,0,0-.922-1.381C810.536,1093.345,806.864,1091.651,804.828,1093.281Z" transform="translate(-793.389 -1023.139)" fill="#f6bd96"/>
        </g>
        <path id="Path_871" data-name="Path 871" d="M820.252,1057.23c.607,2.8,1.192,5.842-.011,8.445a1.876,1.876,0,0,0-.288,1.45,1.5,1.5,0,0,0,1.029.717,8.389,8.389,0,0,0,2.01.34" transform="translate(-809.869 -1002.252)" fill="none" stroke="#e7a579" stroke-linecap="round" stroke-miterlimit="10" stroke-width="1.816"/>
        <path id="Path_872" data-name="Path 872" d="M798.589,1063.166a2.233,2.233,0,0,1,3.15-.345" transform="translate(-779.891 -1005.258)" fill="none" stroke="#39395c" stroke-linecap="round" stroke-miterlimit="10" stroke-width="1.816"/>
        <path id="Path_873" data-name="Path 873" d="M837.028,1064.233a2.168,2.168,0,0,1,2.423-.492" transform="translate(-833.351 -1005.99)" fill="none" stroke="#39395c" stroke-linecap="round" stroke-miterlimit="10" stroke-width="1.816"/>
        <path id="Path_874" data-name="Path 874" d="M792.207,1051.995a16.678,16.678,0,0,1,8.813.839" transform="translate(-776.557 -999.013)" fill="none" stroke="#39395c" stroke-linecap="round" stroke-miterlimit="10" stroke-width="2.287"/>
        <path id="Path_875" data-name="Path 875" d="M834.017,1053.93a15.553,15.553,0,0,1,4.364,0" transform="translate(-831.048 -1000.213)" fill="none" stroke="#39395c" stroke-linecap="round" stroke-miterlimit="10" stroke-width="2.287"/>
      </g>
      <g id="Group_709" data-name="Group 709" transform="translate(28.379 139.085)">
        <rect id="Rectangle_382" data-name="Rectangle 382" width="41.061" height="4.115" transform="translate(67.221 42.26)" fill="#808184"/>
        <path id="Path_876" data-name="Path 876" d="M835.2,1308.891h73.813l-10.531-41.184a6.9,6.9,0,0,0-6.685-5.191H827.141a2.949,2.949,0,0,0-2.857,3.68Z" transform="translate(-824.19 -1262.516)" fill="#a6a8ab"/>
        <path id="Path_877" data-name="Path 877" d="M830.091,1267.8l10.531,41.184h-4.585l-11.847-46.309A6.885,6.885,0,0,1,830.091,1267.8Z" transform="translate(-755.799 -1262.612)" fill="#808184"/>
        <ellipse id="Ellipse_27" data-name="Ellipse 27" cx="3.463" cy="3.463" rx="3.463" ry="3.463" transform="translate(35.609 25.886) rotate(-103.283)" fill="#fff" opacity="0.88"/>
      </g>
      <path id="Path_878" data-name="Path 878" d="M717.615,1227.348c-1.518,14.555-6.269,49.92-6.269,49.92-11.357-3.451-22.518-3.168-33.826-5.689l2.741,10.658c15.075,4.352,29.385,9.855,31.914,10.571,4.468,1.265,9.638,1.1,13.314-1.733,3.308-2.554,4.826-6.745,6.06-10.738,4.664-15.094,8.761-30.134,10.367-45.491C732.544,1232.853,728.374,1227.357,717.615,1227.348Z" transform="translate(-568.622 -1102.671)" fill="#f6bd96"/>
      <g id="Group_711" data-name="Group 711" transform="translate(141.007 82.579)">
        <path id="Path_879" data-name="Path 879" d="M706.948,1153.881c-.7-8.887-1.374-23.059-8.334-27.367-10.5-6.5-20.681,4.78-21.34,15.124-.747,11.72-2.827,22.9-4,34.1,11.94.01,22.8.176,33.2,2.389A132.159,132.159,0,0,0,706.948,1153.881Z" transform="translate(-673.279 -1124.597)" fill="#f0f1f1"/>
        <path id="Path_880" data-name="Path 880" d="M679.34,1159.513c-.616-7.8-1.212-19.679-6.061-25.375,5.134,15.726,3.494,32.742,2.259,48.994,1.115.191,2.227.391,3.33.626A132.2,132.2,0,0,0,679.34,1159.513Z" transform="translate(-645.671 -1130.229)" fill="#d0d2d3"/>
        <g id="Group_710" data-name="Group 710" transform="translate(0 22.495)">
          <path id="Path_881" data-name="Path 881" d="M747.761,1180.674c.039-.388.067-.781.1-1.171C747.829,1179.888,747.793,1180.277,747.761,1180.674Z" transform="translate(-744.356 -1179.503)" fill="#e5e6e7"/>
          <path id="Path_882" data-name="Path 882" d="M751.346,1182.36c-.95,9.339-2.459,18.409-3.4,27.474,1.168,0,2.288.017,3.435.023C750.995,1198.21,750.784,1189.381,751.346,1182.36Z" transform="translate(-747.941 -1181.189)" fill="#e5e6e7"/>
        </g>
      </g>
      <path id="Path_883" data-name="Path 883" d="M916.136,1666.481a2.072,2.072,0,0,0-.709.877c-.71,1.449-.085,3.368-.085,4.9v4.654s11.169,6.379,30.288,3.772c.408-.056,1.557-7.805,1.638-8.512.495-4.364-6.45-2.719-9.091-2.8-3.365-.1-6.727-.308-10.072-.685a44.036,44.036,0,0,1-9.032-1.753C917.982,1666.572,916.956,1665.96,916.136,1666.481Z" transform="translate(-871.331 -1361.77)" fill="#f17e7e"/>
      <path id="Path_884" data-name="Path 884" d="M993.743,1388.374a6.475,6.475,0,0,0,3,3.964,7.625,7.625,0,0,0,4.574.113q8.722-1.617,17.308-3.879-.307-3.862-.615-7.724a3.207,3.207,0,0,0-.416-1.6c-.719-1.039-2.277-.871-3.509-.588-6.994,1.609-15.276,2.367-21.87,5.137A31.5,31.5,0,0,0,993.743,1388.374Z" transform="translate(-974.263 -1191.863)" fill="#f17e7e"/>
    </g>
    <g id="Group_716" data-name="Group 716" transform="translate(116.207 158.732)">
      <g id="Group_713" data-name="Group 713" transform="translate(0 5.771)">
        <path id="Path_885" data-name="Path 885" d="M817.109,1331.661l-57.555,189.124a3.271,3.271,0,0,1-6.28-1.834l53.271-190.375a5.5,5.5,0,0,1,10.6,2.965C817.136,1331.573,817.119,1331.63,817.109,1331.661Z" transform="translate(-753.154 -1324.555)" fill="#262728"/>
      </g>
      <g id="Group_714" data-name="Group 714" transform="translate(105.821 23.435)">
        <path id="Path_886" data-name="Path 886" d="M591.328,1372.5l18.181,147.767a2.743,2.743,0,0,1-5.43.77l-23.647-146.991A5.5,5.5,0,1,1,591.3,1372.3C591.308,1372.359,591.32,1372.442,591.328,1372.5Z" transform="translate(-580.361 -1367.67)" fill="#262728"/>
      </g>
      <g id="Group_715" data-name="Group 715" transform="translate(38.569)">
        <path id="Path_887" data-name="Path 887" d="M666.164,1347.886l-91.882-26.626a5.5,5.5,0,1,1,3.063-10.572c.061.018.143.043.2.063l90.791,30.14a3.663,3.663,0,0,1-2.174,6.995Z" transform="translate(-570.308 -1310.47)" fill="#262728"/>
      </g>
    </g>
    <g id="Group_731" data-name="Group 731" transform="translate(255.92 136.541)">
      <g id="Group_720" data-name="Group 720" transform="translate(28.529 131.225)">
        <g id="Group_717" data-name="Group 717" transform="translate(33.718 18.29)">
          <path id="Path_888" data-name="Path 888" d="M409.235,1703.956a1.418,1.418,0,0,1-1.55-1.425l.946-79.9a1.415,1.415,0,0,1,2.829.034l-.946,79.9A1.414,1.414,0,0,1,409.235,1703.956Z" transform="translate(-407.685 -1621.238)" fill="#3a3942"/>
        </g>
        <g id="Group_718" data-name="Group 718" transform="translate(0 14.59)">
          <path id="Path_889" data-name="Path 889" d="M445.363,1712.07a1.415,1.415,0,0,1-1.387-1.7l19.808-97.034a1.414,1.414,0,1,1,2.772.567l-19.808,97.034A1.414,1.414,0,0,1,445.363,1712.07Z" transform="translate(-443.947 -1612.207)" fill="#3a3942"/>
        </g>
        <g id="Group_719" data-name="Group 719" transform="translate(59.261 14.59)">
          <path id="Path_890" data-name="Path 890" d="M320.526,1712.07a1.414,1.414,0,0,1-1.384-1.132L299.333,1613.9a1.414,1.414,0,1,1,2.772-.567l19.808,97.034a1.415,1.415,0,0,1-1.387,1.7Z" transform="translate(-299.305 -1612.206)" fill="#3a3942"/>
        </g>
        <ellipse id="Ellipse_28" data-name="Ellipse 28" cx="31.017" cy="11.287" rx="31.017" ry="11.287" transform="translate(8.166)" fill="#3a3942"/>
        <ellipse id="Ellipse_29" data-name="Ellipse 29" cx="28.136" cy="7.322" rx="28.136" ry="7.322" transform="translate(12.864 49.878)" fill="none" stroke="#3a3942" stroke-miterlimit="10" stroke-width="5.96"/>
      </g>
      <g id="Group_728" data-name="Group 728" transform="translate(0)">
        <g id="Group_727" data-name="Group 727">
          <g id="Group_721" data-name="Group 721" transform="translate(21.863)">
            <path id="Path_891" data-name="Path 891" d="M432.619,1323.829a.624.624,0,0,0-.283-.439.928.928,0,0,0-.325-.184,4.443,4.443,0,0,0-.849-.141.091.091,0,0,0-.085,0,7.664,7.664,0,0,0-4.386,1.174,18.7,18.7,0,0,0-6.31,6.409c-.184-1.613-.4-3.226-.651-4.839-.255-1.783-.566-3.565-.906-5.333-.042-.283-.1-.552-.155-.835-.213-1.089-.439-2.179-.665-3.268q.552-.425,1.061-.849c2.405-1.967,4.471-3.99,5.688-7.187a16.3,16.3,0,0,0,.538-1.74c.41-1.74.41-3.693-1.825-3.565-2.5.156-4.358,2.844-5.617,4.782l-.085.127c-.424.679-.849,1.429-1.231,2.193-.58-2.164-1.2-4.315-1.882-6.466-.509-1.683-1.075-3.381-1.655-5.051-.057-.2-.127-.382-.2-.58a.55.55,0,0,1,.142-.113c.665-.566,1.443-.976,2.066-1.6a8,8,0,0,0,1.344-1.726,8.385,8.385,0,0,0,.552-.99,19.612,19.612,0,0,0,1.514-5.7,13.2,13.2,0,0,0,.042-3.778c-.226-1.33-.919-2.391-2.32-2.235-2.716.325-3.777,4.443-4.5,6.607a38.614,38.614,0,0,0-1,4.145,79.237,79.237,0,0,0-7.838-14.035c2.377-1.415,3.48-5.306,3.07-8.093a10.3,10.3,0,0,0-1-3.311,16.267,16.267,0,0,0-2.023-2.971,21.131,21.131,0,0,0-2.773-2.49,21.348,21.348,0,0,0-3.169-1.9.669.669,0,0,0-1.019.694c.792,4.3,1.3,8.616,2.5,12.422a53.871,53.871,0,0,0-5.886-5.758,18.88,18.88,0,0,0-6.239-8.361,13.144,13.144,0,0,0-10.625-2.193.656.656,0,0,0-.41.905,9.731,9.731,0,0,0,1.7,2.6,9.985,9.985,0,0,0,1.047,1,11.921,11.921,0,0,0,1.1.976c1.542,1.146,3.212,2.221,4.754,3.155a18.309,18.309,0,0,0,2.759,1.457c.919.481,1.924.863,2.9,1.316.892.453,1.811.821,2.7,1.259a10.835,10.835,0,0,1,2.476,1.754,53.831,53.831,0,0,1,4.159,4.627,13.218,13.218,0,0,0-3.523-1.528,10.6,10.6,0,0,0-3.679-.481,8.614,8.614,0,0,0-6.353,3.141.589.589,0,0,0,.071.948,33.988,33.988,0,0,0,7.428,2.391c2.971.523,6.1.693,8.588-1.089l.141.184a.384.384,0,0,0,.113.1,80.234,80.234,0,0,1,8.277,15.1,18.457,18.457,0,0,0-3.014-2.292,18.742,18.742,0,0,0-4.98-2.448,14.405,14.405,0,0,0-5.461-.665.757.757,0,0,0-.707.849,6.173,6.173,0,0,0,2.335,3.961,5.964,5.964,0,0,0,.58.467,17.547,17.547,0,0,0,3.735,2.009,10.061,10.061,0,0,0,1.754.523c2.391.552,5.094.679,6.989,2.306,3.014,2.66,2.363,8.107,4.061,11.559.028.071.071.127.1.2-.043-.07-.085-.155-.127-.226a20.754,20.754,0,0,0-9.592-8.97,10.668,10.668,0,0,0-3.155-.834.8.8,0,0,0-.835.552c-.467,3.537,1.514,6.409,4.3,8.871.311.269.622.523.948.778a36.675,36.675,0,0,0,3.311,2.334c.439.269.863.537,1.3.806,1.33.792,2.632,1.5,3.82,2.122a1.485,1.485,0,0,0,.212.113c.226.113.467.227.679.34a.6.6,0,0,0,.212.057.527.527,0,0,0,.212,0,.284.284,0,0,0,.113.057q.382,1.8.722,3.608c.014.085.028.17.042.24.368,1.924.693,3.834.962,5.758.184,1.174.34,2.334.467,3.509.028.141.043.3.057.438-.085-.127-.156-.241-.24-.368-.2-.283-.4-.566-.608-.849-.311-.424-.651-.849-1.019-1.259a16.853,16.853,0,0,0-3.3-2.9,11.338,11.338,0,0,0-3.622-1.67h-.014a8.027,8.027,0,0,0-2.716-.254.661.661,0,0,0-.566.594.438.438,0,0,0,.057.354c.453.708.934,1.443,1.457,2.193a24.007,24.007,0,0,0,7.3,7.314,9.725,9.725,0,0,0,1.217.608.254.254,0,0,0,.127.057,6.148,6.148,0,0,0,.891.354.053.053,0,0,0,.043.014,5.585,5.585,0,0,0,.637.2,8.136,8.136,0,0,0,.835.212,7.4,7.4,0,0,1,.311,2.589v.014c.043.821.071,1.712.085,2.532.043,1.259.043,2.32.057,2.575v.212a3.919,3.919,0,0,1,.014.41c.014.212.014.439.014.651a3.4,3.4,0,0,1,.014.382c.028,1,.043,1.995.043,3,0,.566,0,1.146-.014,1.726.014.622,0,1.259-.014,1.9-.014.566-.028,1.132-.042,1.684a4.331,4.331,0,0,1-.014.438c-.028,1.075-.07,2.137-.141,3.183a56.273,56.273,0,0,1-.92,7.541v.014c-.1.467-.2.934-.325,1.4a4.025,4.025,0,0,1-.085.4c-.085.354-.184.708-.255,1.075.184,0,.368.014.552.014h.311c.481.014.976.028,1.471.014v-.028c.113-3.48.411-6.961.623-10.456.028-.41.057-.821.07-1.245.043-.651.071-1.3.1-1.952s.057-1.344.071-2.009c0-.17.014-.34.014-.509v-.141c.014-.368-.028-1.7-.085-3.452-.014-.467-.028-.948-.043-1.457v-.283c-.028-.75-.057-1.528-.085-2.306,0-.17-.014-.339-.028-.523-.028-1.047-.071-2.108-.113-3.084-.028-1.033-.071-2-.1-2.787-.07-1.33-.113-2.193-.141-2.193.34-.071.679-.141,1-.24a13.96,13.96,0,0,0,3.31-1.358,16.62,16.62,0,0,0,1.769-1.1c.226-.156.467-.34.693-.509a9.984,9.984,0,0,0,1.273-1.16,6.139,6.139,0,0,0,.481-.552,36.779,36.779,0,0,0,3.24-5.051A.738.738,0,0,0,432.619,1323.829Z" transform="translate(-375.162 -1256.305)" fill="#00b580"/>
          </g>
          <g id="Group_722" data-name="Group 722" transform="translate(64.583 32.514)">
            <path id="Path_892" data-name="Path 892" d="M310.937,1345.377c-2.08-2.731-6.536-3.382-10.385-3.466a23.384,23.384,0,0,0-6.48.948c-1.967.495-3.693,1.287-5.744,1.627a54.764,54.764,0,0,0-5.985,1.386c4.1-2.66,8.7-5.829,8.277-9.776-.043-.354-.566-.523-1.019-.382a23.056,23.056,0,0,0-8.4,4.612c-2.434,2.179-3.707,4.8-2.829,6.862l-.213.1c-.057.014-.085.057-.127.071a38.568,38.568,0,0,0-7.5,4.089,41.808,41.808,0,0,0-6.4,5.631c.58-1.2,1.047-2.518,1.429-3.339a59.929,59.929,0,0,0,3.791-10.087c.1-.424-.325-.58-.835-.411a10.742,10.742,0,0,0-5.15,3.749,14.012,14.012,0,0,0-2.434,5.15c-.665,2.886.552,5.518-.212,8.333a15.74,15.74,0,0,1-3.07,5.164,24.814,24.814,0,0,0-2.872,4.273,8.74,8.74,0,0,0-.4.934c.113-.311.212-.609.311-.934a46.229,46.229,0,0,0,1.67-7.258,23.127,23.127,0,0,0,.155-7.47.461.461,0,0,0-.75-.241,13.3,13.3,0,0,0-5.532,9.777,22.771,22.771,0,0,0,.07,6.366,29.982,29.982,0,0,0,.807,3.848.8.8,0,0,0,.057.2c.057.212.127.425.17.623a.52.52,0,0,0,.212.269c.014.028.014.071.029.1-.4.806-.778,1.613-1.132,2.433-.439.948-.863,1.925-1.259,2.886q-1.4,3.311-2.546,6.72c-.028.1-.071.184-.1.283,0-.071-.014-.142-.014-.212a34.456,34.456,0,0,0-.339-3.58,20.876,20.876,0,0,0-.4-2.122c-.071-.269-.142-.538-.212-.792l-.212-.721a9.157,9.157,0,0,0-1.316-2.716,4.954,4.954,0,0,0-1.358-1.358.277.277,0,0,0-.212-.043.609.609,0,0,0-.184.071.874.874,0,0,0-.438.637c-.127.821-.227,1.683-.283,2.547-.043.452-.057.906-.071,1.358-.014.722-.014,1.457.028,2.165a.064.064,0,0,0,0,.071,22.044,22.044,0,0,0,.311,2.617,13.083,13.083,0,0,0,1.16,3.665,2.341,2.341,0,0,0,.2.368,1.282,1.282,0,0,0,.127.24c.057.1.113.2.17.283a7.072,7.072,0,0,0,1.231,1.429.617.617,0,0,0,.1.085,2.435,2.435,0,0,0,.368.3c-.113.382-.226.778-.325,1.16-.127.481-.269.976-.382,1.457-.212.778-.4,1.556-.58,2.349q-.213.933-.424,1.91c-.028.141-.057.3-.085.453-.227,1.061-.439,2.122-.608,3.2-.227,1.273-.424,2.547-.594,3.834-.155,1.132-.283,2.264-.4,3.41-.1,1.047-.184,2.094-.254,3.155h.2c.184,0,.368.014.552.014h.311a96.609,96.609,0,0,1,1.259-10.455c.184-.991.368-1.967.566-2.957.014-.07.042-.156.057-.24.141-.679.283-1.344.453-2.023.014-.1.042-.184.057-.283.41-1.754.863-3.48,1.372-5.206a9.724,9.724,0,0,0,3.2-.043,17.125,17.125,0,0,0,2.518-.594,10.673,10.673,0,0,0,1.429-.566c1.514-.75,2.816-1.811,4.344-2.731a.664.664,0,0,0,.127-1.047,5.3,5.3,0,0,0-4.938-1.189,10.208,10.208,0,0,0-1.655.439,10.508,10.508,0,0,0-1.684.75,11.6,11.6,0,0,0-2.264,1.542c.255-.792.538-1.57.821-2.349.608-1.726,1.287-3.438,2.009-5.122.651-1.6,1.372-3.169,2.136-4.712.071-.17.156-.354.24-.523.085-.014.156-.014.24-.028a24.2,24.2,0,0,0,5.8-1.019,13.931,13.931,0,0,0,2.151-.934,7.982,7.982,0,0,0,2.674-2.009,1.346,1.346,0,0,0-.2-1.825c-1.288-1.429-3.834-.948-5.674-.368-.453.141-.934.3-1.415.5-.24.1-.481.2-.722.311.142-.255.3-.495.439-.75a80,80,0,0,1,6.225-9.239c.722.127,1.344.51,2.052.651a9.39,9.39,0,0,0,2.6.1,41.545,41.545,0,0,0,4.443-.75,17.047,17.047,0,0,0,2.589-.665c.835-.339,1.429-.863,1.146-1.881a3.118,3.118,0,0,0-2.278-1.938,10.178,10.178,0,0,0-3.325-.3,14.084,14.084,0,0,0-3.579.637,37.858,37.858,0,0,1,5.843-4.9,36.783,36.783,0,0,1,6.706-3.58,5.147,5.147,0,0,0,2.264,2.462,13.115,13.115,0,0,0,3.24,1.415c3.3.877,6.919.014,10.314-1.075a.513.513,0,0,0,.184-.92,19.963,19.963,0,0,0-9.55-3.962,63.921,63.921,0,0,1,7.668-1.344c5.9,1.74,11.87,3.353,18.194,1.16A.481.481,0,0,0,310.937,1345.377Z" transform="translate(-241.503 -1335.663)" fill="#0a8e6d"/>
          </g>
          <g id="Group_723" data-name="Group 723" transform="translate(0 28.919)">
            <path id="Path_893" data-name="Path 893" d="M463.746,1370.6c-1.754-.34-3.4.778-4.7,2.519a14.494,14.494,0,0,0-1.867,3.424,16.8,16.8,0,0,0-.651,2.023l-.014.014c-.014.071-.028.127-.043.2-.283-.934-.566-1.867-.863-2.8-.043-.127-.071-.24-.114-.368-.948-2.985-1.98-5.928-3.126-8.828-.17-.481-.354-.962-.552-1.429.2-.283.4-.58.608-.863v-.014a13.406,13.406,0,0,0,2.532-5.928,7.35,7.35,0,0,0,.1-1,3.032,3.032,0,0,0,.028-.368c.085-1.359-.043-4.047-1.3-4.768-.014-.014-.014-.028-.028-.028a1.354,1.354,0,0,0-.679-.184,2.416,2.416,0,0,0-.438.043c-1.443.311-2.151,2.023-2.6,3.678q-.191.743-.34,1.4c-.085.382-.17.764-.24,1.174-.071.368-.127.736-.184,1.132a67.354,67.354,0,0,0-3.848-6.848c-.835-1.288-1.7-2.519-2.632-3.721.283-.679.792-1.2,1.061-1.91a7.059,7.059,0,0,0,.4-2.731c-.014-.325-.042-.665-.085-1a18.149,18.149,0,0,0-1.189-4.259c-.071-.184-.141-.382-.241-.608a11.4,11.4,0,0,0-1.514-2.66c-.849-1.075-1.938-1.839-3-1.358a1.749,1.749,0,0,0-.976,1.486,5.763,5.763,0,0,0-.014,1.4,29.846,29.846,0,0,0,.764,3.65c.3,1.16.637,2.448,1.047,3.693a37.956,37.956,0,0,0-13-8.758,4.078,4.078,0,0,0-.2-3.4,8.984,8.984,0,0,0-2.617-3.212,13.006,13.006,0,0,0-6.523-2.405,20.847,20.847,0,0,0-7.017.537c-.594.142-.693.665-.283.905,3.169,1.953,6.494,4.047,9.862,5.773a41.707,41.707,0,0,0-8.079-.382,24.957,24.957,0,0,0-9.621-1.5,18.8,18.8,0,0,0-9.409,2.928.469.469,0,0,0-.085.764c2.787,2.136,7.357,1.641,11.135,1.217a49.062,49.062,0,0,0,6.31-1.373,19.419,19.419,0,0,1,5.815-.976,37.437,37.437,0,0,1,6.013.792,12.232,12.232,0,0,0-6.48,2.193,5.918,5.918,0,0,0-2.618,4.937.579.579,0,0,0,.722.51,47.593,47.593,0,0,0,6.805-2.207c2.32-.976,4.669-2.122,5.475-4.245l.212.085c.057.014.1.014.141.028a36.987,36.987,0,0,1,13.6,9.493,16.734,16.734,0,0,0-3.24-1.3c-3.283-1.061-6.551-1.019-9.126.4a.54.54,0,0,0-.127.835,7.136,7.136,0,0,0,3.353,2.264,19.126,19.126,0,0,0,4.2.92c2.419.325,5.136-.637,7.654.764a10.486,10.486,0,0,1,3.735,4.641,40.8,40.8,0,0,0,2.858,5.5,19.507,19.507,0,0,0-6.069-5.49,10.568,10.568,0,0,0-6.494-1.613.5.5,0,0,0-.438.608c.778,2.971,2.971,5.008,5.7,6.89a65.251,65.251,0,0,0,7.527,4.23h.014c.34.156.665.311.991.467a.437.437,0,0,0,.184.085c.2.085.4.184.58.269a.484.484,0,0,0,.339.028.7.7,0,0,0,.1.043c1.217,3.056,2.32,6.168,3.325,9.309.382,1.146.75,2.306,1.1,3.467a20.533,20.533,0,0,0-1.868-2.151,11.585,11.585,0,0,0-1.132-1.076c-.212-.2-.424-.367-.637-.537a10.907,10.907,0,0,0-4.344-2.264,5.228,5.228,0,0,0-1.033-.113,3.76,3.76,0,0,0-1.132.085c-.325.071-.424.651-.184.962.141.2.3.4.453.594a46.884,46.884,0,0,0,3.622,4.358c.014.014.028.014.028.029a21.913,21.913,0,0,0,2.886,2.546,9.624,9.624,0,0,0,4.6,1.938c.17.637.34,1.288.509,1.924.071.226.127.453.184.679.311,1.245.622,2.49.905,3.749.113.453.212.891.311,1.344.127.552.255,1.1.368,1.669.17.764.34,1.542.481,2.32a.661.661,0,0,1,.043.24q.19.849.339,1.7c.085.411.17.821.227,1.245.566,3,1.033,6.027,1.415,9.055.071.481.141.962.2,1.457a3.044,3.044,0,0,0,.367-.014c.241.014.467,0,.693,0-.057-.438-.1-.863-.17-1.287-.085-.708-.17-1.415-.283-2.122-.325-2.377-.707-4.754-1.146-7.1-.184-1.061-.382-2.136-.608-3.183-.141-.779-.3-1.528-.467-2.292-.014-.085-.028-.155-.043-.226-.156-.721-.311-1.429-.467-2.136q-.213-.892-.424-1.783c-.184-.764-.368-1.514-.552-2.264-.057-.226-.113-.438-.184-.665a.947.947,0,0,0-.071-.269,1.9,1.9,0,0,0-.1-.382c-.2-.821-.424-1.641-.651-2.462a6.783,6.783,0,0,0,.905-.453,7.5,7.5,0,0,0,1.189-.835,10.533,10.533,0,0,0,1.585-1.585,9.248,9.248,0,0,0,.735-.934,9.633,9.633,0,0,0,1.132-2.137c.24-.622.438-1.259.622-1.924.241-.892.453-1.825.693-2.773A.9.9,0,0,0,463.746,1370.6Z" transform="translate(-391.911 -1326.889)" fill="#0a8e6d"/>
          </g>
          <g id="Group_724" data-name="Group 724" transform="translate(26.332 60.672)">
            <path id="Path_894" data-name="Path 894" d="M442.877,1430.344a1.558,1.558,0,0,0-.354.07,4.73,4.73,0,0,0-1.259.424,1.083,1.083,0,0,0-.227.1c-.028.014-.042.028-.057.028a8.175,8.175,0,0,0-.877.537,5.274,5.274,0,0,0-.736.552,8.384,8.384,0,0,0-1.047.962,14.969,14.969,0,0,0-2.815,3.948,72.257,72.257,0,0,0-3.226-6.862c.622-.679,1.216-1.358,1.74-2.037a13.393,13.393,0,0,0,.792-1.1,9.2,9.2,0,0,0,1.273-2.9,6.6,6.6,0,0,0,.17-.891,2.991,2.991,0,0,0,.028-.792c-.028-.693-.3-1.245-1.132-1.076-.043.014-.085.029-.142.043a2.873,2.873,0,0,0-.368.127,6.378,6.378,0,0,0-2.731,2.9l-.014.014c-.241.424-.438.835-.608,1.2-.226.495-.467,1.047-.679,1.6a65.936,65.936,0,0,0-3.707-5.518c.4-.537.934-1.019,1.33-1.57.014-.028.028-.042.043-.071a6.771,6.771,0,0,0,.863-1.641,3,3,0,0,0,.127-.325,11.574,11.574,0,0,0,.5-3.665c0-.17,0-.4-.014-.651-.085-1.075-.453-2.6-1.514-2.547a1.619,1.619,0,0,0-.651.2c-1.712.976-1.953,3.806-2.235,5.22-.142.863-.269,1.783-.326,2.66a25.774,25.774,0,0,0-6.253-5.631,6.238,6.238,0,0,0,.227-6.069c-1.4-2.66-4.712-3.48-7.216-3.1a.581.581,0,0,0-.354.835,53.488,53.488,0,0,0,3.961,6.706,26.3,26.3,0,0,0-4.16-1.174c-2.645-3-6.466-4.9-10-2.745a.631.631,0,0,0-.156.708c1.075,2.773,3.48,3.467,5.447,3.877a10.337,10.337,0,0,0,3.424-.113,7.82,7.82,0,0,1,3.183-.184,23.569,23.569,0,0,1,3,1.075,6.689,6.689,0,0,0-3.962,1.769,8.411,8.411,0,0,0-2.391,4.527c-.07.354.057.608.227.566a12.118,12.118,0,0,0,3.721-1.754,13.166,13.166,0,0,0,4.3-4.1l.113.057a.105.105,0,0,0,.071.014,25.849,25.849,0,0,1,6.466,5.971,10.365,10.365,0,0,0-2.151-.425,8.968,8.968,0,0,0-6.565,1.7.834.834,0,0,0-.382.693c.241,1.471,2.122,1.4,4.287,1.216,1.811-.184,4.273-1.372,6.027-.919,2.32.608,2.363,3.834,3.933,5.164a10.415,10.415,0,0,0-9.592-1.754c-.241.085-.509.34-.509.538-.028,2.037,1.514,2.915,3.622,3.424a36.293,36.293,0,0,0,7.017.651.59.59,0,0,0,.156.014h.509a.659.659,0,0,0,.3-.071h.085a65.757,65.757,0,0,1,3.056,6.466,9.831,9.831,0,0,0-8.9-.934c-.3.127-.439.481-.255.594,2.335,1.457,5.73,3.254,10.031,2.589.2.538.382,1.061.551,1.6.354,1,.665,2.009.948,3.028a68.649,68.649,0,0,1,2.165,10.13c.1,0,.2.014.3.014h.226c.184,0,.368.014.552.014q-.085-.742-.212-1.486c-.085-.566-.184-1.132-.283-1.684-.184-1.089-.41-2.179-.665-3.254-.283-1.287-.622-2.561-.99-3.834-.283-1.018-.608-2.037-.948-3.042-.24-.708-.481-1.429-.75-2.137a12.807,12.807,0,0,0,2.221-1.287,11.2,11.2,0,0,0,1.033-.792c.41-.34.806-.708,1.188-1.089a4.127,4.127,0,0,0,.34-.382,3.85,3.85,0,0,0,.326-.382,8.586,8.586,0,0,0,.509-.736,11.471,11.471,0,0,0,.665-1.216,1.307,1.307,0,0,1,.1-.2c.269-.594.509-1.2.792-1.825C443.556,1430.528,443.273,1430.3,442.877,1430.344Z" transform="translate(-401.024 -1404.392)" fill="#0a8e6d"/>
          </g>
          <g id="Group_725" data-name="Group 725" transform="translate(68.92 54.696)">
            <path id="Path_895" data-name="Path 895" d="M317.154,1397.314c-1.854-2.49-5.136-2.589-7.881-2.278a13.475,13.475,0,0,0-4.442,1.528,23.44,23.44,0,0,1-3.848,1.953c-1.386.424-2.773.891-4.132,1.415,2.618-2.448,5.306-5.9,4.329-9.748a.55.55,0,0,0-.792-.311,15.38,15.38,0,0,0-5.263,4.669c-1.4,2.08-1.995,4.442-1.032,6.508l-.156.071a.3.3,0,0,0-.085.057,45.71,45.71,0,0,0-10.3,6.352,19.574,19.574,0,0,0,1.047-2.547,24.578,24.578,0,0,0,2.193-8.333.509.509,0,0,0-.679-.495,6,6,0,0,0-3.65,2.391,9.189,9.189,0,0,0-1.726,3.919c-.509,2.278.608,4.881-.043,7.018a7.514,7.514,0,0,1-2.688,3.382c-1.1,1.061-2.391,2.037-2.915,3.325a24.068,24.068,0,0,0,2.009-11.856,2.326,2.326,0,0,0-.057-.439.509.509,0,0,0-.637-.4,6.759,6.759,0,0,0-1.981,1.033,8.743,8.743,0,0,0-2.151,2.745,10.483,10.483,0,0,0-.891,2.9,15.1,15.1,0,0,0-.085,4.443,19.927,19.927,0,0,0,.806,3.975.782.782,0,0,0,.057.17c.057.17.1.354.156.523a.518.518,0,0,0,.2.255.207.207,0,0,0,.028.1,85.441,85.441,0,0,0-4.98,8.121,19.153,19.153,0,0,0-.467-4.5c-.057-.269-.127-.524-.212-.792a9.459,9.459,0,0,0-1.91-3.735,5.947,5.947,0,0,0-.679-.651.532.532,0,0,0-.792.312c-.085.354-.156.721-.212,1.089a18.01,18.01,0,0,0-.141,4.938c.014.184.028.354.057.524a9.344,9.344,0,0,0,2.872,5.645c-.255.509-.524,1.033-.764,1.557q-.764,1.549-1.486,3.141c-1.061,2.292-2.065,4.626-3.028,6.961-.269.651-.538,1.316-.806,1.967-.2.481-.382.976-.58,1.457h.778a3.045,3.045,0,0,0,.368-.014c.17-.424.354-.863.524-1.287,1.217-3.028,2.5-6.042,3.877-9.012.481-1.047.976-2.08,1.486-3.113.241-.509.5-1.019.75-1.528a14.907,14.907,0,0,0,5.461.99,22,22,0,0,0,5.546-1.033c.382-.085.411-.453.156-.75-2.037-2.419-6.9-2.745-9.96-1.471a82.579,82.579,0,0,1,5.122-8.362c2.589.481,4.952,1,7.414.58,1.16-.24,3.551-.5,2.122-2.292-1.146-1.486-3.381-1.825-5.037-1.868a10.928,10.928,0,0,0-1.91.085c.891-1.118,1.853-2.193,2.8-3.254,1.018-1.018,1.953-2.108,3.042-3.028.622.311,1.16.792,1.768,1.118a9.453,9.453,0,0,0,2.193.778,25.509,25.509,0,0,0,3.721.51c1.061.014,3.607.509,2.985-1.486-.538-1.91-3.155-2.829-4.726-3.169a11.107,11.107,0,0,0-2.929-.283,42.9,42.9,0,0,1,9.3-5.63c.778,1.952,3.127,3.41,4.726,3.975,2.632.92,5.164-.057,7.385-1.4a.581.581,0,0,0-.028-.906,16.4,16.4,0,0,0-7.6-3.452c1.754-.608,3.523-1.146,5.32-1.613,4.542,1.3,8.956,2.165,13.03-.693A.578.578,0,0,0,317.154,1397.314Z" transform="translate(-259.415 -1389.806)" fill="#0b7c5c"/>
          </g>
          <g id="Group_726" data-name="Group 726" transform="translate(55.378 5.102)">
            <path id="Path_896" data-name="Path 896" d="M378.185,1283.584c4.542-4.032,8.772-8.093,10.427-14.2a.5.5,0,0,0-.453-.623c-3.367.028-6.466,3.353-8.474,6.551a21.516,21.516,0,0,0-2.49,5.885,46.876,46.876,0,0,1-1.585,5.574c-.75,1.825-1.471,3.664-2.136,5.518a23.4,23.4,0,0,0-.5-7c-.509-2.136-1.514-3.933-3.311-4.768-.325-.156-.721.17-.835.622a22.593,22.593,0,0,0-.524,8.871c.439,2.957,1.712,5.419,3.863,6.084l-.071.212a.387.387,0,0,0-.014.127,130.106,130.106,0,0,0-3.877,15.846c-.184-1.287-.538-2.561-.735-3.4a28.507,28.507,0,0,0-2.434-6.933,15.7,15.7,0,0,0-1.4-2.235c-.241-.311-.651-.17-.863.212a9.316,9.316,0,0,0-1.146,5.348c.014.24.028.467.057.693a15.257,15.257,0,0,0,1.118,4.032,8.734,8.734,0,0,0,.538,1.019c.934,1.5,2.264,2.7,3.113,4.273a6.322,6.322,0,0,1,.608,1.457c.934,3.4-1.2,7.781-.934,11.389.014.1.014.2.028.3-.014-.184-.042-.354-.07-.538a33,33,0,0,0-.948-4.669,28.057,28.057,0,0,0-1.981-5.348,14,14,0,0,0-2.4-3.509.464.464,0,0,0-.75.141,10.728,10.728,0,0,0-1.189,6.282,16.577,16.577,0,0,0,.721,3.381c.071.227.141.453.227.679a24.084,24.084,0,0,0,2.745,5.305v.014a32.982,32.982,0,0,0,2.377,3.169,1.591,1.591,0,0,0,.127.156c.141.156.283.325.424.467a.386.386,0,0,0,.283.155.477.477,0,0,0,.085.085c-.014.382-.043.778-.057,1.16-.085,1.967-.141,3.948-.17,5.928,0,.1-.014.212-.014.311-.028,1.825-.028,3.651-.028,5.475a26,26,0,0,0-1.981-3.975,14.246,14.246,0,0,0-1.245-1.825,6.271,6.271,0,0,0-.495-.58,7.228,7.228,0,0,0-3.9-2.547c-.17-.028-.326.1-.439.283a.918.918,0,0,0-.085.58,33.03,33.03,0,0,0,1.825,5.291.053.053,0,0,0,.014.043,19.057,19.057,0,0,0,2.094,3.65,9.062,9.062,0,0,0,4.258,3.4c.014.523.014,1.032.043,1.556q.042,2.25.127,4.5c.028,1.089.07,2.179.127,3.254.042,1.047.085,2.108.141,3.155.057,1.3.127,2.589.2,3.891l.382,6.409h.226c.184,0,.368.014.552.014h.283q-.085-1.443-.17-2.886v-.014c-.085-1.231-.156-2.448-.212-3.678-.07-1.273-.141-2.547-.2-3.806-.057-1.061-.1-2.108-.141-3.155-.057-1.33-.113-2.646-.156-3.976-.043-1.556-.085-3.113-.113-4.669-.014-.382-.028-.75-.028-1.132.2-.028.4-.057.58-.1a5.928,5.928,0,0,0,.863-.227c.042-.014.1-.028.156-.042a2.95,2.95,0,0,0,.311-.127,8.782,8.782,0,0,0,1.245-.538,14.014,14.014,0,0,0,1.811-1.089.313.313,0,0,0,.113-.071c.057-.043.127-.085.184-.127a9.176,9.176,0,0,0,1.443-1.316,42.748,42.748,0,0,0,2.9-3.806.708.708,0,0,0-.227-1.061,2.928,2.928,0,0,0-.665-.254,3.493,3.493,0,0,0-1.09-.156,4.5,4.5,0,0,0-1.132.141,8.143,8.143,0,0,0-2.264.948,11.284,11.284,0,0,0-1.288.92,12.067,12.067,0,0,0-1.174,1.075v.014a10.48,10.48,0,0,0-1.486,1.825,3.708,3.708,0,0,0-.325.5v-3.1l.014-.014a.064.064,0,0,1,0-.071c0-.707,0-1.429.014-2.151,0-.453.014-.906.028-1.372.014-1.344.057-2.688.113-4.032.028-.863.071-1.74.113-2.618a1.584,1.584,0,0,1,.212-.113c.453-.255.892-.5,1.33-.736a14.846,14.846,0,0,0,5.093-4.258c.905-1.217,2.717-3.735.566-4.556-1.769-.679-3.877.863-5.263,2.15a12.952,12.952,0,0,0-1.3,1.33c-.1.085-.17.183-.254.269.028-.368.057-.736.1-1.1.1-1.372.24-2.745.4-4.117.227-2.136.51-4.259.835-6.381.693-.24,1.415-.227,2.094-.453a8.288,8.288,0,0,0,2.292-1.259,11.173,11.173,0,0,0,1-.835c.821-.736,1.57-1.584,2.335-2.419a11.924,11.924,0,0,0,1.768-2.334c.5-.906.651-1.839-.212-2.49-1.655-1.245-4.4.722-5.829,1.938a19.906,19.906,0,0,0-2.561,2.561,132.149,132.149,0,0,1,3.594-14.4c1.952.778,4.81-.609,6.452-1.995,2.716-2.306,4.075-5.985,4.839-9.409a.505.505,0,0,0-.679-.622,22.041,22.041,0,0,0-8.46,5.8c.453-1.189.948-2.348,1.415-3.523Z" transform="translate(-357.371 -1268.757)" fill="#0b7c5c"/>
          </g>
        </g>
      </g>
      <g id="Group_730" data-name="Group 730" transform="translate(44.24 103.236)">
        <g id="Group_729" data-name="Group 729" transform="translate(2.059)">
          <path id="Path_897" data-name="Path 897" d="M388.652,1548.8a59.252,59.252,0,0,1-30.983,0c-1.842-13.519-3.745-27.03-5.806-40.518h42.594C392.4,1521.768,390.495,1535.279,388.652,1548.8Z" transform="translate(-351.864 -1508.28)" fill="#bbbdbf"/>
        </g>
        <path id="Path_898" data-name="Path 898" d="M394.458,1508.28H351.864l1.914,12.482h38.765Z" transform="translate(-349.805 -1508.28)" fill="#929497"/>
        <path id="Path_899" data-name="Path 899" d="M393.55,1508.28H346.839l1.488,9.7h43.736Z" transform="translate(-346.839 -1508.28)" fill="#d0d2d3"/>
        <line id="Line_44" data-name="Line 44" x1="0.81" y2="5.913" transform="translate(43.533 1.478)" fill="none" stroke="#fff" stroke-linecap="round" stroke-miterlimit="10" stroke-width="1.884" opacity="0.64"/>
        <line id="Line_45" data-name="Line 45" x1="2.486" y2="21.193" transform="translate(37.495 14.14)" fill="none" stroke="#fff" stroke-linecap="round" stroke-miterlimit="10" stroke-width="1.884" opacity="0.47"/>
      </g>
    </g>
  </g>
</svg>
