<svg xmlns="http://www.w3.org/2000/svg" width="30" height="29.996" viewBox="0 0 30 29.996">
  <path id="Subtraction_1" data-name="Subtraction 1" d="M15,30A15,15,0,0,1,4.393,4.393,15,15,0,1,1,25.606,25.6,14.9,14.9,0,0,1,15,30ZM15,6.6A8.41,8.41,0,0,0,6.6,15a8.306,8.306,0,0,0,2.524,5.984A8.481,8.481,0,0,0,14.99,23.4a8.351,8.351,0,0,0,3.055-.584l.041-.014a8.2,8.2,0,0,0,4.436-3.979A8.743,8.743,0,0,0,20.584,8.642,8.208,8.208,0,0,0,15,6.6Zm-.013,15.75h0a7.336,7.336,0,0,1-4.692-1.709,10.742,10.742,0,0,1,5.822-4.806,17.723,17.723,0,0,1,1.219,6.128A7.357,7.357,0,0,1,14.985,22.348Zm3.382-.825h0a18.893,18.893,0,0,0-1.2-5.926,8.238,8.238,0,0,1,1.259-.1,10.238,10.238,0,0,1,3.8.787,7.4,7.4,0,0,1-3.86,5.236Zm-8.837-1.63h0a7.284,7.284,0,0,1-1.86-5.343A24.3,24.3,0,0,0,14.956,13.4c.244.426.489.912.753,1.486a12.272,12.272,0,0,0-6.179,5.01ZM22.337,15.2h0a10.991,10.991,0,0,0-3.856-.744,9.163,9.163,0,0,0-1.714.16c-.262-.591-.526-1.127-.786-1.594A13.979,13.979,0,0,0,20.556,10.2a7.219,7.219,0,0,1,1.781,5ZM7.8,13.5h0a7.385,7.385,0,0,1,3.4-4.78,18.425,18.425,0,0,1,3.183,3.75A23.142,23.142,0,0,1,7.8,13.5Zm7.627-1.4h0A19.563,19.563,0,0,0,12.209,8.2a7.307,7.307,0,0,1,7.6,1.254,13.45,13.45,0,0,1-4.382,2.639Z" fill="#bababa"/>
</svg>
