<svg xmlns="http://www.w3.org/2000/svg" width="30" height="30" viewBox="0 0 30 30">
  <path id="twitter" d="M15,0A15,15,0,1,0,30,15,15,15,0,0,0,15,0Zm6.849,11.7q.01.221.01.445a9.729,9.729,0,0,1-9.8,9.8h0A9.745,9.745,0,0,1,6.785,20.39a7,7,0,0,0,.821.048,6.908,6.908,0,0,0,4.276-1.474,3.447,3.447,0,0,1-3.216-2.391,3.432,3.432,0,0,0,1.555-.059,3.444,3.444,0,0,1-2.762-3.375c0-.016,0-.03,0-.044a3.419,3.419,0,0,0,1.559.431,3.446,3.446,0,0,1-1.066-4.6,9.775,9.775,0,0,0,7.1,3.6,3.445,3.445,0,0,1,5.867-3.14A6.906,6.906,0,0,0,23.1,8.55a3.456,3.456,0,0,1-1.514,1.9,6.867,6.867,0,0,0,1.977-.542A7,7,0,0,1,21.849,11.7Zm0,0" fill="#bababa"/>
</svg>
