<?xml version="1.0" encoding="utf-8"?>
<!-- Generator: Adobe Illustrator 19.0.0, SVG Export Plug-In . SVG Version: 6.00 Build 0)  -->
<svg version="1.1" id="Layer_1" xmlns="http://www.w3.org/2000/svg" xmlns:xlink="http://www.w3.org/1999/xlink" x="0px" y="0px"
	 viewBox="0 0 98.4 30" style="enable-background:new 0 0 98.4 30;" xml:space="preserve">
<style type="text/css">
	.st0{fill:#E6E6E5;}
</style>
<g>
	<g id="XMLID_108_">
		<path id="XMLID_121_" class="st0" d="M7.3,24.3c-0.1,0-0.3-0.1-0.5-0.2l-5.7-5.5c-0.3-0.3-0.5-0.5-0.6-0.6
			c-0.1-0.1-0.2-0.3-0.3-0.5C0.1,17.3,0,17.1,0,16.9v-0.8c0-0.2,0.1-0.5,0.2-0.7c0.1-0.2,0.2-0.4,0.3-0.5c0.1-0.1,0.3-0.3,0.6-0.6
			l5.7-5.7c0.1-0.1,0.3-0.2,0.5-0.2c0.2,0,0.4,0.1,0.5,0.2C7.9,8.8,7.9,9,7.9,9.2v0.9c0,0.1,0,0.2,0,0.3c0,0.1,0,0.2,0,0.2
			c0,0.1,0,0.1-0.1,0.2c-0.1,0.1-0.1,0.1-0.1,0.2c0,0-0.1,0.1-0.1,0.2c-0.1,0.1-0.1,0.1-0.1,0.1c0,0-0.1,0.1-0.2,0.2
			C7.1,11.6,7,11.6,7,11.6l-4.4,4.5c-0.1,0.1-0.2,0.2-0.2,0.3c0,0.1,0.1,0.2,0.2,0.3L7,21.1c0,0,0.1,0.1,0.2,0.2
			c0.1,0.1,0.2,0.1,0.2,0.2c0,0,0.1,0.1,0.2,0.2c0.1,0.1,0.1,0.1,0.1,0.2c0,0,0.1,0.1,0.1,0.2c0,0.1,0.1,0.1,0.1,0.2
			c0,0.1,0,0.1,0,0.2c0,0.1,0,0.2,0,0.3v1c0,0.2-0.1,0.3-0.2,0.5C7.6,24.3,7.5,24.3,7.3,24.3z"/>
		<path id="XMLID_119_" class="st0" d="M12.8,30c-0.1,0-0.2-0.1-0.2-0.4c0,0,0,0,0-0.1c0,0,0-0.1,0-0.1l4.6-28.9
			C17.3,0.2,17.4,0,17.6,0h2.7c0.1,0,0.2,0.1,0.2,0.4c0,0.1,0,0.1,0,0.2l-4.6,28.9c-0.1,0.4-0.2,0.6-0.3,0.6L12.8,30z"/>
		<path id="XMLID_117_" class="st0" d="M24.8,26.7c-0.2,0-0.3,0-0.4-0.1c-0.1-0.1-0.1-0.3-0.1-0.6V4.1c0-0.3,0-0.5,0.1-0.6
			c0.1-0.1,0.2-0.1,0.4-0.1h2.8c0.2,0,0.3,0,0.4,0.1c0.1,0.1,0.1,0.3,0.1,0.6v8.6c0,0.1,0,0.2,0.1,0.3c0,0.1,0.1,0.1,0.1,0.1h5.9
			c0,0,0.1,0,0.1-0.1c0.1-0.1,0.1-0.2,0.1-0.3V4.1c0-0.3,0-0.5,0.1-0.6c0.1-0.1,0.2-0.1,0.4-0.1h2.9c0.2,0,0.3,0,0.4,0.1
			c0.1,0.1,0.1,0.3,0.1,0.6v21.8c0,0.3,0,0.5-0.1,0.6c-0.1,0.1-0.2,0.1-0.4,0.1h-2.9c-0.1,0-0.2,0-0.3,0c-0.1,0-0.1-0.1-0.2-0.2
			c-0.1-0.1-0.1-0.3-0.1-0.5V16c0-0.2-0.1-0.3-0.2-0.3h-5.8c-0.1,0-0.2,0.1-0.2,0.3v9.9c0,0.3,0,0.5-0.1,0.6
			c-0.1,0.1-0.2,0.1-0.4,0.1H24.8z"/>
		<path id="XMLID_115_" class="st0" d="M45.6,26.7c-0.2,0-0.3-0.1-0.4-0.2c-0.1-0.1-0.1-0.3-0.1-0.6V6.4c0-0.3-0.1-0.4-0.2-0.4h-3.4
			c-0.1,0-0.2,0-0.3,0c-0.1,0-0.1-0.1-0.2-0.2C41,5.7,41,5.6,41,5.4V4.1c0-0.3,0-0.5,0.1-0.6c0.1-0.1,0.2-0.1,0.4-0.1h11.1
			c0.2,0,0.3,0,0.4,0.1c0.1,0.1,0.1,0.3,0.1,0.6v1.3c0,0.3,0,0.4-0.1,0.5C52.9,6,52.7,6,52.6,6h-3.3C49.1,6,49,6.1,49,6.4v19.5
			c0,0.3,0,0.5-0.1,0.6c-0.1,0.1-0.2,0.1-0.4,0.1H45.6z"/>
		<path id="XMLID_113_" class="st0" d="M55.9,26.7c-0.3,0-0.5-0.3-0.5-0.8v-0.1l0.9-21.5c0-0.6,0.2-0.9,0.5-0.9h3.1
			c0.2,0,0.4,0.1,0.5,0.2c0.1,0.1,0.2,0.3,0.3,0.6L64,19.5c0,0,0,0.1,0.1,0.1c0,0,0.1,0,0.1,0c0,0,0-0.1,0-0.1l3.3-15.3
			c0.1-0.5,0.4-0.8,0.8-0.8h3.1c0.3,0,0.5,0.3,0.5,0.9l0.9,21.5v0.1c0,0.5-0.2,0.8-0.5,0.8h-2.2c-0.3,0-0.5-0.3-0.5-0.9L69,9.2
			c0-0.1,0-0.1-0.1-0.1c0,0-0.1,0-0.1,0l-3.6,16.8c-0.1,0.5-0.3,0.8-0.7,0.8h-1.3c-0.3,0-0.5-0.3-0.7-0.8L59.3,9.2
			c0-0.1,0-0.1-0.1,0c0,0,0,0.1,0,0.1l-0.6,16.5c0,0.6-0.2,0.9-0.5,0.9H55.9z"/>
		<path id="XMLID_111_" class="st0" d="M77.4,26.7c-0.2,0-0.3,0-0.4-0.1c-0.1-0.1-0.1-0.3-0.1-0.6V4.1c0-0.3,0-0.5,0.1-0.6
			c0.1-0.1,0.2-0.1,0.4-0.1h2.9c0.2,0,0.3,0,0.4,0.1c0.1,0.1,0.1,0.3,0.1,0.6v19.6c0,0.2,0.1,0.4,0.3,0.4h5.1c0.2,0,0.3,0,0.4,0.1
			c0.1,0.1,0.1,0.2,0.1,0.5V26c0,0.3,0,0.4-0.1,0.5c-0.1,0.1-0.2,0.1-0.4,0.1H77.4z"/>
		<path id="XMLID_109_" class="st0" d="M91.1,24.3c-0.2,0-0.4-0.1-0.5-0.2c-0.1-0.1-0.2-0.3-0.2-0.5v-0.9c0-0.1,0-0.1,0-0.2
			c0-0.1,0-0.1,0-0.2c0-0.1,0-0.1,0.1-0.2c0-0.1,0-0.1,0.1-0.1c0,0,0.1-0.1,0.1-0.1c0-0.1,0.1-0.1,0.1-0.1c0,0,0.1-0.1,0.1-0.1
			s0.1-0.1,0.1-0.1c0,0,0.1-0.1,0.2-0.1c0.1-0.1,0.1-0.1,0.2-0.2l4.4-4.5c0.1-0.1,0.2-0.2,0.2-0.3c0-0.1-0.1-0.2-0.2-0.3l-4.4-4.4
			c0,0-0.1-0.1-0.2-0.2c-0.1-0.1-0.2-0.2-0.2-0.2c0,0-0.1-0.1-0.2-0.2c-0.1-0.1-0.1-0.1-0.1-0.2c0,0,0-0.1-0.1-0.2
			c0-0.1-0.1-0.2-0.1-0.3c0-0.1,0-0.2,0-0.3v-1c0-0.2,0.1-0.4,0.2-0.5c0.1-0.1,0.3-0.2,0.5-0.2c0.1,0,0.3,0.1,0.5,0.2l5.7,5.5
			c0.3,0.3,0.5,0.5,0.6,0.6c0.1,0.1,0.2,0.3,0.3,0.5c0.1,0.2,0.2,0.4,0.2,0.7v0.8c0,0.1,0,0.2,0,0.2c0,0.1,0,0.1-0.1,0.2
			c0,0.1-0.1,0.1-0.1,0.2c0,0-0.1,0.1-0.1,0.2C98,17.6,98,17.7,98,17.7c0,0-0.1,0.1-0.2,0.2c-0.1,0.1-0.1,0.1-0.2,0.2
			c0,0-0.1,0.1-0.2,0.2c-0.1,0.1-0.2,0.2-0.2,0.2l-5.7,5.7C91.4,24.3,91.2,24.3,91.1,24.3z"/>
	</g>
</g>
</svg>
