<svg width="21" height="19" viewBox="0 0 21 19" fill="none"
    xmlns="http://www.w3.org/2000/svg">
    <path d="M20.9706 7.15765C20.9006 6.94804 20.7145 6.79529 20.4905 6.76364L14.1974 5.87345L11.383 0.322507C11.2829 0.124902 11.0761 -0.000183105 10.8497 -0.000183105C10.6233 -0.000183105 10.4166 0.124902 10.3164 0.322507L7.50188 5.87345L1.2089 6.76364C0.984931 6.79529 0.798783 6.94805 0.728843 7.15761C0.658864 7.36722 0.717226 7.59728 0.879348 7.75108L5.43287 12.0719L4.35809 18.1731C4.31979 18.3903 4.41153 18.6097 4.59467 18.7393C4.69827 18.8125 4.82098 18.8498 4.94429 18.8498C5.03897 18.8498 5.13396 18.8279 5.22095 18.7833L10.8497 15.9027L16.4782 18.7833C16.6786 18.8858 16.9214 18.8688 17.1045 18.7392C17.2877 18.6097 17.3794 18.3902 17.3412 18.173L16.266 12.0719L20.8201 7.75104C20.9822 7.59728 21.0406 7.36722 20.9706 7.15765Z" fill="#FFCA56"/>
</svg>
    