<?xml version="1.0" encoding="utf-8"?>
<!-- Generator: Adobe Illustrator 18.1.1, SVG Export Plug-In . SVG Version: 6.00 Build 0)  -->
<svg version="1.1" id="Layer_1" xmlns="http://www.w3.org/2000/svg" xmlns:xlink="http://www.w3.org/1999/xlink" x="0px" y="0px"
	 viewBox="0 0 383 395" enable-background="new 0 0 383 395" xml:space="preserve">
<g>
	<rect fill="#EAE7DD" width="383" height="395"/>
	<g>
		<g>
			<path fill="#ED2224" d="M157.5,206.1c-4.1,0-8.2-0.8-12.1-2.3c-1.6-0.6-2.8-2-3.2-3.7c-0.4-1.7,0.2-3.5,1.4-4.7l14.2-14.2
				c0.1-0.1,0.1-0.2,0.1-0.3c0-0.1,0-0.2-0.1-0.3l-7.9-7.9c-0.2-0.2-0.5-0.2-0.7,0L135,186.8c-1.2,1.2-3,1.8-4.7,1.4
				c-1.7-0.4-3.1-1.5-3.7-3.2c-4.8-12.3-1.9-26.3,7.4-35.6c8.5-8.5,20.9-11.7,32.4-8.5l26.5-26.5c-3.1-11.4,0-23.7,8.3-32.2
				c9.4-9.5,23.4-12.5,35.8-7.6c1.6,0.6,2.8,2,3.2,3.7c0.4,1.7-0.2,3.5-1.4,4.7l-14.2,14.2c-0.1,0.1-0.1,0.2-0.1,0.3
				c0,0.1,0,0.2,0.1,0.3l7.9,7.9c0.2,0.2,0.5,0.2,0.7,0l14.2-14.2c1.2-1.2,3-1.8,4.7-1.4c1.7,0.4,3.1,1.5,3.7,3.2
				c4.8,12.3,1.9,26.3-7.4,35.6c-8.5,8.5-20.9,11.7-32.4,8.5L189.6,164c3.1,11.4,0,23.7-8.3,32.2
				C174.9,202.7,166.3,206.1,157.5,206.1z M149.6,162.1c2.9,0,5.6,1.1,7.6,3.2l7.9,7.9c2,2,3.2,4.7,3.2,7.6c0,2.9-1.1,5.6-3.2,7.6
				l-7.4,7.4c6-0.1,11.8-2.4,16.1-6.9c6.3-6.4,8.3-16,5-24.5c-0.7-1.9-0.3-4.1,1.2-5.5l31-31c1.4-1.4,3.6-1.9,5.5-1.2
				c8.5,3.3,18.2,1.3,24.6-5.1c4.3-4.3,6.7-10.1,6.7-16l-7.4,7.4c-2,2-4.7,3.2-7.6,3.2c-2.9,0-5.6-1.1-7.6-3.2l-7.9-7.9
				c-2-2-3.2-4.7-3.2-7.6c0-2.9,1.1-5.6,3.2-7.6l7.4-7.4c-6,0.1-11.8,2.4-16.1,6.9c-6.3,6.4-8.3,16-5,24.5c0.7,1.9,0.3,4.1-1.2,5.5
				l-31,31c-1.4,1.4-3.6,1.9-5.5,1.2c-8.5-3.3-18.2-1.3-24.6,5.1c-4.3,4.3-6.7,10.1-6.7,16l7.4-7.4
				C144,163.2,146.7,162.1,149.6,162.1z"/>
		</g>
	</g>
</g>
</svg>
