<?xml version="1.0" encoding="utf-8"?>
<!-- Generator: Adobe Illustrator 19.0.0, SVG Export Plug-In . SVG Version: 6.00 Build 0)  -->
<svg version="1.1" id="Layer_1" xmlns="http://www.w3.org/2000/svg" xmlns:xlink="http://www.w3.org/1999/xlink" x="0px" y="0px"
	 viewBox="0 0 14 30" style="enable-background:new 0 0 14 30;" xml:space="preserve">
<style type="text/css">
	.st0{fill:#3F59A6;}
</style>
<g id="_x23_020201ff_4_">
	<path class="st0" d="M4.6,1.5C5.8,0.4,7.4,0.1,9,0c1.7,0,3.3,0,5,0c0,1.8,0,3.5,0,5.3c-1.1,0-2.1,0-3.2,0c-0.7,0-1.4,0.5-1.5,1.1
		c0,1.2,0,2.3,0,3.5c1.6,0,3.1,0,4.7,0c-0.1,1.7-0.3,3.4-0.6,5.1c-1.4,0-2.8,0-4.2,0c0,5,0,10,0,15c-2.1,0-4.1,0-6.2,0
		c0-5,0-10,0-15c-1,0-2,0-3,0c0-1.7,0-3.4,0-5c1,0,2,0,3,0c0-1.6,0-3.3,0-4.9C3.2,3.7,3.6,2.4,4.6,1.5z"/>
</g>
</svg>
