<?xml version="1.0" encoding="utf-8"?>
<!-- Generator: Adobe Illustrator 19.0.0, SVG Export Plug-In . SVG Version: 6.00 Build 0)  -->
<svg version="1.1" id="Layer_1" xmlns="http://www.w3.org/2000/svg" xmlns:xlink="http://www.w3.org/1999/xlink" x="0px" y="0px"
	 viewBox="0 0 100.9 130.7" style="enable-background:new 0 0 100.9 130.7;" xml:space="preserve">
<style type="text/css">
	.st0{fill:#3F59A6;}
</style>
<g>
	<path class="st0" d="M37.4,129.1c0.7,0.9,1.8,1.6,3,1.6h48.2c1.6,0,3-1.1,3.6-2.5c0.1-0.2,1-2.7,1.4-3.7c1-2.8,2-5.9,2.9-9.1
		c1.5-5.1,2.7-10.1,3.4-14.8c1.6-10.2,1.2-18.4-2.2-24c-3.5-5.8-9.9-10-18.1-13c-4.3-1.5-9-2.7-13.6-3.4c-1.6-0.3-2.8-0.4-2.8-0.4
		v-35c0-6.3-4.8-12.2-11.2-12.2h-1.9c-6.4,0-11.6,5.5-11.6,11.9l0,60.8L25.7,74.3C17.5,67.1,6,69,0.6,78.5C-0.3,80-0.2,81.8,0.8,83
		L37.4,129.1z M9.9,79.3c3.1-2.4,7.3-2.2,10.8,0.8l19.2,16.7c2.5,2.2,6.4,0.4,6.4-2.9V24.9c0-2.1,1.8-4.2,3.9-4.2H52
		c2.1,0,4.2,2.1,4.2,4.2v38.4c0,2,1.4,3.7,3.4,3.8c0.2,0,0.6,0.1,1.4,0.1c1.2,0.1,2.5,0.3,4,0.6c4.1,0.7,8.2,1.7,12.1,3.1
		c6.8,2.4,11.7,5.7,14.2,9.7c2.2,3.6,2.6,10.2,1.2,18.8c-0.7,4.4-1.8,9.1-3.2,13.9c-0.9,3-1.8,5.9-2.8,8.5c-0.3,0.9-0.3,0.9-0.3,0.9
		H42.4L8.7,80.4C8.7,80.4,9.2,79.8,9.9,79.3z"/>
	<path id="XMLID_1_" class="st0" d="M76.6,20.7C74.1,20.7,63.6,0,51.1,0c-14.4,0-26,11.6-26,25.9c0,9.6,5.3,18.3,13.6,22.8
		c1.9,1,4.2,0.3,5.2-1.5c1-1.9,0.3-4.2-1.5-5.2c-5.9-3.2-9.6-9.3-9.6-16c0-10.1,8.2-18.2,18.3-18.2s18.3,8.2,18.3,18.2
		c0,6.7-3.6,12.7-9.4,15.9c-1.9,1-2.5,3.4-1.5,5.2c1,1.9,3.4,2.2,5.2,1.2C71.2,44,76.2,36.7,77,27.7h11.2v4.4c0,1,0.7,1.4,1.6,0.8
		l10.4-7.4c0.9-0.6,0.9-1.6,0-2.2L89.8,16c-0.9-0.6-1.6-0.3-1.6,0.8v3.9H76.6L76.6,20.7z"/>
</g>
</svg>
