<?xml version="1.0" encoding="utf-8"?>
<!-- Generator: Adobe Illustrator 19.0.0, SVG Export Plug-In . SVG Version: 6.00 Build 0)  -->
<svg version="1.1" id="Layer_1" xmlns="http://www.w3.org/2000/svg" xmlns:xlink="http://www.w3.org/1999/xlink" x="0px" y="0px"
	 viewBox="0 0 85.1 127" style="enable-background:new 0 0 85.1 127;" xml:space="preserve">
<style type="text/css">
	.st0{fill:#3F59A6;}
</style>
<path class="st0" d="M84.4,82.4c-0.8-0.7-2.1-0.6-2.8,0.2L67.9,98.7l-8.7-6.9c-0.9-0.7-2.1-0.5-2.8,0.3c-0.7,0.9-0.5,2.1,0.3,2.8
	l10.2,8.1c0.4,0.3,0.8,0.4,1.2,0.4c0.6,0,1.1-0.2,1.5-0.7l14.9-17.5C85.4,84.3,85.3,83.1,84.4,82.4z M70.8,115.6
	c-1.1,0-2.1,0.7-2.1,1.8c0,3.3-2.8,5.7-6,5.7H10.2c-3.3,0-6.2-2.2-6.2-5.5V9.7C4,6.4,6.9,4,10.2,4h52.5C65.9,4,69,6.4,69,9.7v60.3
	c0,1.1,0.9,2,2,2s2-0.9,2-2V36.3c1-0.3,2-1.6,2-3.2v-8.6c0-1.6-1-2.9-2-3.2V9.7C73,4.3,68.1,0,62.7,0H10.2C4.7,0,0,4.3,0,9.7v107.8
	c0,5.4,4.7,9.5,10.2,9.5h52.5c5,0,9.4-3.6,10-8.4c0.1-0.2,0.3-0.2,0.3-0.4v-0.7C73,116.4,71.9,115.6,70.8,115.6z M46.3,10
	c1.1,0,2-0.9,2-2s-0.9-2-2-2H26.5c-1.1,0-2,0.9-2,2s0.9,2,2,2H46.3z M30.9,116.6c0,3,2.5,5.5,5.5,5.5c3,0,5.5-2.5,5.5-5.5
	s-2.5-5.5-5.5-5.5C33.4,111.1,30.9,113.6,30.9,116.6z M38,116.6c0,0.8-0.7,1.5-1.5,1.5s-1.5-0.7-1.5-1.5c0-0.8,0.7-1.5,1.5-1.5
	S38,115.8,38,116.6z M60,71.8c1.2,0,2-1,2-2.2V25.6c0-3.7-3.3-7.6-7.3-7.6H18.9c-4.2,0-7.9,4.1-7.9,8.2v73.5c0,4.2,3.7,7.3,7.9,7.3
	h31.2c1.2,0,2.2-0.8,2.2-2s-1-2-2.2-2H18.9c-1.8,0-2.9-1.6-2.9-3.3V26.2c0-1.8,1.1-3.2,2.9-3.2h35.7c1.9,0,3.3,1.5,3.3,2.6v44.1
	C58,70.8,58.8,71.8,60,71.8z"/>
</svg>
