<?xml version="1.0" encoding="utf-8"?>
<!-- Generator: Adobe Illustrator 19.0.0, SVG Export Plug-In . SVG Version: 6.00 Build 0)  -->
<svg version="1.1" id="Layer_1" xmlns="http://www.w3.org/2000/svg" xmlns:xlink="http://www.w3.org/1999/xlink" x="0px" y="0px"
	 viewBox="0 0 47.2 30" style="enable-background:new 0 0 47.2 30;" xml:space="preserve">
<style type="text/css">
	.st0{fill:#3F59A6;}
</style>
<g>
	<g id="XMLID_27_">
		<path id="XMLID_30_" class="st0" d="M15,12V18c0,0,5.8,0,8.1,0c-1.3,3.9-3.2,5.9-8.1,5.9c-4.9,0-8.8-4-8.8-8.9
			c0-4.9,3.8-8.9,8.8-8.9c2.6,0,4.3,0.9,5.8,2.2C22.1,7,22,6.9,25.1,3.9C22.4,1.5,18.9,0,15,0C6.7,0,0,6.7,0,15c0,8.3,6.7,15,15,15
			c12.4,0,15.4-10.8,14.4-18C26.5,12,15,12,15,12z M42,12.3V7.1h-3.7v5.2H33V16h5.3v5.3H42V16h5.2v-3.7H42z"/>
	</g>
</g>
</svg>
